<svg width="127" height="102" viewBox="0 0 127 102" fill="none" xmlns="http://www.w3.org/2000/svg">
<path fill-rule="evenodd" clip-rule="evenodd" d="M114.269 5.80687C114.042 5.44439 113.865 5.18852 113.731 5.04637C113.596 4.90422 113.426 4.77628 113.22 4.65545C113.631 4.59859 113.943 4.44933 114.149 4.22189C114.354 3.99445 114.461 3.70304 114.461 3.34767C114.461 3.07048 114.397 2.82171 114.255 2.60849C114.12 2.39526 113.936 2.246 113.709 2.16071C113.483 2.07542 113.121 2.03278 112.625 2.03278H110.634V6.71663H111.576V4.76206H111.768C111.987 4.76206 112.143 4.78339 112.243 4.81182C112.342 4.84736 112.441 4.91132 112.526 5.01083C112.611 5.10323 112.781 5.33067 113.022 5.70026L113.702 6.71663H114.829L114.255 5.79976L114.269 5.80687ZM112.278 4.01578H111.584V2.82882H112.32C112.703 2.82882 112.93 2.82882 113.008 2.84304C113.157 2.87147 113.277 2.92833 113.362 3.02783C113.447 3.12734 113.49 3.25527 113.49 3.41164C113.49 3.55379 113.461 3.66751 113.398 3.75991C113.334 3.8523 113.249 3.92338 113.135 3.95892C113.022 3.99445 112.739 4.01578 112.285 4.01578M112.526 -0.00708008H112.483C110.088 0.00713496 108.14 1.96881 108.14 4.37826C108.14 6.78771 110.103 8.75649 112.512 8.75649C114.921 8.75649 116.877 6.78771 116.877 4.37826C116.877 1.96881 114.928 0.00713496 112.533 -0.00708008M112.512 7.79698C110.634 7.79698 109.096 6.26175 109.096 4.37115C109.096 2.48055 110.627 0.952435 112.512 0.952435C114.397 0.952435 115.92 2.48766 115.92 4.37115C115.92 6.25464 114.39 7.79698 112.512 7.79698ZM78.42 5.47992H71.8511C70.0229 5.47992 68.2938 6.32572 67.1671 7.76855L58.5007 18.8705V5.49414H55.3119C52.4916 5.49414 50.2098 7.78276 50.2098 10.6116V51.4371H53.3986C56.2189 51.4371 58.5007 49.1485 58.5007 46.3197V36.1347L67.6135 49.248C68.5702 50.6198 70.1292 51.4442 71.8015 51.4442H78.4271L62.8587 27.4564L78.4129 5.50125L78.42 5.47992ZM37.4192 43.1995C34.1808 43.1995 32.1187 42.3893 31.1904 41.9273C27.1583 39.7879 23.4877 35.431 23.105 28.3377C23.1121 21.4932 26.9032 16.5677 33.8123 14.4496C35.1799 13.945 40.3954 13.8526 41.352 13.8952H43.6976C45.7526 13.9094 47.432 12.2463 47.4533 10.1851L47.4958 5.46571H46.695C44.4912 5.46571 42.2591 5.48703 40.0269 5.50125C38.3616 5.51546 36.7106 5.52257 35.0524 5.52968C35.0028 5.52968 34.9674 5.52968 34.9177 5.52968C33.8265 5.52968 32.9336 5.66472 32.2675 5.79266C21.5106 8.54327 14.8 16.7098 14.2756 27.8757V27.9184C14.2614 42.3537 23.2822 48.2459 30.0424 50.6411C30.6731 50.8401 32.5864 51.3803 34.9957 51.3945C36.5547 51.3945 38.1065 51.3945 39.6726 51.3803C40.6292 51.3803 42.1032 51.3732 43.5133 51.3661C45.7242 51.3661 47.51 49.5679 47.5241 47.3574V47.3219C47.5383 46.2131 47.5454 45.0972 47.5454 44.0453V43.2635L46.7659 43.2777C44.0306 43.3275 40.7993 43.299 37.4263 43.1924M96.2915 5.97034C94.9451 5.66472 93.6979 5.57232 92.883 5.54389C92.6208 5.54389 92.3515 5.54389 92.0893 5.54389C91.9689 5.54389 91.9051 5.54389 91.9051 5.54389C90.58 5.52968 89.2619 5.52257 87.9368 5.51546C85.7047 5.49414 83.4725 5.47992 81.2687 5.47992H80.5459C80.5459 5.47992 80.5317 8.23764 80.5459 9.74444C80.553 12.0544 82.4308 13.9237 84.7338 13.9165H87.1361C90.7359 13.8739 92.7909 13.9592 94.1939 14.4709C101.068 16.5748 104.852 21.5003 104.866 28.3022C104.483 35.4239 100.812 39.7879 96.7804 41.9273C96.7025 41.9699 96.6174 42.0055 96.5395 42.041C96.3127 42.1547 96.093 42.2684 95.8663 42.3679C94.5837 42.901 93.3082 43.0716 92.5287 43.1285C88.4541 43.2919 84.4787 43.3488 81.212 43.2919L80.4325 43.2777V44.0666C80.4325 44.4576 80.4325 45.5521 80.4467 46.7817C80.4609 49.3262 82.5159 51.3803 85.0527 51.3945C86.2716 51.3945 87.4762 51.3945 88.3053 51.4087C90.1832 51.4158 91.4587 51.4229 93.3223 51.4229C93.9955 51.4016 96.0151 51.2452 97.3402 50.8685C97.7158 50.7477 97.9 50.6837 98.2898 50.5416C98.2969 50.5416 98.3039 50.5416 98.3181 50.5345C105.036 48.054 113.738 42.0979 113.709 27.8757C113.192 16.9515 106.722 8.87732 96.3127 5.97745M126.188 99.9673V100.443H111.314C107.523 100.443 104.462 99.5479 102.123 97.7639C100.671 99.1073 98.722 100.387 96.2702 101.623V100.053C96.2702 98.9722 96.8229 97.9843 97.7016 97.3588C98.5661 96.7405 99.2606 96.0937 99.785 95.4185C98.1126 93.073 96.9434 89.1638 96.2773 83.684C98.2685 83.684 99.9976 85.0841 100.43 87.0387C100.841 88.8796 101.294 90.4432 101.79 91.7297C102.237 90.3863 102.456 88.7729 102.456 86.8681V82.632C102.456 81.637 101.656 80.8338 100.664 80.8338H97.1064V78.396C97.1064 77.806 97.3331 77.2517 97.7229 76.811C99.7495 74.5224 101.266 71.9494 102.286 69.0993H97.7725V68.1682C97.7725 66.832 98.8496 65.7517 100.182 65.7517H106.793V68.3459C106.793 68.8435 106.694 69.3481 106.51 69.8101C105.263 72.8521 103.945 75.4108 101.769 77.4862H104.32C105.411 77.4862 106.297 78.3746 106.297 79.4692V86.0365C106.411 89.8391 105.794 92.9095 104.462 95.255C106.134 96.712 108.473 97.437 111.477 97.437H123.651C125.054 97.437 126.188 98.5742 126.188 99.9815M125.224 71.6225H124.353V65.7588H117.501V65.2044C117.501 64.0317 116.551 63.0793 115.382 63.0793H113.157V65.7588H108.147V66.8676C108.147 67.8271 108.926 68.6089 109.883 68.6089H113.157V71.6225H106.474V72.8734C106.474 73.8472 107.261 74.6432 108.239 74.6432H113.164V77.6568H107.984V78.7016C107.984 79.6966 108.792 80.5069 109.784 80.5069H113.164V83.357H107.651V84.4658C107.651 85.5177 108.501 86.3706 109.557 86.3706H113.171V89.5548H106.822V90.7417C106.822 91.751 107.636 92.5684 108.643 92.5684H113.171V96.2571H117.515V92.5684H125.536V91.2179C125.536 90.2939 124.792 89.5477 123.871 89.5477H117.508V86.3635H124.863V85.0841C124.863 84.1246 124.084 83.3428 123.127 83.3428H117.508V80.4927H119.683C122.914 80.6064 124.473 78.9859 124.36 75.6311V74.629H126.535V72.9161C126.535 72.1911 125.954 71.6083 125.232 71.6083M120.682 75.6311C120.682 76.9745 120.016 77.6426 118.677 77.6426H117.508V74.629H120.682V75.6311ZM120.682 71.6083H117.508V68.5947H120.682V71.6083ZM90.7642 76.6404C89.8714 77.3085 88.7588 77.9269 87.4195 78.4813C87.4195 78.4813 86.4912 78.9575 86.1369 78.3178C85.7543 77.6283 86.555 77.0171 86.555 77.0171C89.0848 75.0412 91.0618 70.1512 91.8767 65.8157C92.1602 64.3089 93.4711 63.2214 95.0018 63.2214H97.7867C97.1205 66.6828 96.2844 69.4831 95.2781 71.6012V71.6438C93.6837 74.6929 90.7642 76.6262 90.7642 76.6262M95.2781 74.1812V101.602H93.6058C92.0397 101.602 90.7642 100.33 90.7642 98.7519V78.3604C92.9326 76.8892 94.3569 75.4037 95.2781 74.1812ZM55.1347 92.149C54.6387 91.1113 54.0505 89.7538 53.6254 88.1972H55.5174C56.8567 88.1972 58.2243 89.2562 58.6282 90.5356C58.8125 91.1113 58.9896 91.5804 59.2447 92.1561L57.459 93.0232C56.5803 93.3857 55.5457 93.0232 55.1347 92.1561M76.528 88.3962L78.3917 88.7019C77.7185 90.1731 76.9177 91.4098 76.2658 92.3551C75.7202 93.1441 74.6431 93.336 73.8282 92.8313L72.2054 91.687C72.5456 91.1611 72.8007 90.7275 73.077 90.1873C73.6864 88.9933 75.21 88.1688 76.528 88.3891M62.4264 94.2315C59.7549 96.4704 56.0205 98.2544 51.2302 99.5977V97.963C51.2302 96.6339 52.0877 95.4967 53.3277 95.0347C58.7133 93.0375 61.7603 91.1611 62.4264 90.7133V94.2315ZM51.7333 83.1722C51.7333 88.311 51.1735 92.1135 50.061 94.5727C49.0548 97.0319 46.9927 99.4342 43.8747 101.78C43.8747 101.78 43.1307 102.149 42.8756 101.609C42.5638 100.962 43.2795 100.053 43.2795 100.053C45.3983 97.1456 46.9431 90.4361 46.7234 84.1815V68.3317C46.7234 66.9031 47.8784 65.7375 49.3099 65.7375H61.5974C61.5974 64.252 62.7949 63.0579 64.2689 63.0579H67.7765V65.7375H78.8381C80.39 65.7375 81.6513 67.0026 81.6513 68.5592V69.0922H51.7404V77.806V80.9902V83.1722H51.7333ZM78.8098 80.9902H79.7593C81.1695 80.9902 82.3174 79.8388 82.3174 78.4244V77.806H78.8098V73.9609C78.8098 72.845 77.9098 71.9423 76.7973 71.9423H68.1167V69.7603H63.2697V71.9423H55.7937C54.6599 71.9423 53.7458 72.8663 53.7458 73.9964V75.1265H63.2697H68.1167H74.2959V77.806H68.1167V76.285H63.2697V77.806H53.1506V80.9902H63.2697V83.8403H55.6095C54.3978 83.8403 53.4128 84.8283 53.4128 86.0436V87.0245H63.2768V96.2429C63.3831 97.6929 62.717 98.361 61.2714 98.2544H59.7691V101.439H62.9437C66.5081 101.552 68.2371 99.8749 68.1238 96.4064V93.3857C70.6819 96.0652 75.1958 98.4676 81.6584 100.593V99.5479C81.6584 98.3823 80.9781 97.3162 79.9152 96.8329C77.8602 95.9018 74.2746 93.734 72.4676 92.3622C70.8732 91.1397 68.6269 88.9435 68.1167 87.9556V87.0174H73.7998C77.2508 87.1311 78.9231 85.4537 78.8169 81.9853V80.976L78.8098 80.9902ZM72.1275 83.8403H68.1167V80.9902H74.2959V81.4948C74.4092 83.1722 73.6864 83.954 72.1275 83.8403ZM1.58419 65.4816V64.5434H23.1405C26.7048 64.6287 29.9078 64.5932 33.1816 63.8256C35.1232 63.3707 36.1791 64.6642 36.1791 66.1142L36.1437 67.0381C31.7431 67.9124 28.1646 68.0474 23.9766 68.083H4.17775C2.74633 68.083 1.58419 66.9173 1.58419 65.4816ZM33.5785 78.6447C33.2667 78.6447 32.9832 78.5594 32.7281 78.4173C33.2171 78.9219 33.6847 79.391 34.1099 79.8246C35.3925 81.1253 35.1303 83.1296 33.5501 84.1317L33.5147 84.1531C33.5147 84.1531 33.4934 84.1531 33.4863 84.1531C32.7423 83.1011 31.6368 81.9071 30.1842 80.5638C29.7448 80.1586 29.8298 79.4834 30.3684 79.192C30.914 78.8935 31.4668 78.5737 32.0124 78.2396C32.147 78.1614 32.3171 78.1756 32.4588 78.2396C32.0762 77.9198 31.8282 77.4436 31.8282 76.9034C31.8282 76.4769 31.488 76.1358 31.0628 76.1358H6.48077C6.17606 76.1358 5.92804 76.3845 5.92804 76.6902V76.8536C5.92804 77.3512 5.72963 77.7989 5.40366 78.1259C6.02725 78.4315 6.70752 78.8366 7.40906 79.2844C7.83423 79.5545 7.93344 80.0804 7.64291 80.4714C7.55078 80.5922 7.47284 80.713 7.04766 81.2603C6.34613 82.1487 5.43201 83.222 4.29113 84.4729C4.29113 84.48 4.26987 84.48 4.26278 84.4729C2.73216 83.7195 2.64712 82.099 3.38409 80.6704C3.75257 79.9525 4.29113 79.2133 4.87928 78.4813C4.65252 78.5808 4.4045 78.6447 4.14231 78.6447H0.5V74.8706C0.5 73.8045 1.77552 72.9445 2.83845 72.9445H6.43116C6.09811 71.7149 5.65168 70.4284 5.09187 69.0922H7.43741C8.91134 69.0922 10.2294 70.002 10.7679 71.3737C10.9734 71.8926 11.1435 72.4114 11.2781 72.9516H17.2943C17.181 72.5038 16.9613 71.8357 16.6282 70.9402C16.4015 70.1583 16.1818 69.5471 15.9621 69.0993H18.2014C19.6328 69.0993 20.9154 69.9878 21.4539 71.324C21.6665 71.857 21.8437 72.4043 21.9854 72.9587H26.3293C26.7969 72.3546 27.2009 71.6296 27.5552 70.7909C28.0299 69.6466 29.1921 68.943 30.4322 68.943H33.3517C33.2383 69.1704 33.0682 69.5045 32.8486 69.9522C32.1825 71.2884 31.6227 72.2977 31.1762 72.9658H35.0949C36.1578 72.9658 37.4404 73.8329 37.4404 74.8991V78.666H33.5855L33.5785 78.6447ZM38.5246 97.8208C35.6335 97.8421 32.7423 97.5792 29.844 97.0319C26.9812 96.4917 26.0883 95.9942 25.0041 95.5464C27.2009 94.7859 30.4605 92.6679 32.6998 90.8483C33.791 89.967 34.0745 89.441 34.3509 88.048C34.5634 86.9605 34.4359 85.8944 33.3304 85.8944H12.7662C13.3331 85.5177 14.0063 85.0841 14.8 84.5937C14.8071 84.5937 15.2464 84.281 15.5511 84.0678H24.0262C25.4293 83.9612 29.263 84.2739 29.7732 84.0678C30.2763 83.8616 31.6368 82.8808 30.0212 81.111C29.4684 80.5069 28.4764 80.2866 28.4764 80.2866C27.293 79.9241 25.7057 80.1302 24.8695 80.9689C24.3239 81.5162 23.6648 81.3953 22.8924 81.4522H19.9091C20.1926 81.2532 20.4902 81.0613 20.7878 80.8836C21.7232 80.3292 21.8933 79.1565 21.1209 78.4173C20.8304 78.1401 20.5115 77.8345 20.1713 77.5075C19.5407 76.9034 18.5202 76.7897 17.7337 77.2161C17.1668 77.5217 16.7274 77.7421 16.4227 77.87C16.4086 77.87 16.4086 77.8913 16.4227 77.8984C17.7904 79.2346 18.9171 80.4145 19.7958 81.4451H15.2535C14.3606 81.4451 13.8504 81.2603 13.7229 80.8978C13.5953 80.5282 13.5316 80.4003 13.5316 79.6611C13.5316 79.3981 13.5457 79.1707 13.567 78.9646C13.6591 78.2183 13.0284 77.5644 12.1923 77.5644H8.91134C8.60663 77.5644 8.35153 77.7918 8.35153 78.0619C8.35153 79.4834 8.38696 80.1942 8.38696 80.8481C8.38696 82.1132 8.29484 82.1274 8.42239 83.0656C8.47908 83.4778 9.09558 83.7124 9.97427 83.8616C7.9547 86.8752 5.16273 90.5143 2.6613 92.2485C1.41412 93.1085 0.202379 94.857 1.2724 95.9302C1.4779 96.1363 2.02354 96.6765 2.22904 96.8968C2.22904 96.9039 4.59583 94.857 4.60292 94.8499C6.89177 93.0872 8.16729 91.1469 10.0026 89.5121C10.0097 89.505 10.0239 89.5121 10.031 89.5121C11.9726 92.0069 13.7158 93.9756 15.9267 95.4611C12.5678 96.5272 10.0664 97.2451 7.69251 97.6076C6.40282 97.8066 6.3107 97.9487 4.91471 98.0482C3.17859 98.1691 2.0448 100.351 2.64004 101.993C2.64004 102 2.65421 102.007 2.6613 102.007C6.1052 101.63 8.03973 101.09 10.9734 100.401C13.9071 99.7043 17.6416 99.1428 20.5115 97.8848H20.5256C23.842 99.5266 26.0245 99.8109 28.2284 100.308C30.7511 100.87 33.2029 101.296 35.5697 101.581C36.831 101.73 38.0357 101.083 38.6309 99.9602C38.7656 99.7114 38.9144 99.4626 39.0844 99.2139C39.3679 98.8016 39.0419 97.835 38.5459 97.835M20.5115 93.5065C20.5115 93.5065 19.8879 93.3573 19.8808 93.3573C18.2155 92.5897 17.9888 92.7247 14.885 89.8391C14.8708 89.8249 14.2614 89.171 14.2756 89.171L29.3976 89.1852C29.3976 89.1852 27.8244 89.9457 27.8103 89.9528C23.6507 92.2556 23.3389 92.5968 20.5115 93.5137" fill="white"/>
</svg>
