<svg width="36" height="35" viewBox="0 0 36 35" fill="none" xmlns="http://www.w3.org/2000/svg">
<g filter="url(#filter0_d_49_1708)">
<path d="M17.9551 6.43105C21.5621 6.43105 21.9893 6.44687 23.4078 6.51016C24.7262 6.56816 25.4381 6.78965 25.9127 6.97422C26.5402 7.2168 26.9937 7.51211 27.4631 7.98145C27.9377 8.45605 28.2277 8.9043 28.4703 9.53184C28.6549 10.0064 28.8764 10.7236 28.9344 12.0367C28.9977 13.4605 29.0135 13.8877 29.0135 17.4895C29.0135 21.0965 28.9977 21.5236 28.9344 22.9422C28.8764 24.2605 28.6549 24.9725 28.4703 25.4471C28.2277 26.0746 27.9324 26.5281 27.4631 26.9975C26.9885 27.4721 26.5402 27.7621 25.9127 28.0047C25.4381 28.1893 24.7209 28.4107 23.4078 28.4688C21.984 28.532 21.5568 28.5479 17.9551 28.5479C14.348 28.5479 13.9209 28.532 12.5023 28.4688C11.184 28.4107 10.4721 28.1893 9.99746 28.0047C9.36992 27.7621 8.91641 27.4668 8.44707 26.9975C7.97246 26.5229 7.68242 26.0746 7.43984 25.4471C7.25527 24.9725 7.03379 24.2553 6.97578 22.9422C6.9125 21.5184 6.89668 21.0912 6.89668 17.4895C6.89668 13.8824 6.9125 13.4553 6.97578 12.0367C7.03379 10.7184 7.25527 10.0064 7.43984 9.53184C7.68242 8.9043 7.97773 8.45078 8.44707 7.98145C8.92168 7.50684 9.36992 7.2168 9.99746 6.97422C10.4721 6.78965 11.1893 6.56816 12.5023 6.51016C13.9209 6.44687 14.348 6.43105 17.9551 6.43105ZM17.9551 4C14.29 4 13.8313 4.01582 12.3916 4.0791C10.9572 4.14238 9.97109 4.37441 9.1168 4.70664C8.22559 5.05469 7.47148 5.51348 6.72266 6.26758C5.96855 7.01641 5.50977 7.77051 5.16172 8.65645C4.82949 9.51602 4.59746 10.4969 4.53418 11.9312C4.4709 13.3762 4.45508 13.835 4.45508 17.5C4.45508 21.165 4.4709 21.6238 4.53418 23.0635C4.59746 24.4979 4.82949 25.484 5.16172 26.3383C5.50977 27.2295 5.96855 27.9836 6.72266 28.7324C7.47148 29.4813 8.22559 29.9453 9.11152 30.2881C9.97109 30.6203 10.952 30.8523 12.3863 30.9156C13.826 30.9789 14.2848 30.9947 17.9498 30.9947C21.6148 30.9947 22.0736 30.9789 23.5133 30.9156C24.9477 30.8523 25.9338 30.6203 26.7881 30.2881C27.674 29.9453 28.4281 29.4813 29.177 28.7324C29.9258 27.9836 30.3898 27.2295 30.7326 26.3436C31.0648 25.484 31.2969 24.5031 31.3602 23.0688C31.4234 21.6291 31.4393 21.1703 31.4393 17.5053C31.4393 13.8402 31.4234 13.3814 31.3602 11.9418C31.2969 10.5074 31.0648 9.52129 30.7326 8.66699C30.4004 7.77051 29.9416 7.01641 29.1875 6.26758C28.4387 5.51875 27.6846 5.05469 26.7986 4.71191C25.9391 4.37969 24.9582 4.14766 23.5238 4.08438C22.0789 4.01582 21.6201 4 17.9551 4Z" fill="white"/>
<path d="M17.9521 10.5654C14.1236 10.5654 11.0176 13.6715 11.0176 17.5C11.0176 21.3285 14.1236 24.4346 17.9521 24.4346C21.7807 24.4346 24.8867 21.3285 24.8867 17.5C24.8867 13.6715 21.7807 10.5654 17.9521 10.5654ZM17.9521 21.9982C15.4684 21.9982 13.4539 19.9838 13.4539 17.5C13.4539 15.0162 15.4684 13.0018 17.9521 13.0018C20.4359 13.0018 22.4504 15.0162 22.4504 17.5C22.4504 19.9838 20.4359 21.9982 17.9521 21.9982Z" fill="white"/>
<path d="M26.7867 10.2913C26.7867 11.1878 26.059 11.9103 25.1678 11.9103C24.2713 11.9103 23.5488 11.1825 23.5488 10.2913C23.5488 9.39483 24.2766 8.67236 25.1678 8.67236C26.059 8.67236 26.7867 9.4001 26.7867 10.2913Z" fill="white"/>
</g>
<defs>
<filter id="filter0_d_49_1708" x="0.455078" y="0" width="34.9844" height="34.9946" filterUnits="userSpaceOnUse" color-interpolation-filters="sRGB">
<feFlood flood-opacity="0" result="BackgroundImageFix"/>
<feColorMatrix in="SourceAlpha" type="matrix" values="0 0 0 0 0 0 0 0 0 0 0 0 0 0 0 0 0 0 127 0" result="hardAlpha"/>
<feOffset/>
<feGaussianBlur stdDeviation="2"/>
<feComposite in2="hardAlpha" operator="out"/>
<feColorMatrix type="matrix" values="0 0 0 0 1 0 0 0 0 0.470588 0 0 0 0 0.458824 0 0 0 0.45 0"/>
<feBlend mode="normal" in2="BackgroundImageFix" result="effect1_dropShadow_49_1708"/>
<feBlend mode="normal" in="SourceGraphic" in2="effect1_dropShadow_49_1708" result="shape"/>
</filter>
</defs>
</svg>
