<svg width="33" height="33" viewBox="0 0 33 33" fill="none" xmlns="http://www.w3.org/2000/svg">
<path d="M0 32.3485L2.32093 23.7264C0.449159 20.3677 -0.145523 16.4483 0.646014 12.6875C1.43755 8.92668 3.56221 5.57673 6.63012 3.25235C9.69802 0.927972 13.5034 -0.214922 17.3479 0.0333913C21.1924 0.281705 24.8182 1.90457 27.56 4.60419C30.3018 7.3038 31.9755 10.8991 32.2742 14.7303C32.5729 18.5615 31.4764 22.3717 29.186 25.4616C26.8956 28.5515 23.5649 30.7139 19.805 31.5521C16.0452 32.3902 12.1085 31.8478 8.71721 30.0244L0 32.3485ZM9.13753 26.7979L9.67665 27.1169C12.133 28.5692 15.002 29.1701 17.8365 28.8262C20.671 28.4822 23.3119 27.2126 25.3475 25.2153C27.3831 23.2179 28.6992 20.605 29.0906 17.7838C29.4819 14.9625 28.9267 12.0913 27.5113 9.61766C26.0959 7.14401 23.9 5.20685 21.2656 4.10805C18.6312 3.00925 15.7064 2.81054 12.947 3.54289C10.1876 4.27523 7.74855 5.89749 6.00998 8.15686C4.2714 10.4162 3.33096 13.1858 3.3352 16.0339C3.33289 18.3955 3.98767 20.7114 5.22667 22.7238L5.56476 23.2798L4.26723 28.0922L9.13753 26.7979Z" fill="white"/>
<path fill-rule="evenodd" clip-rule="evenodd" d="M22.2222 18.2479C21.9062 17.9936 21.5361 17.8147 21.1403 17.7246C20.7444 17.6346 20.3331 17.6359 19.9378 17.7284C19.3439 17.9745 18.9601 18.9041 18.5763 19.3689C18.4954 19.4804 18.3765 19.5585 18.2419 19.5887C18.1073 19.6189 17.9663 19.5991 17.8453 19.533C15.6709 18.6835 13.8483 17.1257 12.6735 15.1126C12.5733 14.9869 12.5259 14.8274 12.5412 14.6676C12.5566 14.5078 12.6335 14.3602 12.7557 14.2558C13.1838 13.8332 13.498 13.3097 13.6695 12.7337C13.7076 12.0985 13.5617 11.4657 13.2492 10.9109C13.0076 10.133 12.5478 9.44041 11.9242 8.91486C11.6026 8.77057 11.246 8.72219 10.8974 8.77555C10.5488 8.82892 10.2231 8.98176 9.95965 9.21563C9.50229 9.60922 9.13927 10.1001 8.89732 10.6522C8.65536 11.2043 8.54065 11.8035 8.56161 12.4056C8.56302 12.7438 8.60599 13.0805 8.68954 13.4082C8.90172 14.1956 9.22802 14.9479 9.65811 15.6412C9.96842 16.1723 10.307 16.6865 10.6724 17.1815C11.8598 18.8075 13.3525 20.188 15.0675 21.2465C15.9281 21.7844 16.8479 22.2217 17.8088 22.5498C18.8069 23.0011 19.9089 23.1744 20.9978 23.0511C21.6182 22.9575 22.206 22.7131 22.7095 22.3396C23.213 21.9661 23.6168 21.4749 23.8853 20.9093C24.043 20.5675 24.0909 20.1855 24.0223 19.8155C23.8578 19.0591 22.8436 18.6125 22.2222 18.2479Z" fill="white"/>
</svg>
