<svg width="21" height="17" viewBox="0 0 21 17" fill="none" xmlns="http://www.w3.org/2000/svg">
<path fill-rule="evenodd" clip-rule="evenodd" d="M19.6673 2.06163C19.9895 2.39834 20.2209 2.81702 20.3383 3.27577C20.7724 4.96898 20.7724 8.49996 20.7724 8.49996C20.7724 8.49996 20.7724 12.0309 20.3383 13.7242C20.2209 14.1829 19.9895 14.6016 19.6673 14.9383C19.3452 15.275 18.9435 15.5179 18.5025 15.6428C16.8791 16.0961 10.3901 16.0961 10.3901 16.0961C10.3901 16.0961 3.90118 16.0961 2.27776 15.6428C1.83677 15.5179 1.43509 15.275 1.11291 14.9383C0.79074 14.6016 0.559378 14.1829 0.441982 13.7242C0.0078125 12.0309 0.0078125 8.49996 0.0078125 8.49996C0.0078125 8.49996 0.0078125 4.96898 0.441982 3.27577C0.559378 2.81702 0.79074 2.39834 1.11291 2.06163C1.43509 1.72491 1.83677 1.48197 2.27776 1.35713C3.90118 0.903809 10.3901 0.903809 10.3901 0.903809C10.3901 0.903809 16.8791 0.903809 18.5025 1.35713C18.9435 1.48197 19.3452 1.72491 19.6673 2.06163ZM13.6943 8.50034L8.26723 5.29402V11.7066L13.6943 8.50034Z" fill="#FFA8C6"/>
</svg>
