<svg width="36" height="35" viewBox="0 0 36 35" fill="none" xmlns="http://www.w3.org/2000/svg">
<path d="M31.3832 35C31.2286 35 31.0698 35 30.9131 34.9774C22.9914 34.2027 15.5888 30.7893 9.95943 25.3156C4.33008 19.842 0.820193 12.6446 0.0244409 4.94294C-0.0415367 4.33118 0.0264327 3.71277 0.22388 3.12837C0.421327 2.54398 0.743779 2.00683 1.17003 1.55226C1.62748 1.06297 2.18526 0.672243 2.80745 0.405248C3.42964 0.138253 4.10246 0.000908587 4.78256 0.0020587H10.6291C11.6637 0.000923643 12.6723 0.316795 13.5116 0.904789C14.3509 1.49278 14.9783 2.32299 15.3046 3.27745L17.2104 8.80507C17.5013 9.64991 17.543 10.5571 17.3308 11.4238C17.1186 12.2905 16.661 13.0821 16.0098 13.7089L15.095 14.5983C16.6166 16.8952 18.6322 18.8443 21.003 20.3112L21.9008 19.4362C22.5484 18.8075 23.3632 18.3663 24.254 18.162C25.1447 17.9577 26.0764 17.9983 26.9448 18.2792L32.6304 20.1321C33.6104 20.4487 34.4631 21.0571 35.0678 21.8711C35.6724 22.6851 35.9983 23.6633 35.9994 24.6674V30.3514C36.0192 31.5625 35.5445 32.7317 34.6792 33.6031C33.814 34.4744 32.6287 34.9767 31.3832 35ZM4.78256 3.19717C4.56702 3.19229 4.35286 3.23198 4.15427 3.31361C3.95569 3.39524 3.7772 3.51694 3.63062 3.67067C3.50862 3.79922 3.41564 3.95117 3.35766 4.11674C3.29967 4.28232 3.27797 4.45786 3.29393 4.63208C4.01751 11.5998 7.19489 18.1105 12.2884 23.0624C17.3819 28.0144 24.0787 31.1035 31.2455 31.807H31.3662C31.5412 31.8045 31.714 31.7681 31.8743 31.6998C32.0347 31.6316 32.1794 31.5329 32.3001 31.4096C32.5776 31.1248 32.7296 30.7458 32.7236 30.3535V24.6674C32.7234 24.332 32.6148 24.0052 32.4129 23.7333C32.2111 23.4614 31.9264 23.258 31.5991 23.1522L25.9135 21.3096C25.6242 21.2157 25.3136 21.202 25.0166 21.27C24.7197 21.338 24.4481 21.485 24.2322 21.6946L23.3238 22.5798C22.7083 23.1758 21.8758 23.5116 21.0072 23.5145C20.3578 23.5153 19.7235 23.3243 19.1882 22.9669C16.4382 21.259 14.0989 18.9953 12.3295 16.3296C11.9198 15.7202 11.7387 14.9921 11.8166 14.268C11.8945 13.544 12.2267 12.8681 12.7572 12.3543L13.6868 11.4505C13.9035 11.2413 14.0554 10.9772 14.125 10.6881C14.1946 10.3991 14.1793 10.0969 14.0807 9.81589L12.1876 4.29034C12.0797 3.97198 11.8711 3.69489 11.5916 3.49858C11.3121 3.30228 10.976 3.19679 10.6312 3.19717H4.78256ZM34.3562 12.7804C33.9206 12.7799 33.5029 12.6114 33.1949 12.3119C32.8868 12.0124 32.7135 11.6064 32.713 11.1829C32.7107 9.06505 31.8444 7.0346 30.3041 5.53708C28.7637 4.03955 26.6753 3.19729 24.4969 3.19511C24.0611 3.19511 23.6431 3.02679 23.335 2.72719C23.0268 2.42759 22.8537 2.02125 22.8537 1.59755C22.8537 1.17386 23.0268 0.767512 23.335 0.467912C23.6431 0.168313 24.0611 6.31358e-09 24.4969 0C27.5465 0.00326949 30.4703 1.18251 32.6267 3.279C34.7831 5.37549 35.996 8.21799 35.9994 11.1829C35.9988 11.6064 35.8255 12.0124 35.5175 12.3119C35.2095 12.6114 34.7918 12.7799 34.3562 12.7804ZM27.7918 12.7804C27.3562 12.7799 26.9385 12.6114 26.6305 12.3119C26.3225 12.0124 26.1491 11.6064 26.1486 11.1829C26.148 10.7593 25.9747 10.3533 25.6667 10.0538C25.3586 9.75435 24.941 9.58586 24.5054 9.58532C24.0693 9.58532 23.6511 9.4169 23.3427 9.1171C23.0343 8.81731 22.8611 8.41071 22.8611 7.98674C22.8611 7.56276 23.0343 7.15616 23.3427 6.85637C23.6511 6.55657 24.0693 6.38815 24.5054 6.38815C25.8128 6.38924 27.0664 6.89482 27.9907 7.79382C28.915 8.69283 29.4345 9.91176 29.435 11.1829C29.4347 11.3933 29.3918 11.6016 29.3086 11.7958C29.2254 11.9901 29.1035 12.1664 28.9501 12.3148C28.7967 12.4632 28.6147 12.5807 28.4144 12.6606C28.2142 12.7405 27.9998 12.7812 27.7833 12.7804H27.7918Z" fill="#FC1682"/>
</svg>
