<svg width="62" height="72" viewBox="0 0 62 72" fill="none" xmlns="http://www.w3.org/2000/svg">
<path d="M9.63406 9.9339L9.63143 9.93655C8.66083 10.9138 8.11864 12.2349 8.11864 13.6089C8.11864 14.9829 8.66083 16.3041 9.63143 17.2813L9.63274 17.2826L13.2295 20.8994H8.19288C6.81023 20.8994 5.48761 21.4519 4.51507 22.4299C3.54307 23.4073 3 24.7294 3 26.1045C3 27.4797 3.54307 28.8018 4.51506 29.7792C5.48762 30.7572 6.81024 31.3097 8.19288 31.3097H15.5025C16.8851 31.3097 18.2077 30.7572 19.1803 29.7792C20.1523 28.8018 20.6953 27.4796 20.6953 26.1045C20.6953 25.2776 20.4989 24.4698 20.1309 23.7446C20.232 23.7106 20.3322 23.6735 20.4312 23.6333C21.0791 23.3701 21.6665 22.9789 22.1588 22.4838C22.6511 21.9888 23.0383 21.4001 23.2981 20.7532C23.3363 20.6581 23.3717 20.5619 23.4042 20.4649C24.1203 20.8256 24.9176 21.0191 25.7359 21.0191C26.5542 21.0191 27.3515 20.8256 28.0676 20.4649C28.1001 20.5619 28.1355 20.6581 28.1737 20.7532L30.9575 19.635L28.1737 20.7532C28.2728 20.9999 28.3904 21.2381 28.5253 21.4659C24.6122 20.8173 20.543 23.7678 20.543 28.2714V61.4157C20.543 67.6918 28.2953 70.7451 32.5161 65.9959L40.1531 57.4114C40.1537 57.4108 40.1542 57.4102 40.1548 57.4096C40.4276 57.1054 40.8002 56.9339 41.1823 56.919L41.1857 56.9189L52.4132 56.469L52.4165 56.4689C58.6639 56.2117 61.3045 48.4282 56.6054 44.3779L56.6054 44.3779L32.9787 24.0143C33.0134 24.0144 33.048 24.0141 33.0827 24.0135C33.7823 24.0011 34.4718 23.8471 35.1099 23.5611C35.7285 23.284 36.2859 22.8887 36.7517 22.3983L41.839 17.2826L41.8404 17.2813C42.8109 16.3041 43.3531 14.9829 43.3531 13.6089C43.3531 12.2349 42.8109 10.9138 41.8404 9.93655L41.8377 9.9339C40.8653 8.95732 39.5437 8.40574 38.1622 8.40574C36.7807 8.40574 35.459 8.95732 34.4867 9.9339L34.4853 9.93522L30.9288 13.5116V8.46366C30.9288 7.08853 30.3857 5.76641 29.4137 4.789C28.4411 3.81102 27.1185 3.25854 25.7359 3.25854C24.3533 3.25854 23.0306 3.81102 22.0581 4.789C21.0861 5.76641 20.543 7.08854 20.543 8.46366V13.5116L16.9864 9.93522L16.9851 9.9339C16.0127 8.95732 14.6911 8.40574 13.3096 8.40574C11.9281 8.40574 10.6064 8.95732 9.63406 9.9339Z" fill="#FCFEFA" stroke="#00AEFF" stroke-width="6"/>
</svg>
