<svg width="39" height="54" viewBox="0 0 39 54" fill="none" xmlns="http://www.w3.org/2000/svg">
<path d="M10.8357 26.3135V22.6304C10.8357 22.5382 10.8698 22.4559 10.938 22.3837C11.0062 22.3155 11.0864 22.2814 11.1787 22.2814H12.5508C12.94 22.2814 13.261 22.3476 13.5137 22.48C13.8307 22.6485 14.0433 22.8872 14.1516 23.1961C14.2038 23.3486 14.2299 23.5131 14.2299 23.6896C14.2299 23.9384 14.1757 24.165 14.0674 24.3696C13.951 24.5943 13.7645 24.7729 13.5077 24.9053C13.2509 25.0336 12.932 25.0978 12.5508 25.0978H11.5278V26.3135C11.5278 26.4058 11.4937 26.486 11.4255 26.5542C11.3532 26.6224 11.269 26.6565 11.1727 26.6565C11.0804 26.6565 11.0002 26.6224 10.932 26.5542C10.8678 26.49 10.8357 26.4098 10.8357 26.3135ZM13.5378 23.6896C13.5378 23.4489 13.4515 23.2643 13.279 23.1359C13.1065 23.0076 12.8457 22.9434 12.4967 22.9434H11.5338C11.5338 22.9434 11.5318 22.9434 11.5278 22.9434C11.5278 22.9434 11.5278 22.9454 11.5278 22.9494V24.4358H12.4967C12.8457 24.4358 13.1085 24.3717 13.285 24.2433L13.3573 24.1771C13.4776 24.0567 13.5378 23.8942 13.5378 23.6896ZM14.5787 26.3135C14.5787 26.2734 14.5907 26.2252 14.6148 26.169L16.1494 22.5402C16.1895 22.4519 16.2437 22.3817 16.3119 22.3295C16.3841 22.2774 16.4683 22.2513 16.5646 22.2513H16.6248C16.7773 22.2513 16.8996 22.3175 16.9919 22.4499C17.008 22.478 17.024 22.5081 17.0401 22.5402L18.5747 26.169C18.5987 26.2292 18.6108 26.2774 18.6108 26.3135C18.6108 26.4098 18.5767 26.49 18.5085 26.5542C18.4443 26.6224 18.364 26.6565 18.2677 26.6565C18.1674 26.6565 18.0852 26.6244 18.021 26.5602C17.9889 26.5281 17.9628 26.488 17.9428 26.4399L17.5696 25.5492H15.6198L15.2467 26.4399C15.2186 26.5081 15.1745 26.5602 15.1143 26.5963C15.0581 26.6364 14.9939 26.6565 14.9217 26.6565C14.8214 26.6565 14.7392 26.6224 14.675 26.5542C14.6108 26.486 14.5787 26.4058 14.5787 26.3135ZM17.3049 24.9053L16.5947 23.2021L15.8846 24.9053H17.3049ZM19.5313 25.6094C19.3508 25.2724 19.2605 24.8872 19.2605 24.4539C19.2605 24.0206 19.3548 23.6354 19.5433 23.2984C19.7359 22.9574 19.9967 22.6926 20.3257 22.5041C20.6587 22.3155 21.0258 22.2212 21.427 22.2212C21.7319 22.2212 22.0027 22.2593 22.2394 22.3355C22.4801 22.4078 22.7189 22.5161 22.9556 22.6605C23.0037 22.6846 23.0418 22.7227 23.0699 22.7749C23.102 22.827 23.118 22.8792 23.118 22.9313C23.118 23.0276 23.086 23.1079 23.0218 23.1721C22.9616 23.2322 22.8854 23.2623 22.7931 23.2623C22.7489 23.2623 22.6968 23.2503 22.6366 23.2262C22.5082 23.15 22.3979 23.0938 22.3056 23.0577C22.2133 23.0216 22.1371 22.9955 22.0769 22.9795C22.0167 22.9594 21.9546 22.9434 21.8904 22.9313C21.762 22.9073 21.6276 22.8952 21.4872 22.8952C21.2063 22.8952 20.9415 22.9574 20.6928 23.0818C20.4561 23.2062 20.2735 23.3887 20.1451 23.6294C20.0167 23.8661 19.9526 24.139 19.9526 24.4479C19.9526 24.8371 20.0529 25.168 20.2535 25.4409C20.3698 25.6013 20.5142 25.7297 20.6868 25.826C20.9275 25.9584 21.2043 26.0246 21.5172 26.0246C21.8623 26.0246 22.1893 25.9444 22.4982 25.7839V24.821C22.4982 24.817 22.4982 24.815 22.4982 24.815C22.4982 24.815 22.4962 24.815 22.4922 24.815H21.5774C21.4892 24.815 21.4129 24.7849 21.3487 24.7247C21.2886 24.6605 21.2585 24.5843 21.2585 24.496C21.2585 24.4078 21.2886 24.3335 21.3487 24.2734C21.4129 24.2092 21.4892 24.1771 21.5774 24.1771H22.763C22.8633 24.1771 22.9475 24.2132 23.0157 24.2854C23.088 24.3536 23.1241 24.4379 23.1241 24.5382V25.9043C23.1241 26.0447 23.0799 26.159 22.9917 26.2473C22.9515 26.2874 22.9054 26.3195 22.8533 26.3436C22.1351 26.5723 21.6757 26.6866 21.4751 26.6866C21.0258 26.6866 20.6386 26.5923 20.3136 26.4037C19.9766 26.2112 19.7158 25.9464 19.5313 25.6094ZM24.3154 26.2834V22.6304C24.3154 22.5382 24.3495 22.4559 24.4177 22.3837C24.4859 22.3155 24.5661 22.2814 24.6584 22.2814H27.0717C27.1639 22.2814 27.2422 22.3135 27.3064 22.3777C27.3706 22.4419 27.4027 22.5201 27.4027 22.6124C27.4027 22.7006 27.3706 22.7769 27.3064 22.8411C27.2382 22.9053 27.1599 22.9374 27.0717 22.9374H25.0135C25.0095 22.9374 25.0075 22.9374 25.0075 22.9374C25.0075 22.9374 25.0075 22.9394 25.0075 22.9434V24.1229H26.855C26.9473 24.1229 27.0255 24.155 27.0897 24.2192C27.1539 24.2834 27.186 24.3616 27.186 24.4539C27.186 24.5422 27.1539 24.6184 27.0897 24.6826C27.0215 24.7468 26.9433 24.7789 26.855 24.7789H25.0075V25.9644V25.9704C25.0115 25.9704 25.0135 25.9704 25.0135 25.9704H27.0717C27.1639 25.9704 27.2422 26.0025 27.3064 26.0667C27.3706 26.1309 27.4027 26.2092 27.4027 26.3014C27.4027 26.3897 27.3706 26.4659 27.3064 26.5301C27.2382 26.5943 27.1599 26.6264 27.0717 26.6264H24.6584C24.5621 26.6264 24.4799 26.5943 24.4117 26.5301C24.3475 26.4619 24.3154 26.3797 24.3154 26.2834ZM13.9981 32.3135V28.9374H12.8426C12.7503 28.9374 12.6721 28.9073 12.6079 28.8471C12.5477 28.7829 12.5176 28.7067 12.5176 28.6184C12.5176 28.5261 12.5497 28.4459 12.6139 28.3777C12.6781 28.3135 12.7543 28.2814 12.8426 28.2814H15.8396C15.9319 28.2814 16.0101 28.3135 16.0743 28.3777C16.1385 28.4419 16.1706 28.5201 16.1706 28.6124C16.1706 28.7006 16.1385 28.7769 16.0743 28.8411C16.0061 28.9053 15.9278 28.9374 15.8396 28.9374H14.6901V32.3135C14.6901 32.4058 14.656 32.486 14.5878 32.5542C14.5156 32.6224 14.4314 32.6565 14.3351 32.6565C14.2428 32.6565 14.1626 32.6224 14.0943 32.5542C14.0302 32.49 13.9981 32.4098 13.9981 32.3135ZM18.722 28.2212C19.3559 28.2212 19.8694 28.4178 20.2626 28.811C20.407 28.9554 20.5254 29.1159 20.6177 29.2924C20.8022 29.6375 20.8985 30.0246 20.9065 30.4539C20.8985 30.8832 20.8062 31.2643 20.6297 31.5973C20.4452 31.9424 20.1884 32.2112 19.8594 32.4037C19.5304 32.5923 19.1493 32.6866 18.716 32.6866C18.2867 32.6866 17.9055 32.5903 17.5725 32.3977C17.2516 32.2092 17.0008 31.9464 16.8203 31.6094C16.6397 31.2724 16.5455 30.8872 16.5374 30.4539C16.5455 29.9444 16.6718 29.503 16.9166 29.1299C17.0851 28.8732 17.3077 28.6645 17.5846 28.5041C17.9136 28.3155 18.2927 28.2212 18.722 28.2212ZM20.0339 29.6415C19.9136 29.4007 19.739 29.2142 19.5103 29.0818C19.2857 28.9454 19.0229 28.8772 18.722 28.8772C18.3569 28.8772 18.046 28.9775 17.7892 29.1781C17.6327 29.3024 17.5063 29.4569 17.4101 29.6415C17.2897 29.8782 17.2295 30.149 17.2295 30.4539C17.2295 30.8471 17.3278 31.1841 17.5244 31.4649C17.6327 31.6174 17.7671 31.7398 17.9276 31.832C18.1523 31.9644 18.4191 32.0306 18.728 32.0306C19.0329 32.0306 19.2957 31.9624 19.5164 31.826C19.741 31.6896 19.9136 31.503 20.0339 31.2663C20.1543 31.0296 20.2145 30.7608 20.2145 30.4599C20.2145 30.155 20.1543 29.8822 20.0339 29.6415ZM21.9233 32.3135V28.6304C21.9233 28.5382 21.9574 28.4559 22.0257 28.3837C22.0939 28.3155 22.1741 28.2814 22.2664 28.2814H23.6385C24.0277 28.2814 24.3486 28.3476 24.6014 28.48C24.9183 28.6485 25.131 28.8872 25.2393 29.1961C25.2914 29.3486 25.3175 29.5131 25.3175 29.6896C25.3175 29.9384 25.2634 30.165 25.155 30.3696C25.0387 30.5943 24.8521 30.7729 24.5954 30.9053C24.3386 31.0336 24.0196 31.0978 23.6385 31.0978H22.6154V32.3135C22.6154 32.4058 22.5813 32.486 22.5131 32.5542C22.4409 32.6224 22.3566 32.6565 22.2604 32.6565C22.1681 32.6565 22.0878 32.6224 22.0196 32.5542C21.9554 32.49 21.9233 32.4098 21.9233 32.3135ZM24.6254 29.6896C24.6254 29.4489 24.5392 29.2643 24.3667 29.1359C24.1942 29.0076 23.9334 28.9434 23.5843 28.9434H22.6214C22.6214 28.9434 22.6194 28.9434 22.6154 28.9434C22.6154 28.9434 22.6154 28.9454 22.6154 28.9494V30.4358H23.5843C23.9334 30.4358 24.1962 30.3717 24.3727 30.2433L24.4449 30.1771C24.5653 30.0567 24.6254 29.8942 24.6254 29.6896Z" fill="#FC1682"/>
<path d="M26.4911 13.8715C24.4295 13.7702 21.3664 13.9192 19.442 15.3971C19.3294 15.4841 19.192 15.5312 19.0508 15.5312C18.9095 15.5312 18.7721 15.4841 18.6595 15.3971C16.703 13.9073 13.5698 13.7672 11.5112 13.8775C10.1854 13.9499 8.90108 14.374 7.78516 15.108C-4.41487 23.153 3.40505 32.3243 4.17595 33.1884C4.21749 33.234 4.25285 33.2851 4.28108 33.3403C7.04054 38.7871 7.21574 40.9251 7.2245 41.6581C7.22703 41.7093 7.23387 41.7601 7.24494 41.8101C10.2292 54.0533 13.3012 52.1434 13.3012 52.1434C15.424 52.3192 17.5469 45.2852 17.5469 45.2852C17.7747 43.9652 18.1514 43.1369 18.5281 42.6035C18.5879 42.5192 18.6665 42.4506 18.7573 42.4032C18.8482 42.3559 18.9487 42.3312 19.0508 42.3312C19.1528 42.3312 19.2533 42.3559 19.3442 42.4032C19.4351 42.4506 19.5136 42.5192 19.5735 42.6035C19.9501 43.125 20.3268 43.9533 20.5546 45.2852C20.5546 45.2852 22.6775 52.3192 24.8004 52.1434C24.8004 52.1434 27.8723 54.0533 30.8566 41.8101C30.8682 41.7603 30.874 41.7093 30.8741 41.6581C30.8741 40.9251 31.061 38.7871 33.8205 33.3403C33.8487 33.2851 33.884 33.234 33.9256 33.1884C34.7023 32.3273 42.4638 23.2066 30.439 15.1885C29.2608 14.3999 27.8983 13.9454 26.4911 13.8715Z" stroke="#FC1682" stroke-width="2" stroke-miterlimit="10"/>
<path d="M12.5625 7.42334L18.3904 1.00007L24.1244 7.42334" stroke="#FC1682" stroke-width="1.6" stroke-linecap="round" stroke-linejoin="round"/>
</svg>
