<svg width="80" height="80" viewBox="0 0 80 80" fill="none" xmlns="http://www.w3.org/2000/svg">
<g clip-path="url(#clip0_49_1562)">
<path d="M80 40.0025L74.6653 45.0393L78.3862 51.3844L71.861 54.7003L73.6492 61.8504L66.4666 63.1637L66.1926 70.5352L58.9303 69.7654L56.6191 76.7646L49.8699 73.9518L45.6908 80L39.9975 75.3758L34.3092 80L30.1301 73.9518L23.3759 76.7646L21.0647 69.7654L13.8024 70.5352L13.5334 63.1637L6.34581 61.8504L8.13399 54.6953L1.60887 51.3844L5.33466 45.0393L0 40.0025L5.33466 34.9607L1.60887 28.6156L8.13897 25.3047L6.34581 18.1496L13.5334 16.8363L13.8024 9.46475L21.0647 10.2346L23.3759 3.23542L30.1301 6.04818L34.3092 0L39.9975 4.62419L45.6908 0L49.8699 6.04818L56.6191 3.23542L58.9303 10.2346L66.1926 9.46475L66.4666 16.8363L73.6492 18.1496L71.861 25.3047L78.3862 28.6156L74.6653 34.9607L80 40.0025Z" fill="#FF0302"/>
</g>
<defs>
<clipPath id="clip0_49_1562">
<rect width="80" height="80" fill="white"/>
</clipPath>
</defs>
</svg>
