<svg width="80" height="80" viewBox="0 0 80 80" fill="none" xmlns="http://www.w3.org/2000/svg">
<g clip-path="url(#clip0_49_1552)">
<path d="M80 40.0025L74.6653 45.0393L78.3862 51.3844L71.861 54.7003L73.6492 61.8504L66.4666 63.1637L66.1926 70.5352L58.9303 69.7654L56.6191 76.7646L49.8699 73.9518L45.6908 80L39.9975 75.3758L34.3092 80L30.1301 73.9518L23.3759 76.7646L21.0647 69.7654L13.8024 70.5352L13.5334 63.1637L6.34581 61.8504L8.13399 54.6953L1.60887 51.3844L5.33466 45.0393L0 40.0025L5.33466 34.9607L1.60887 28.6156L8.13897 25.3047L6.34581 18.1496L13.5334 16.8363L13.8024 9.46475L21.0647 10.2346L23.3759 3.23542L30.1301 6.04818L34.3092 0L39.9975 4.62419L45.6908 0L49.8699 6.04818L56.6191 3.23542L58.9303 10.2346L66.1926 9.46475L66.4666 16.8363L73.6492 18.1496L71.861 25.3047L78.3862 28.6156L74.6653 34.9607L80 40.0025Z" fill="#FF0302"/>
</g>
<path d="M18.3806 33.5122H16.9288C16.6029 35.9122 15.5362 37.4233 12.0992 38.2233C11.8918 37.6308 11.2399 36.6233 10.7066 36.1493C13.1955 35.7048 13.9955 34.9345 14.2918 33.5122H11.3288V31.0826H16.2769V29.6308H12.3362V27.2604H16.2769V25.69H19.3881V27.2604H23.3584V29.6308H19.3881V31.0826H24.1584V33.5122H20.8695V34.3715C20.8695 34.9345 20.9288 35.1419 21.314 35.1419H22.4992C22.8547 35.1419 23.5955 35.1122 23.951 34.9937C24.0103 35.6159 24.0399 36.3863 24.1288 37.0085C23.7732 37.1271 23.1214 37.1567 22.5584 37.1567H20.8103C18.7658 37.1567 18.3806 36.2678 18.3806 34.3715V33.5122ZM14.114 53.3048L10.7955 51.9715C12.0992 50.8159 13.4621 48.7715 14.2325 46.7863L17.6399 47.6752C16.8992 49.69 15.5362 51.9122 14.114 53.3048ZM19.3584 47.7937L22.6473 47.4678C23.0325 49.1567 23.3288 51.3196 23.3584 52.6233L19.8325 53.0678C19.8325 51.7345 19.6547 49.5122 19.3584 47.7937ZM25.2843 47.7641L28.6029 47.2604C29.2843 48.8604 29.9658 50.9937 30.2029 52.3567L26.6769 53.0382C26.4992 51.6752 25.9066 49.453 25.2843 47.7641ZM31.1806 47.7048L34.5584 46.6974C35.8325 48.3567 37.4325 50.6382 38.2029 52.2085L34.5584 53.3345C33.9362 51.8826 32.4547 49.453 31.1806 47.7048ZM32.1288 32.5345H30.4399C30.351 34.1937 30.2029 35.7048 29.9955 37.1271C30.7955 37.69 31.5362 38.2233 32.1288 38.6678V32.5345ZM35.6251 43.053H35.9806C36.0992 43.053 36.2177 43.0233 36.3066 42.9048C36.3955 42.7863 36.4547 42.5493 36.4843 41.9863C36.5436 41.4233 36.5732 40.2085 36.5732 38.6974C37.1362 39.1715 37.9955 39.6159 38.7362 39.8826C38.7066 41.3641 38.5881 43.2011 38.4103 43.9122C38.2621 44.5937 37.9658 45.0678 37.5806 45.3937C37.1955 45.7196 36.5732 45.8382 36.0103 45.8382H34.6769C33.9955 45.8382 33.2843 45.6308 32.7806 45.1271C32.3362 44.5937 32.1288 44.0011 32.1288 41.8085V39.5863L30.9436 41.9567C30.4992 41.5419 29.8769 41.0382 29.1955 40.4752C28.4547 42.9048 27.2399 44.89 25.4029 46.4604C25.1362 46.0159 24.6621 45.4233 24.1584 44.89V44.9493C19.5658 45.4233 14.7955 45.8974 11.3288 46.253L11.0918 43.3789C12.514 43.29 14.3214 43.1419 16.2769 42.9937V41.1863H11.9214V38.7271H16.2769V37.1271H19.3881V38.7271H23.4177V41.1863H19.3881V42.7567L24.1288 42.3419V43.29C25.3436 41.9863 26.0547 40.3863 26.5584 38.5196C25.7584 37.8974 24.9288 37.3048 24.2177 36.8308L25.6695 34.1641L27.1214 35.1715C27.2103 34.3122 27.2992 33.453 27.3288 32.5345H24.8399V29.4233H27.4177C27.4473 28.2085 27.4769 26.9641 27.4769 25.6011H30.6473C30.6177 26.9345 30.6177 28.1789 30.5881 29.4233H35.2992V41.7493C35.2992 42.4011 35.2992 42.7863 35.3584 42.9048C35.4177 43.0233 35.5066 43.053 35.6251 43.053ZM49.6992 29.6604H45.1955V31.2011H49.6992V29.6604ZM45.1955 35.4085H49.6992V33.7196H45.1955V35.4085ZM52.9881 26.8159V38.2233H45.1955V53.3048H41.6992V26.8159H52.9881ZM58.4103 35.4678H63.0918V33.7196H58.4103V35.4678ZM63.0918 29.6604H58.4103V31.2011H63.0918V29.6604ZM66.6473 26.8159V49.0382C66.6473 51.053 66.2325 52.09 64.9288 52.6233C63.6547 53.2159 61.6992 53.2752 58.8251 53.2752C58.6769 52.2678 58.114 50.6085 57.5806 49.6604C59.4473 49.7789 61.6399 49.7493 62.2621 49.7493C62.8843 49.7493 63.0918 49.5419 63.0918 48.9789V38.3122H55.0621V26.8159H66.6473Z" fill="#FFF620"/>
<defs>
<clipPath id="clip0_49_1552">
<rect width="80" height="80" fill="white"/>
</clipPath>
</defs>
</svg>
