<svg width="34" height="27" viewBox="0 0 34 27" fill="none" xmlns="http://www.w3.org/2000/svg">
<path fill-rule="evenodd" clip-rule="evenodd" d="M30.0988 23.9588C32.2009 22.4234 33.5439 20.152 33.5439 17.6284C33.5439 13.0029 29.0799 9.25391 23.5727 9.25391C18.0661 9.25391 13.6016 13.0029 13.6016 17.6284C13.6016 22.254 18.0661 26.0036 23.5727 26.0036C24.7104 26.0036 25.809 25.8396 26.8277 25.5446C26.9203 25.5162 27.0186 25.5003 27.1209 25.5003C27.3121 25.5003 27.486 25.559 27.6503 25.6547L29.8326 26.9251C29.8938 26.9599 29.9528 26.9875 30.0251 26.9875C30.2089 26.9875 30.3575 26.8373 30.3575 26.6526C30.3575 26.5693 30.3246 26.4868 30.3039 26.4074C30.2913 26.36 30.0227 25.3492 29.8545 24.7182C29.8353 24.6471 29.8194 24.5788 29.8194 24.5047C29.8194 24.2799 29.9298 24.0802 30.0988 23.9588ZM20.2529 16.2031C19.5656 16.2031 19.008 15.6416 19.008 14.9488C19.008 14.2557 19.5656 13.6939 20.2529 13.6939C20.9406 13.6939 21.4979 14.2557 21.4979 14.9488C21.4979 15.6416 20.9406 16.2031 20.2529 16.2031ZM26.8953 16.2031C26.2076 16.2031 25.6509 15.6416 25.6509 14.9488C25.6509 14.2557 26.2076 13.6939 26.8953 13.6939C27.583 13.6939 28.1403 14.2557 28.1403 14.9488C28.1403 15.6416 27.583 16.2031 26.8953 16.2031Z" fill="white"/>
<path fill-rule="evenodd" clip-rule="evenodd" d="M12.4047 0.00732422C5.79645 0.00732422 0.439453 4.50696 0.439453 10.057C0.439453 13.0857 2.05135 15.8115 4.57366 17.6536C4.77631 17.7993 4.90881 18.0383 4.90881 18.309C4.90881 18.398 4.88993 18.4792 4.86654 18.565C4.6651 19.3225 4.34254 20.5354 4.32755 20.592C4.30237 20.6874 4.2634 20.7863 4.2634 20.8858C4.2634 21.108 4.44176 21.2875 4.6621 21.2875C4.74903 21.2875 4.81948 21.2554 4.89233 21.2129L7.51237 19.6885C7.70902 19.5743 7.91737 19.5039 8.14729 19.5039C8.2699 19.5039 8.38771 19.5221 8.49893 19.5563C9.72112 19.9107 11.0392 20.1073 12.4047 20.1073C12.6253 20.1073 12.8442 20.1013 13.0618 20.0917C12.8016 19.3075 12.6601 18.4822 12.6601 17.6285C12.6601 12.5667 17.5456 8.46281 23.5726 8.46281C23.7908 8.46281 23.8466 8.4697 24.0615 8.48019C23.1604 3.67898 18.3742 0.00732422 12.4047 0.00732422ZM8.4162 8.267C7.63438 8.267 7.00095 7.62848 7.00095 6.84126C7.00095 6.05375 7.63438 5.41553 8.4162 5.41553C9.19681 5.41553 9.83024 6.05375 9.83024 6.84126C9.83024 7.62848 9.19681 8.267 8.4162 8.267ZM16.3958 8.2667C15.6146 8.2667 14.9812 7.62848 14.9812 6.84126C14.9812 6.05375 15.6146 5.41553 16.3958 5.41553C17.177 5.41553 17.8104 6.05375 17.8104 6.84126C17.8104 7.62848 17.177 8.2667 16.3958 8.2667Z" fill="white"/>
</svg>
