<svg width="35" height="35" viewBox="0 0 35 35" fill="none" xmlns="http://www.w3.org/2000/svg">
<g filter="url(#filter0_d_49_1707)">
<path d="M30.4551 17.5793C30.4551 10.1235 24.6348 4.07935 17.4551 4.07935C10.2754 4.07935 4.45508 10.1235 4.45508 17.5793C4.45508 24.3175 9.20896 29.9026 15.4238 30.9153V21.4817H12.123V17.5793H15.4238V14.6051C15.4238 11.2217 17.3647 9.35278 20.3341 9.35278C21.756 9.35278 23.2441 9.61646 23.2441 9.61646V12.9387H21.6049C19.9901 12.9387 19.4863 13.9794 19.4863 15.0481V17.5793H23.0918L22.5154 21.4817H19.4863V30.9153C25.7012 29.9026 30.4551 24.3175 30.4551 17.5793Z" fill="white"/>
</g>
<defs>
<filter id="filter0_d_49_1707" x="0.455078" y="0.0793457" width="34" height="34.8359" filterUnits="userSpaceOnUse" color-interpolation-filters="sRGB">
<feFlood flood-opacity="0" result="BackgroundImageFix"/>
<feColorMatrix in="SourceAlpha" type="matrix" values="0 0 0 0 0 0 0 0 0 0 0 0 0 0 0 0 0 0 127 0" result="hardAlpha"/>
<feOffset/>
<feGaussianBlur stdDeviation="2"/>
<feComposite in2="hardAlpha" operator="out"/>
<feColorMatrix type="matrix" values="0 0 0 0 1 0 0 0 0 0.470588 0 0 0 0 0.458824 0 0 0 0.45 0"/>
<feBlend mode="normal" in2="BackgroundImageFix" result="effect1_dropShadow_49_1707"/>
<feBlend mode="normal" in="SourceGraphic" in2="effect1_dropShadow_49_1707" result="shape"/>
</filter>
</defs>
</svg>
