<svg width="56" height="51" viewBox="0 0 56 51" fill="none" xmlns="http://www.w3.org/2000/svg">
<mask id="mask0_4807_23048" style="mask-type:luminance" maskUnits="userSpaceOnUse" x="0" y="0" width="33" height="45">
<path d="M32.9017 6.06543L10.1875 0L-0.00190842 38.1579L22.7123 44.2234L32.9017 6.06543Z" fill="white"/>
</mask>
<g mask="url(#mask0_4807_23048)">
<path d="M12.9733 4.88659C19.4395 1.09254 27.704 3.29942 31.4179 9.8119L45.2243 34.0215L29.3775 43.3197C25.1928 45.7751 19.8419 44.348 17.4371 40.1312L7.98688 23.5602C4.27291 17.0477 6.50719 8.68064 12.9733 4.88659Z" fill="#A4D9F7"/>
</g>
<mask id="mask1_4807_23048" style="mask-type:luminance" maskUnits="userSpaceOnUse" x="22" y="6" width="34" height="45">
<path d="M55.6165 12.1309L32.9023 6.06543L22.7129 44.2234L45.4271 50.2888L55.6165 12.1309Z" fill="white"/>
</mask>
<g mask="url(#mask1_4807_23048)">
<path d="M17.3821 40.1173L8.28014 24.1569L32.3175 10.0529C38.7837 6.25881 47.0482 8.4657 50.7621 14.9782C54.4761 21.4906 52.2418 29.8577 45.7757 33.6518L29.3225 43.3057C25.1378 45.7611 19.7869 44.334 17.3821 40.1173Z" fill="#A4D9F7"/>
</g>
<path d="M37.9112 25.4424L19.1211 20.4248L17.8839 25.0579L36.674 30.0754L37.9112 25.4424Z" fill="white"/>
<path d="M32.7247 16.3519L28.1484 15.1299L23.0686 34.1533L27.6448 35.3753L32.7247 16.3519Z" fill="white"/>
</svg>
