<svg width="116" height="116" viewBox="0 0 116 116" fill="none" xmlns="http://www.w3.org/2000/svg">
<g filter="url(#filter0_d_2392_10763)">
<circle cx="58" cy="54" r="54" fill="#FC1682"/>
</g>
<path d="M84.6307 31.0348C82.9109 27.4292 79.4438 16 72.9385 16C65.4505 16 64.1564 25.6091 59.4677 25.6091C59.4123 25.6091 59.3604 25.6091 59.3051 25.6057C59.2947 25.6057 59.2878 25.6057 59.2774 25.6057C59.267 25.6057 59.2601 25.6057 59.2497 25.6057C59.1978 25.6057 59.1424 25.6091 59.0871 25.6091C54.3984 25.6091 53.4296 16 45.9416 16C39.4363 16 36.0764 27.4292 34.3567 31.0348C31.8895 36.2148 24.5365 45.1146 28.4189 60.4504C32.6334 77.0977 52.3534 77.0977 59.094 77.0977C59.2082 77.0977 59.3258 77.0977 59.4435 77.0977C59.5646 77.0977 59.6822 77.0977 59.793 77.0977C66.5335 77.0977 86.2535 77.0977 90.4681 60.4504C94.3471 45.1146 87.1013 36.2148 84.6307 31.0348Z" fill="white" stroke="#A4D8F1" stroke-width="0.346025" stroke-miterlimit="10" stroke-linecap="round"/>
<path d="M94.3611 53.6508C94.4477 55.7858 94.9598 56.5782 95.8041 56.5055C96.6622 56.4294 96.984 55.1802 96.984 53.4916C96.984 51.803 96.3058 50.6542 95.4477 50.7026C94.465 50.7615 94.2919 51.9656 94.3611 53.6508Z" fill="#A5D6EE"/>
<path d="M92.8378 61.0807H92.9693C94.1977 61.0807 95.1977 60.0841 95.1977 58.8523V48.3573C95.1977 47.1289 94.2011 46.1289 92.9693 46.1289H92.8378C91.6094 46.1289 90.6094 47.1255 90.6094 48.3573V58.8557C90.6094 60.0841 91.6094 61.0807 92.8378 61.0807Z" fill="#D4EAF4"/>
<mask id="mask0_2392_10763" style="mask-type:luminance" maskUnits="userSpaceOnUse" x="90" y="46" width="6" height="16">
<path d="M92.8378 61.0787H92.9693C94.1977 61.0787 95.1977 60.0822 95.1977 58.8503V48.3554C95.1977 47.127 94.2011 46.127 92.9693 46.127H92.8378C91.6094 46.127 90.6094 47.1235 90.6094 48.3554V58.8538C90.6094 60.0822 91.6094 61.0787 92.8378 61.0787Z" fill="white"/>
</mask>
<g mask="url(#mask0_2392_10763)">
<path d="M90.849 60.5948C91.7729 61.2695 91.7072 60.1173 91.7072 58.837V47.8991C91.7072 46.6188 91.8041 46.6984 91.8421 46.2382L92.9356 45.9648C91.6553 45.9648 90.6172 47.0029 90.6172 48.2832V59.2211" fill="#A5D6EE"/>
</g>
<path d="M23.3364 56.5899C23.1668 56.5276 18.3086 55.3961 19.0837 42.0499C19.1633 40.825 21.1668 40.5032 21.4817 42.8596C21.7239 43.9081 22.4955 49.1469 23.7308 50.1677C23.7308 52.3996 24.4575 56.9948 23.3364 56.5899Z" fill="#D4EAF4"/>
<path d="M24.6388 53.2964C24.7599 55.6563 24.2789 56.5802 23.3412 56.5871C22.3896 56.5906 21.9086 55.248 21.7356 53.3898C21.5626 51.5317 22.1924 50.196 23.144 50.1649C24.2305 50.1268 24.5419 51.4348 24.6388 53.2964Z" fill="#A5D6EE"/>
<path d="M26.0904 61.0807H25.9589C24.7305 61.0807 23.7305 60.0841 23.7305 58.8523V48.3573C23.7305 47.1289 24.727 46.1289 25.9589 46.1289H26.0904C27.3188 46.1289 28.3188 47.1255 28.3188 48.3573V58.8557C28.3153 60.0841 27.3188 61.0807 26.0904 61.0807Z" fill="#D4EAF4"/>
<mask id="mask1_2392_10763" style="mask-type:luminance" maskUnits="userSpaceOnUse" x="23" y="46" width="6" height="16">
<path d="M26.0904 61.0787H25.9589C24.7305 61.0787 23.7305 60.0822 23.7305 58.8503V48.3554C23.7305 47.127 24.727 46.127 25.9589 46.127H26.0904C27.3188 46.127 28.3188 47.1235 28.3188 48.3554V58.8538C28.3153 60.0822 27.3188 61.0787 26.0904 61.0787Z" fill="white"/>
</mask>
<g mask="url(#mask1_2392_10763)">
<path d="M28.1441 60.3287C27.241 60.9862 27.3067 59.8616 27.3067 58.6125V47.9445C27.3067 46.6953 27.2133 46.7715 27.1752 46.3251L26.2617 45.5742C27.5109 45.5742 28.3725 47.0725 28.3725 48.3217V58.9896" fill="#A5D6EE"/>
</g>
<path d="M41.3966 48.0545C39.8152 51.0303 39.0713 55.5598 43.0194 57.7155C47.1544 59.975 51.7981 57.9819 52.3656 52.9196C53.0853 46.4593 49.4347 44.3278 47.3759 44.307C45.8049 44.2897 43.0817 44.8779 41.3966 48.0545Z" fill="#D8F0FC"/>
<path d="M44.7649 48.5705C43.4465 50.6293 43.3289 52.6951 44.0279 54.4253C44.7614 56.2419 48.765 57.5879 50.6473 54.4045C51.8515 52.3699 51.028 48.8923 49.4708 47.5082C48.3047 46.4736 45.9794 46.6743 44.7649 48.5705Z" fill="#172345"/>
<path d="M45.4073 51.6075C46.4908 51.6075 47.3692 50.7291 47.3692 49.6456C47.3692 48.562 46.4908 47.6836 45.4073 47.6836C44.3237 47.6836 43.4453 48.562 43.4453 49.6456C43.4453 50.7291 44.3237 51.6075 45.4073 51.6075Z" fill="white"/>
<path d="M76.9014 48.0545C78.4827 51.0303 79.2267 55.5598 75.2785 57.7155C71.1435 59.975 66.4999 57.9819 65.9324 52.9196C65.2127 46.4593 68.8632 44.3278 70.9221 44.307C72.493 44.2897 75.2162 44.8779 76.9014 48.0545Z" fill="#D8F0FC"/>
<path d="M73.5368 48.5705C74.8551 50.6293 74.9728 52.6951 74.2738 54.4253C73.5402 56.2419 69.5367 57.5879 67.6543 54.4045C66.4502 52.3699 67.2737 48.8923 68.8308 47.5082C69.9935 46.4736 72.3222 46.6743 73.5368 48.5705Z" fill="#172345"/>
<path d="M69.0401 51.6075C70.1237 51.6075 71.0021 50.7291 71.0021 49.6456C71.0021 48.562 70.1237 47.6836 69.0401 47.6836C67.9565 47.6836 67.0781 48.562 67.0781 49.6456C67.0781 50.7291 67.9565 51.6075 69.0401 51.6075Z" fill="white"/>
<path d="M72.0165 51.3318C72.3643 51.3318 72.6463 51.0498 72.6463 50.702C72.6463 50.3542 72.3643 50.0723 72.0165 50.0723C71.6687 50.0723 71.3867 50.3542 71.3867 50.702C71.3867 51.0498 71.6687 51.3318 72.0165 51.3318Z" fill="white"/>
<path d="M48.2352 51.3318C48.583 51.3318 48.865 51.0498 48.865 50.702C48.865 50.3542 48.583 50.0723 48.2352 50.0723C47.8874 50.0723 47.6055 50.3542 47.6055 50.702C47.6055 51.0498 47.8874 51.3318 48.2352 51.3318Z" fill="white"/>
<path d="M73.8925 53.7822C73.896 53.7891 73.8995 53.796 73.9029 53.8029C74.2524 54.578 73.4669 55.8929 73.3631 56.0555C73.1693 56.0313 71.6538 55.8272 71.2662 55.0728C71.2627 55.0659 71.2593 55.059 71.2558 55.0521C71.0724 54.6714 71.2316 54.2147 71.6122 54.0313C71.8925 53.8963 72.2109 53.9482 72.4358 54.1316C72.4288 53.841 72.5915 53.5607 72.8683 53.4257C73.2524 53.2424 73.7091 53.4015 73.8925 53.7822Z" fill="white"/>
<path d="M50.3183 53.7822C50.3218 53.7891 50.3252 53.796 50.3287 53.8029C50.6782 54.578 49.8927 55.8929 49.7889 56.0555C49.5951 56.0313 48.0795 55.8272 47.692 55.0728C47.6885 55.0659 47.6851 55.059 47.6816 55.0521C47.4982 54.6714 47.6574 54.2147 48.038 54.0313C48.3183 53.8963 48.6366 53.9482 48.8616 54.1316C48.8546 53.841 49.0173 53.5607 49.2941 53.4257C49.6747 53.2424 50.1349 53.4015 50.3183 53.7822Z" fill="white"/>
<path d="M55.5443 50.9647C54.5477 50.9508 54.3678 52.0546 54.2709 52.5633C54.2294 52.7744 53.8176 55.2069 52.5096 56.9198C51.4646 58.29 50.347 59.0478 49.1047 59.4215C47.994 59.7572 46.6618 59.9336 45.468 59.9025C44.2708 59.8783 42.9524 59.6361 41.859 59.2485C40.6375 58.816 39.506 58.0374 38.5821 56.5841C37.7309 55.2485 37.326 53.5668 37.025 52.3072C36.9039 51.8055 36.6617 50.6048 35.6686 50.6394C34.2153 50.6913 34.3191 51.9024 34.3364 52.0719C34.5094 53.6983 34.6513 54.0339 34.9661 55.2692C35.3572 56.7987 35.9835 58.0443 36.8208 59.0859C37.8624 60.3904 39.205 61.3143 40.9247 61.9164C42.288 62.3939 43.7552 62.6603 45.4023 62.733C47.0528 62.7399 48.5303 62.5427 49.9144 62.1344C51.6584 61.6153 53.0425 60.7572 54.1498 59.5046C55.0356 58.5011 55.8626 57.2935 56.347 55.7917C56.7623 54.501 56.8557 54.0789 56.9664 52.6325C56.9734 52.5702 56.9907 50.9889 55.5443 50.9647Z" fill="#FC1682"/>
<path d="M62.7436 50.9647C63.7401 50.9508 63.9201 52.0546 64.017 52.5633C64.0585 52.7744 64.4703 55.2069 65.7782 56.9198C66.8232 58.29 67.9409 59.0478 69.1831 59.4215C70.2939 59.7572 71.6261 59.9336 72.8198 59.9025C74.0171 59.8783 75.3355 59.6361 76.4289 59.2485C77.6504 58.816 78.7819 58.0374 79.7057 56.5841C80.557 55.2485 80.9618 53.5668 81.2629 52.3072C81.384 51.8055 81.6262 50.6048 82.6193 50.6394C84.0726 50.6913 83.9688 51.9024 83.9515 52.0719C83.7785 53.6983 83.6366 54.0339 83.3217 55.2692C82.9307 56.7987 82.3044 58.0443 81.467 59.0859C80.4255 60.3904 79.0829 61.3143 77.3632 61.9164C75.9998 62.3939 74.5327 62.6603 72.8856 62.733C71.235 62.7399 69.7575 62.5427 68.3734 62.1344C66.6294 61.6153 65.2454 60.7572 64.1381 59.5046C63.2522 58.5011 62.4252 57.2935 61.9408 55.7917C61.5256 54.501 61.4322 54.0789 61.3214 52.6325C61.3145 52.5702 61.2972 50.9889 62.7436 50.9647Z" fill="#FC1682"/>
<path d="M59.2035 71.3905C54.1758 71.3905 52.4491 67.0202 52.418 64.0305C52.418 63.9683 52.418 63.9094 52.418 63.8506C52.456 62.5772 53.0823 61.726 53.6464 61.6187C54.4837 61.4596 56.8194 62.0547 59.1205 62.034C61.342 62.0098 63.733 61.3627 64.7538 61.4942C65.3213 61.5668 65.7953 62.4284 65.8611 63.7018C65.8645 63.7606 65.8645 63.8229 65.868 63.8818C65.9026 66.868 64.2451 71.3905 59.2035 71.3905Z" fill="#DD0074"/>
<mask id="mask2_2392_10763" style="mask-type:luminance" maskUnits="userSpaceOnUse" x="52" y="61" width="14" height="11">
<path d="M59.2074 71.3885C54.1797 71.3885 52.453 67.0182 52.4219 64.0286C52.4219 63.9663 52.4219 63.9075 52.4219 63.8487C52.4599 62.5753 53.0862 61.7241 53.6503 61.6168C54.4876 61.4576 56.8233 62.0528 59.1244 62.032C61.3459 62.0078 63.7369 61.3607 64.7577 61.4922C65.3252 61.5649 65.7992 62.4265 65.865 63.6999C65.8684 63.7587 65.8684 63.821 65.8719 63.8798C65.9065 66.866 64.249 71.3885 59.2074 71.3885Z" fill="white"/>
</mask>
<g mask="url(#mask2_2392_10763)">
<path d="M59.1447 73.9083C62.8598 73.9083 65.8714 72.1174 65.8714 69.9083C65.8714 67.6991 62.8598 65.9082 59.1447 65.9082C55.4296 65.9082 52.418 67.6991 52.418 69.9083C52.418 72.1174 55.4296 73.9083 59.1447 73.9083Z" fill="#FC1682"/>
</g>
<path d="M50.1833 40.557C50.2698 41.0068 50.2317 41.4913 49.9999 41.8823C48.993 43.5674 45.7922 41.6989 44.4531 40.5224C44.9514 39.1971 46.4185 38.1383 47.8338 38.339C48.9099 38.4912 49.858 39.3286 50.1418 40.3771C50.1591 40.4359 50.1729 40.4947 50.1833 40.557Z" fill="#D6EEFA"/>
<path d="M68.1011 40.557C68.0146 41.0068 68.0527 41.4913 68.2845 41.8823C69.2914 43.5674 72.4922 41.6989 73.8313 40.5224C73.333 39.1971 71.8659 38.1383 70.4506 38.339C69.3745 38.4912 68.4264 39.3286 68.1426 40.3771C68.1253 40.4359 68.1115 40.4947 68.1011 40.557Z" fill="#D6EEFA"/>
<path d="M37.6216 63.8496C37.6319 63.8877 37.6423 63.9257 37.6527 63.9638C38.8984 68.5625 33.3828 75.1439 32.6699 75.9674C31.6249 75.6698 23.4034 73.1854 21.9259 68.6525C21.912 68.6144 21.9016 68.5763 21.8913 68.5383C21.213 66.2649 22.5072 63.8738 24.7806 63.1956C26.4449 62.6974 28.1751 63.2614 29.2477 64.4898C29.4727 62.8738 30.6111 61.4586 32.2755 60.9603C34.5489 60.2856 36.9434 61.5762 37.6216 63.8496Z" fill="#FFACAA"/>
<path d="M88.5183 30.3459C88.5114 30.3667 88.5045 30.3875 88.4976 30.4082C87.5979 32.8754 83.0165 34.0865 82.4352 34.2318C82.0581 33.7647 79.1445 30.0311 79.9196 27.5189C79.9265 27.4982 79.9335 27.4774 79.9404 27.4566C80.3591 26.2179 81.7016 25.55 82.9404 25.9687C83.847 26.2732 84.4491 27.076 84.5425 27.9722C85.1584 27.3148 86.1204 27.0414 87.0304 27.3459C88.2692 27.7611 88.937 29.1037 88.5183 30.3459Z" fill="#FFACAA"/>
<path d="M42.7336 22.7392C42.7405 22.76 42.7474 22.7808 42.7543 22.8015C43.5294 25.3379 40.5744 29.0957 40.1937 29.5663C39.6055 29.4175 34.9895 28.1822 34.0898 25.6874C34.0829 25.6666 34.076 25.6458 34.0691 25.6251C33.6504 24.3725 34.3286 23.0195 35.5812 22.6008C36.4982 22.2963 37.4705 22.5766 38.0899 23.241C38.1868 22.3378 38.7958 21.5316 39.7128 21.2236C40.9619 20.8084 42.3149 21.4866 42.7336 22.7392Z" fill="#FFACAA"/>
<path d="M86.9111 73.6358C86.9042 73.6704 86.8973 73.705 86.8869 73.7396C85.9215 77.8503 78.8453 80.6566 77.9422 80.9992C77.2536 80.3244 71.8867 74.923 72.648 70.7707C72.6549 70.7361 72.6618 70.7015 72.6687 70.6669C73.0978 68.608 75.1151 67.2862 77.174 67.7187C78.6827 68.0336 79.7934 69.1997 80.1117 70.6115C80.9664 69.4454 82.4543 68.8225 83.9595 69.1374C86.0219 69.563 87.3402 71.5769 86.9111 73.6358Z" fill="#FFACAA"/>
<path d="M38.5977 92.5391C38.5977 91.5547 38.9785 90.793 39.7402 90.2539C40.4902 89.7383 41.5273 89.4805 42.8516 89.4805H44.7676C44.7559 88.8242 44.5859 88.3438 44.2578 88.0391C43.9414 87.7344 43.3965 87.582 42.623 87.582C42.2129 87.582 41.8438 87.6172 41.5156 87.6875C41.1875 87.7461 40.7949 87.8516 40.3379 88.0039L40.0742 88.0391H40.0566C39.8223 88.0391 39.6172 87.957 39.4414 87.793C39.2773 87.6172 39.1953 87.4062 39.1953 87.1602C39.1953 86.75 39.3945 86.4629 39.793 86.2988C40.8008 85.8652 41.8379 85.6484 42.9043 85.6484C44.1113 85.6484 45.0723 86 45.7871 86.7031C46.2324 87.1484 46.5312 87.7051 46.6836 88.373C46.7539 88.6777 46.7891 88.9941 46.7891 89.3223V94.2969C46.7891 94.5664 46.6895 94.8008 46.4902 95C46.2793 95.1992 46.0332 95.2988 45.752 95.2988C45.4824 95.2988 45.2539 95.1992 45.0664 95C44.8789 94.8125 44.7793 94.584 44.7676 94.3145C43.9355 95.0293 42.9043 95.3867 41.6738 95.3867C41.1465 95.3867 40.6426 95.2754 40.1621 95.0527C39.6699 94.8301 39.2832 94.4961 39.002 94.0508C38.7324 93.6055 38.5977 93.1016 38.5977 92.5391ZM44.7676 91.1855H43.0625C41.9609 91.1855 41.2285 91.3672 40.8652 91.7305C40.7012 91.8945 40.6191 92.1055 40.6191 92.3633C40.6191 92.7031 40.7129 92.9668 40.9004 93.1543C41.1699 93.4238 41.627 93.5586 42.2715 93.5586C42.7402 93.5586 43.1855 93.4531 43.6074 93.2422C44.0645 93.0078 44.4512 92.7207 44.7676 92.3809V91.1855ZM49.4961 94.2969V87.6172H48.6699C48.4238 87.6172 48.2129 87.5293 48.0371 87.3535C47.8613 87.1777 47.7734 86.9668 47.7734 86.7207C47.7734 86.4746 47.8613 86.2637 48.0371 86.0879C48.2246 85.9121 48.4355 85.8242 48.6699 85.8242H49.4961V85.0156C49.4961 84.2656 49.6309 83.6562 49.9004 83.1875C50.1582 82.7188 50.5039 82.3672 50.9375 82.1328C51.3711 81.8984 51.8516 81.7812 52.3789 81.7812C52.9062 81.7812 53.4336 81.9043 53.9609 82.1504C54.0547 82.209 54.1426 82.2793 54.2246 82.3613C54.4004 82.5254 54.4883 82.7246 54.4883 82.959C54.4883 83.1934 54.4004 83.3984 54.2246 83.5742C54.0488 83.75 53.8496 83.8379 53.627 83.8379C53.4863 83.8379 53.3398 83.8203 53.1875 83.7852L52.7305 83.7324C52.2852 83.7324 51.9688 83.832 51.7812 84.0312C51.6055 84.2188 51.5176 84.5645 51.5176 85.0684V85.8242H53.5039C53.7617 85.8242 53.9727 85.9121 54.1367 86.0879C54.3125 86.252 54.4004 86.4629 54.4004 86.7207C54.4004 86.9551 54.3125 87.166 54.1367 87.3535C53.9609 87.5293 53.75 87.6172 53.5039 87.6172H51.5176V94.2969C51.5176 94.5664 51.418 94.8008 51.2188 95C51.0078 95.1992 50.7617 95.2988 50.4805 95.2988C50.2109 95.2988 49.9766 95.1992 49.7773 95C49.5898 94.8125 49.4961 94.5781 49.4961 94.2969ZM60.7461 94.2441C60.7461 94.5957 60.5703 94.8652 60.2188 95.0527C59.7266 95.2754 59.2109 95.3867 58.6719 95.3867C57.7109 95.3867 56.9961 95.1523 56.5273 94.6836C56.1055 94.2617 55.8945 93.6523 55.8945 92.8555V87.7051H55.209C54.9277 87.7051 54.7051 87.6289 54.541 87.4766C54.3887 87.3125 54.3125 87.0898 54.3125 86.8086C54.3125 86.5273 54.3887 86.3105 54.541 86.1582C54.7051 85.9941 54.9277 85.9121 55.209 85.9121H55.8945V84.8574C55.8945 84.5293 55.9883 84.2773 56.1758 84.1016C56.3633 83.9258 56.6094 83.8379 56.9141 83.8379C57.2305 83.8379 57.4766 83.9316 57.6523 84.1191C57.8281 84.3066 57.916 84.5527 57.916 84.8574V85.9121H59.6914C59.9492 85.9121 60.1602 86 60.3242 86.1758C60.5 86.3398 60.5879 86.5508 60.5879 86.8086C60.5879 87.043 60.5 87.2539 60.3242 87.4414C60.1484 87.6172 59.9375 87.7051 59.6914 87.7051H57.916V92.7148C57.916 93.0547 57.9863 93.2773 58.127 93.3828C58.2793 93.5 58.5195 93.5586 58.8477 93.5586C59.0703 93.5586 59.2871 93.5234 59.498 93.4531H59.5156C59.6797 93.418 59.8086 93.4004 59.9023 93.4004C60.1367 93.4004 60.3359 93.4824 60.5 93.6465C60.6641 93.8105 60.7461 94.0098 60.7461 94.2441ZM61.4141 90.5176C61.4141 89.6855 61.5723 88.8945 61.8887 88.1445C62.2168 87.3711 62.7207 86.7617 63.4004 86.3164C64.0801 85.8711 64.8887 85.6484 65.8262 85.6484C66.752 85.6484 67.543 85.8594 68.1992 86.2812C68.832 86.6914 69.3242 87.248 69.6758 87.9512C70.0391 88.6543 70.2207 89.4336 70.2207 90.2891C70.2207 90.5703 70.1211 90.8105 69.9219 91.0098C69.7344 91.1973 69.4941 91.291 69.2012 91.291H63.4883C63.6055 91.9707 63.8867 92.4922 64.332 92.8555C64.8125 93.2656 65.4746 93.4707 66.3184 93.4707C66.9629 93.4707 67.543 93.377 68.0586 93.1895C68.2344 93.1191 68.416 93.0371 68.6035 92.9434C68.709 92.8848 68.8438 92.8555 69.0078 92.8555C69.2656 92.8555 69.4824 92.9434 69.6582 93.1191C69.834 93.2949 69.9219 93.5059 69.9219 93.752C69.9219 94.0918 69.7285 94.373 69.3418 94.5957C68.8379 94.8652 68.3574 95.0645 67.9004 95.1934C67.4434 95.3223 66.8691 95.3867 66.1777 95.3867C64.6777 95.3867 63.5059 94.959 62.6621 94.1035C61.8301 93.2363 61.4141 92.041 61.4141 90.5176ZM68.1816 89.5684C68.1934 89.5684 68.1992 89.5684 68.1992 89.5684C68.1992 89.5566 68.1992 89.5508 68.1992 89.5508C68.1523 89.1172 68.0234 88.7539 67.8125 88.4609C67.5781 88.1211 67.2793 87.8633 66.916 87.6875C66.5645 87.5117 66.207 87.4238 65.8438 87.4238C65.4805 87.4238 65.1113 87.5059 64.7363 87.6699C64.1855 87.9395 63.8047 88.3789 63.5938 88.9883C63.5352 89.1641 63.4941 89.3574 63.4707 89.5684H68.1816ZM73.9297 86.9141C74.6914 86.0703 75.541 85.6484 76.4785 85.6484H76.5664C76.8477 85.6484 77.082 85.748 77.2695 85.9473C77.457 86.1465 77.5508 86.3809 77.5508 86.6504C77.5508 86.9316 77.4512 87.166 77.252 87.3535C77.0527 87.5293 76.8125 87.6172 76.5312 87.6172H76.4434C75.6348 87.6172 74.9375 87.9102 74.3516 88.4961C74.1992 88.6484 74.0586 88.8184 73.9297 89.0059V94.2969C73.9297 94.5664 73.8301 94.8008 73.6309 95C73.4199 95.1992 73.1738 95.2988 72.8926 95.2988C72.623 95.2988 72.3887 95.1992 72.1895 95C72.002 94.8125 71.9082 94.5781 71.9082 94.2969V86.7559C71.9082 86.4863 72.0078 86.2461 72.207 86.0352C72.4062 85.8359 72.6406 85.7363 72.9102 85.7363C73.1914 85.7363 73.4316 85.8359 73.6309 86.0352C73.8301 86.2344 73.9297 86.4746 73.9297 86.7559V86.9141Z" fill="white"/>
<defs>
<filter id="filter0_d_2392_10763" x="0" y="0" width="116" height="116" filterUnits="userSpaceOnUse" color-interpolation-filters="sRGB">
<feFlood flood-opacity="0" result="BackgroundImageFix"/>
<feColorMatrix in="SourceAlpha" type="matrix" values="0 0 0 0 0 0 0 0 0 0 0 0 0 0 0 0 0 0 127 0" result="hardAlpha"/>
<feOffset dy="4"/>
<feGaussianBlur stdDeviation="2"/>
<feComposite in2="hardAlpha" operator="out"/>
<feColorMatrix type="matrix" values="0 0 0 0 0 0 0 0 0 0 0 0 0 0 0 0 0 0 0.25 0"/>
<feBlend mode="normal" in2="BackgroundImageFix" result="effect1_dropShadow_2392_10763"/>
<feBlend mode="normal" in="SourceGraphic" in2="effect1_dropShadow_2392_10763" result="shape"/>
</filter>
</defs>
</svg>
