<svg width="26" height="21" viewBox="0 0 26 21" fill="none" xmlns="http://www.w3.org/2000/svg">
<path fill-rule="evenodd" clip-rule="evenodd" d="M24.6397 2.43826C25.0431 2.85987 25.3328 3.38412 25.4798 3.95853C26.0234 6.07864 26.0234 10.4999 26.0234 10.4999C26.0234 10.4999 26.0234 14.9211 25.4798 17.0413C25.3328 17.6157 25.0431 18.1399 24.6397 18.5615C24.2363 18.9831 23.7333 19.2873 23.1812 19.4436C21.1484 20.0113 13.0234 20.0113 13.0234 20.0113C13.0234 20.0113 4.89844 20.0113 2.86571 19.4436C2.31353 19.2873 1.81057 18.9831 1.40717 18.5615C1.00376 18.1399 0.714069 17.6157 0.567074 17.0413C0.0234375 14.9211 0.0234375 10.4999 0.0234375 10.4999C0.0234375 10.4999 0.0234375 6.07864 0.567074 3.95853C0.714069 3.38412 1.00376 2.85987 1.40717 2.43826C1.81057 2.01665 2.31353 1.71246 2.86571 1.55614C4.89844 0.988525 13.0234 0.988525 13.0234 0.988525C13.0234 0.988525 21.1484 0.988525 23.1812 1.55614C23.7333 1.71246 24.2363 2.01665 24.6397 2.43826ZM17.1598 10.5L10.3644 6.48526V14.5147L17.1598 10.5Z" fill="#FC1682"/>
</svg>
