<svg width="43" height="47" viewBox="0 0 43 47" fill="none" xmlns="http://www.w3.org/2000/svg">
<g clip-path="url(#clip0_4719_23833)">
<path d="M17.9123 32.2389C17.9123 30.8585 17.9123 29.4762 17.9123 28.0958C17.9123 27.3054 17.7927 27.1809 17.0252 27.1809C14.2925 27.1809 11.5598 27.1809 8.82714 27.1809C7.96682 27.1809 7.65625 26.8669 7.65625 26.0008C7.65625 24.3497 7.65625 22.6968 7.65625 21.0457C7.65625 20.2625 7.98467 19.9251 8.75039 19.9233C11.5134 19.9233 14.2764 19.9233 17.0377 19.9233C17.782 19.9233 17.9105 19.7915 17.9105 19.0391C17.9105 16.262 17.9105 13.4831 17.9105 10.706C17.9105 9.87408 18.23 9.55649 19.0653 9.55469C20.7146 9.55469 22.362 9.55469 24.0113 9.55469C24.7502 9.55469 25.0894 9.89754 25.0894 10.6482C25.0911 13.4416 25.0894 16.2331 25.0894 19.0264C25.0894 19.7988 25.2143 19.9251 25.9943 19.9215C28.7413 19.9143 31.4882 19.9016 34.237 19.8962C35.0759 19.8944 35.3686 20.1885 35.3686 21.024C35.3686 22.7365 35.3686 24.4471 35.3686 26.1596C35.3686 26.8742 35.0437 27.2062 34.3334 27.2062C31.5418 27.2098 28.7484 27.2062 25.9568 27.208C25.2857 27.208 25.1161 27.3776 25.1161 28.0579C25.1161 30.8512 25.1161 33.6428 25.1161 36.4361C25.1161 37.277 24.8216 37.573 23.9899 37.573C22.3121 37.573 20.6325 37.573 18.9547 37.573C18.1889 37.573 17.8837 37.2608 17.8819 36.474C17.8802 35.0629 17.8819 33.6518 17.8819 32.2407C17.8909 32.2407 17.8998 32.2407 17.9087 32.2407L17.9123 32.2389Z" fill="#00AEFF"/>
<path d="M21.4858 45.1204C21.4858 45.4506 21.5162 45.7664 21.4733 46.0713C21.4501 46.241 21.3377 46.4701 21.202 46.5297C21.0753 46.5874 20.8165 46.5134 20.7005 46.4052C19.8741 45.6274 19.0655 44.8317 18.2605 44.0323C17.9928 43.767 17.9892 43.4729 18.2623 43.204C19.0709 42.4082 19.8776 41.6106 20.7023 40.8329C20.8111 40.7301 21.0539 40.6525 21.1699 40.7066C21.3109 40.7734 21.443 40.9809 21.468 41.1451C21.5144 41.45 21.4823 41.7676 21.4823 42.1881C22.4711 42.0997 23.4224 42.0816 24.347 41.9192C30.1658 40.8979 34.5691 37.7923 37.5392 32.6369C38.6548 30.7007 39.333 28.6003 39.6811 26.388C39.7775 25.7799 39.9113 25.6824 40.5093 25.7257C40.9983 25.7618 41.4874 25.7889 41.9747 25.8394C42.5012 25.8936 42.669 26.1245 42.5976 26.655C41.4178 35.4357 34.5156 42.8972 25.9391 44.6079C24.6505 44.8641 23.3225 44.9237 22.0142 45.0735C21.8553 45.0915 21.6947 45.1023 21.4858 45.1204Z" fill="#00AEFF"/>
<path d="M21.523 1.99231C21.523 1.64224 21.4909 1.32465 21.5355 1.01969C21.5605 0.851873 21.6801 0.640748 21.8193 0.568568C21.9264 0.510824 22.1745 0.588417 22.2816 0.689469C23.1169 1.47803 23.938 2.28464 24.7537 3.09485C25.0071 3.34748 25.0018 3.638 24.7465 3.88883C23.9291 4.69724 23.1098 5.50384 22.2727 6.2924C22.1674 6.39165 21.9228 6.44037 21.7997 6.38443C21.6712 6.32669 21.5569 6.11917 21.5355 5.96399C21.4945 5.65722 21.523 5.34144 21.523 4.91558C20.5663 5.00219 19.6471 5.01663 18.7511 5.17543C11.8988 6.39345 7.10103 10.2641 4.40762 16.7368C3.89536 17.9656 3.6651 19.3172 3.34561 20.6236C3.17069 21.3364 3.11893 21.4212 2.40675 21.3725C1.94803 21.34 1.48753 21.313 1.03059 21.2642C0.502263 21.2083 0.325558 20.9791 0.411234 20.4468C1.52323 13.5825 5.0484 8.37117 10.9653 4.8452C14.0389 3.01365 17.3945 2.1114 20.9661 2.03381C21.0393 2.03381 21.1143 2.02299 21.1875 2.01757C21.2749 2.01035 21.3624 2.00494 21.523 1.99231Z" fill="#00AEFF"/>
<path d="M41.5565 9.32953C41.8385 9.32953 42.1205 9.32953 42.4025 9.32953C42.7863 9.32953 42.9844 9.53163 42.9916 9.90696C43.0023 10.4916 43.0005 11.0781 42.9916 11.6627C42.9862 12.0886 42.7524 12.2781 42.3365 12.2726C41.8028 12.2654 41.2673 12.2672 40.7337 12.2726C40.2392 12.2781 40.0358 12.482 40.0286 12.9854C40.0215 13.525 40.0304 14.0663 40.0251 14.6059C40.0197 15.0768 39.8501 15.2573 39.3825 15.2681C38.8327 15.2807 38.2848 15.2789 37.735 15.2681C37.2977 15.2591 37.1228 15.0732 37.1175 14.6311C37.1121 14.0916 37.121 13.5502 37.1139 13.0107C37.1067 12.482 36.9051 12.2799 36.3821 12.2745C35.8484 12.269 35.3129 12.2799 34.7792 12.2708C34.3455 12.2636 34.1563 12.0796 34.1474 11.6429C34.1367 11.0727 34.1402 10.5024 34.1474 9.93223C34.1527 9.53344 34.3526 9.32592 34.7578 9.32953C35.3076 9.33494 35.8555 9.33675 36.4053 9.32953C36.8961 9.32051 37.1067 9.10758 37.1139 8.61134C37.1228 8.05556 37.1192 7.50158 37.1139 6.9458C37.1103 6.53618 37.3156 6.33408 37.71 6.33047C38.2741 6.32506 38.8381 6.31964 39.4021 6.33047C39.8412 6.33949 40.0161 6.52355 40.0233 6.96745C40.0304 7.52324 40.0179 8.07721 40.0268 8.633C40.034 9.10577 40.241 9.30968 40.7087 9.32953C40.8568 9.33494 41.005 9.32953 41.1531 9.32953C41.287 9.32953 41.4208 9.32953 41.5547 9.32953H41.5565Z" fill="#00AEFF"/>
<path d="M2.97543 39.2959C2.97543 39.0108 2.98435 38.7257 2.97364 38.4406C2.95758 37.9967 2.75053 37.7855 2.30609 37.7765C1.75813 37.7639 1.20838 37.7765 0.658628 37.7711C0.205263 37.7675 0.0214188 37.6033 0.0107094 37.1648C-0.0035698 36.5946 -0.0035698 36.0244 0.0107094 35.4541C0.0232037 35.0102 0.207048 34.8388 0.647918 34.8316C1.1816 34.8244 1.71707 34.8352 2.25076 34.828C2.77016 34.8208 2.96829 34.6169 2.97364 34.0845C2.979 33.5594 2.97186 33.0343 2.97543 32.5092C2.98078 32.031 3.14321 31.8452 3.60371 31.8343C4.16774 31.8217 4.73177 31.8253 5.29579 31.8343C5.69026 31.8398 5.89195 32.0473 5.8866 32.4569C5.87946 32.9676 5.88303 33.4764 5.8866 33.9871C5.88838 34.6512 6.06866 34.828 6.73978 34.828C7.21456 34.828 7.68934 34.8244 8.16413 34.828C8.67818 34.8334 8.85131 35.0066 8.85667 35.5335C8.86381 36.028 8.86202 36.5242 8.85667 37.0186C8.85131 37.6195 8.70674 37.7675 8.12486 37.7693C7.6358 37.7711 7.14495 37.7657 6.65589 37.7693C6.0865 37.7747 5.89195 37.9768 5.8866 38.5633C5.88303 39.0884 5.88124 39.6135 5.8866 40.1386C5.89017 40.5428 5.70275 40.763 5.30293 40.7684C4.72463 40.7774 4.14454 40.7756 3.56623 40.7684C3.16998 40.763 2.97007 40.55 2.97364 40.1458C2.97543 39.8607 2.97364 39.5756 2.97364 39.2905L2.97543 39.2959Z" fill="#00AEFF"/>
<path d="M31.9573 3.97626C31.9573 4.23611 31.9573 4.44182 31.9573 4.64934C31.9573 5.51188 31.7646 5.84932 31.2826 5.83669C30.8079 5.82406 30.6258 5.48481 30.6258 4.62407C30.6258 4.43099 30.6258 4.23791 30.6258 3.97807C30.2724 3.97807 29.9511 3.98168 29.6298 3.97807C29.1122 3.97085 28.7927 3.71822 28.7891 3.31402C28.7838 2.89537 29.0836 2.64275 29.6048 2.63012C29.9011 2.6229 30.1992 2.6229 30.4955 2.61568C30.5223 2.61568 30.5473 2.59042 30.6258 2.54891C30.6258 2.23674 30.6187 1.89388 30.6276 1.55284C30.6419 1.05119 30.8882 0.769689 31.2969 0.771493C31.711 0.771493 31.9413 1.04217 31.9573 1.55645C31.9663 1.87043 31.968 2.18621 31.977 2.50019C31.977 2.52545 32.0037 2.55072 32.0466 2.63012C32.3696 2.63012 32.7213 2.62109 33.0747 2.63192C33.5334 2.64816 33.8083 2.90801 33.8065 3.30319C33.8065 3.68935 33.5191 3.95822 33.0658 3.97446C32.7141 3.98709 32.3607 3.97626 31.9609 3.97626H31.9573Z" fill="#00AEFF"/>
<path d="M11.0485 43.1305C11.0485 42.7299 11.0396 42.3888 11.0503 42.046C11.0645 41.5678 11.3019 41.2845 11.6803 41.2719C12.0766 41.2592 12.3532 41.5588 12.3693 42.0406C12.3818 42.3816 12.3711 42.7245 12.3711 43.1305C12.7459 43.1305 13.0815 43.1251 13.417 43.1305C13.9008 43.1413 14.2095 43.4048 14.2113 43.7927C14.2113 44.1951 13.9186 44.4568 13.4331 44.4694C13.0958 44.4784 12.7584 44.4694 12.3711 44.4694C12.3711 44.8646 12.3782 45.2075 12.3693 45.5485C12.355 46.0465 12.1051 46.3298 11.6982 46.3262C11.293 46.3226 11.0592 46.0429 11.0485 45.5323C11.0413 45.2038 11.0485 44.8754 11.0485 44.4694C10.8307 44.4694 10.6469 44.4694 10.4613 44.4694C9.52775 44.4694 9.19219 44.289 9.19933 43.7873C9.20468 43.2983 9.54025 43.1269 10.4845 43.1251C10.6469 43.1251 10.8075 43.1251 11.0485 43.1251V43.1305Z" fill="#00AEFF"/>
</g>
<defs>
<clipPath id="clip0_4719_23833">
<rect width="43" height="46" fill="white" transform="translate(0 0.548828)"/>
</clipPath>
</defs>
</svg>
