<svg width="19" height="18" viewBox="0 0 19 18" fill="none" xmlns="http://www.w3.org/2000/svg">
<path d="M8.79492 0C9.2651 0 9.7349 0 10.2051 0C10.4114 0.0265242 10.6181 0.05128 10.8241 0.0802798C13.0146 0.390436 14.8838 1.3011 16.4075 2.83278C17.7075 4.13954 18.525 5.68572 18.8553 7.46142C18.9121 7.76663 18.9521 8.07501 19 8.38163V9.72552C18.9889 9.77008 18.9737 9.81394 18.967 9.85921C18.921 10.1679 18.8965 10.4809 18.8286 10.7851C18.1643 13.7554 16.3953 15.911 13.5405 17.2534C12.7389 17.6304 11.8865 17.8663 10.9933 18V11.6706H11.2004C11.8127 11.6706 12.4246 11.6728 13.0369 11.6667C13.0948 11.666 13.1954 11.6204 13.2028 11.5833C13.2759 11.1967 13.3353 10.8077 13.3961 10.419C13.467 9.96848 13.5356 9.51793 13.608 9.05075H10.9847C10.9847 8.39295 10.9462 7.7493 10.9959 7.11201C11.043 6.50655 11.4531 6.05599 12.1092 5.98385C12.5593 5.93398 13.018 5.95308 13.4729 5.94212C13.5564 5.94 13.6399 5.94212 13.7216 5.94212V3.71975C13.6648 3.71727 13.6162 3.71798 13.5687 3.71303C13.0183 3.65503 12.4691 3.5797 11.9173 3.54221C11.4226 3.50862 10.9287 3.55883 10.4467 3.68014C9.55418 3.90471 8.88176 4.39063 8.4524 5.18105C8.15145 5.73488 8.04234 6.32937 8.02119 6.93837C7.99893 7.57424 8.01637 8.21117 8.01637 8.84775C8.01637 8.91105 8.01637 8.97401 8.01637 9.05641H5.61799V11.6756H8.00783V17.9954C7.9748 17.9933 7.94994 17.994 7.92619 17.9901C5.82395 17.6396 4.03082 16.7325 2.56945 15.2517C1.28324 13.9485 0.472031 12.4101 0.144727 10.6461C0.0879492 10.3405 0.0478711 10.0325 0 9.72552C0 9.27744 0 8.82971 0 8.38163C0.027832 8.185 0.0538086 7.98801 0.0842383 7.79174C0.409688 5.70411 1.36525 3.92275 2.97209 2.47064C4.34328 1.23178 5.96607 0.452679 7.82934 0.137926C8.14959 0.0838163 8.47281 0.0456215 8.79492 0Z" fill="#4267B2"/>
</svg>
