<svg width="16" height="15" viewBox="0 0 16 15" fill="none" xmlns="http://www.w3.org/2000/svg">
<path d="M1.00083 13.7151C1.00262 12.9274 0.99011 12.1379 1.02405 11.3518C1.11517 9.20196 2.10849 7.1564 3.84948 5.76243C4.96428 4.87038 6.27382 4.31296 7.76738 4.08427C7.97372 4.05232 8.18186 4.03551 8.39624 4.01533C8.48468 4.00692 8.55256 3.9363 8.55256 3.85222V1.16432C8.55256 1.0256 8.72318 0.94993 8.83752 1.03737L15.0985 5.83725C15.1842 5.90283 15.1842 6.02642 15.0985 6.092C13.0136 7.69617 10.9403 9.29108 8.84556 10.9028C8.73122 10.9903 8.5606 10.9146 8.5606 10.7759V8.11318C8.5606 8.01481 8.4686 7.93831 8.36498 7.95008C8.07734 7.98287 7.79953 8.00977 7.52709 8.06274C5.09292 8.53272 3.26974 9.79217 2.11921 11.8672C1.86105 12.3338 1.44657 13.2267 1.20003 13.7555C1.15537 13.8522 1.00083 13.8219 1.00172 13.716L1.00083 13.7151Z" stroke="#AAAAAA" stroke-width="1.5" stroke-miterlimit="10"/>
</svg>
