<svg width="15" height="15" viewBox="0 0 15 15" fill="none" xmlns="http://www.w3.org/2000/svg">
<path d="M8.20704 10.1821C7.25458 10.1387 6.42535 9.79833 5.77923 9.0777C5.44413 8.70389 5.48169 8.13231 5.82617 7.77083C6.15775 7.42283 6.74812 7.37354 7.13838 7.67106C7.37077 7.84829 7.58439 8.04664 7.88075 8.12351C8.41714 8.262 8.90129 8.17163 9.31033 7.79665C9.64484 7.49032 9.95822 7.16111 10.2798 6.8407C11.0298 6.09249 11.7816 5.34662 12.5275 4.59431C13.1636 3.95231 13.1354 2.96996 12.4729 2.38195C11.8907 1.86554 10.9923 1.89899 10.4154 2.46646C9.82089 3.05211 9.22876 3.64129 8.64542 4.2381C8.49343 4.3942 8.35199 4.42589 8.15129 4.34608C7.66538 4.15242 7.1554 4.07555 6.63369 4.07496C6.50575 4.07496 6.40247 4.03975 6.34965 3.91358C6.29801 3.79093 6.34965 3.69587 6.43474 3.61136C7.34847 2.70295 8.24401 1.77517 9.18181 0.8914C10.4523 -0.305736 12.5386 -0.288131 13.8273 0.893747C15.2182 2.16893 15.3907 4.18059 14.2358 5.67818C14.1554 5.78205 14.0662 5.88005 13.9729 5.97336C12.9072 7.04081 11.8444 8.11119 10.7722 9.17218C10.1437 9.79481 9.38075 10.127 8.49284 10.1639C8.40012 10.168 8.30798 10.1757 8.20763 10.1827L8.20704 10.1821Z" fill="#FC1682"/>
<path d="M6.75465 4.82434C7.62554 4.83256 8.45007 5.16822 9.13552 5.83486C9.52636 6.21454 9.54338 6.81135 9.18775 7.20981C8.8462 7.59242 8.23528 7.64055 7.82155 7.30899C7.60031 7.13118 7.38669 6.9516 7.10089 6.87825C6.58681 6.7468 6.12613 6.84128 5.71474 7.17519C5.67308 7.20922 5.63435 7.24619 5.5962 7.28434C4.55336 8.32655 3.50876 9.367 2.46827 10.4116C1.92953 10.952 1.84737 11.7519 2.25993 12.351C2.79397 13.1262 3.88493 13.2237 4.5692 12.55C5.13317 11.9954 5.68834 11.4321 6.24702 10.8722C6.30219 10.8171 6.35852 10.7631 6.41251 10.7062C6.50641 10.6064 6.61439 10.5788 6.74409 10.6293C7.27343 10.8341 7.82214 10.9327 8.38963 10.9297C8.50641 10.9291 8.59913 10.9743 8.64667 11.0876C8.70359 11.2243 8.63141 11.3206 8.54103 11.4109C7.69186 12.2601 6.84855 13.1157 5.98881 13.9543C5.757 14.1802 5.49057 14.3809 5.21298 14.547C3.8732 15.348 2.01052 15.0599 0.96005 13.905C-0.07164 12.77 -0.285842 11.2924 0.38552 9.91217C0.555707 9.56242 0.793383 9.25961 1.06803 8.98498C2.09972 7.95215 3.12965 6.91816 4.16369 5.88768C4.87026 5.18407 5.6942 4.83842 6.75524 4.82434H6.75465Z" fill="#FC1682"/>
</svg>
