<svg width="34" height="31" viewBox="0 0 34 31" fill="none" xmlns="http://www.w3.org/2000/svg">
<path d="M9.48351 0.0306774C9.39439 0.00986059 9.30641 0 9.21954 0C8.70966 0 8.24828 0.337451 8.12419 0.840342C7.7711 2.26794 7.7711 3.77661 8.12419 5.20311C8.24828 5.706 8.71079 6.04345 9.21954 6.04345C9.30641 6.04345 9.39552 6.03359 9.48351 6.01277C10.0893 5.87143 10.4627 5.2798 10.3172 4.69145C10.0475 3.59912 10.0475 2.44433 10.3172 1.3509C10.4627 0.762552 10.0893 0.170917 9.48351 0.0295818V0.0306774Z" fill="white"/>
<path d="M25.2697 0.0306774C25.1806 0.00986059 25.0926 0 25.0057 0C24.4959 0 24.0345 0.337451 23.9104 0.840342C23.5573 2.26794 23.5573 3.77661 23.9104 5.20311C24.0345 5.706 24.497 6.04345 25.0057 6.04345C25.0926 6.04345 25.1817 6.03359 25.2697 6.01277C25.8755 5.87143 26.2489 5.2798 26.1034 4.69145C25.8337 3.59912 25.8337 2.44433 26.1034 1.3509C26.2489 0.762552 25.8755 0.170917 25.2697 0.0295818V0.0306774Z" fill="white"/>
<path d="M30.2029 3.00241H27.2835C27.3094 3.31799 27.3534 3.63116 27.4234 3.93831C27.5779 4.62609 27.473 5.33795 27.1267 5.94141C26.7804 6.54487 26.2344 6.96886 25.5902 7.13387C25.3996 7.18326 25.2044 7.20735 25.0093 7.20735C23.8575 7.20735 22.866 6.37142 22.5975 5.17534C22.4373 4.46227 22.3414 3.73355 22.3098 3.0012H11.4973C11.5232 3.31679 11.5672 3.62996 11.6372 3.93711C11.7917 4.62488 11.6868 5.33675 11.3405 5.9402C10.9942 6.54366 10.4482 6.96765 9.80405 7.13267C9.6134 7.18205 9.41825 7.20614 9.22309 7.20614C8.07133 7.20614 7.07976 6.37021 6.81128 5.17414C6.65109 4.46107 6.55521 3.73234 6.52362 3H3.79934C1.70338 3.00241 0 4.76581 0 6.93272V27.0697C0 29.2366 1.70338 31 3.79708 31H30.2029C32.2966 31 34 29.2366 34 27.0697V6.93272C34 4.76581 32.2966 3.00241 30.2029 3.00241ZM31.7439 27.0697C31.7439 27.908 31.0524 28.591 30.2029 28.591H3.79708C2.94764 28.591 2.25614 27.908 2.25614 27.0697V10.4704H31.7439V27.0697Z" fill="white"/>
<path d="M21.9523 15.0477C19.2219 12.3174 14.7781 12.3174 12.0477 15.0477C9.31742 17.7781 9.31742 22.2219 12.0477 24.9523C14.7781 27.6826 19.2219 27.6826 21.9523 24.9523C24.6826 22.2219 24.6826 17.7781 21.9523 15.0477ZM20.8696 18.5644L17.2239 22.9187L17.2226 22.92L17.2134 22.9318C17.2068 22.9397 17.1989 22.9463 17.1923 22.9542C17.1765 22.9727 17.162 22.9911 17.1436 23.0082C17.1396 23.0122 17.1357 23.0148 17.1317 23.0188C17.1185 23.0319 17.1054 23.0425 17.0922 23.0543C17.0751 23.0701 17.0566 23.0859 17.0382 23.1004C17.0237 23.1123 17.0092 23.1215 16.9947 23.132C16.975 23.1452 16.9565 23.1584 16.9368 23.1716C16.9223 23.1808 16.9065 23.19 16.892 23.1979C16.8709 23.2097 16.8499 23.2216 16.8288 23.2308C16.8143 23.2374 16.7998 23.2453 16.784 23.2506C16.7616 23.2598 16.7379 23.269 16.7142 23.2782C16.6997 23.2835 16.6865 23.2888 16.672 23.2927C16.647 23.3006 16.622 23.3072 16.5957 23.3138C16.5825 23.3177 16.5693 23.3204 16.5561 23.323C16.5285 23.3283 16.4995 23.3322 16.4718 23.3375C16.46 23.3388 16.4495 23.3415 16.4389 23.3428C16.3994 23.3467 16.3599 23.3494 16.3204 23.3494C16.2848 23.3494 16.2506 23.348 16.215 23.3441C16.2045 23.3441 16.1939 23.3415 16.1834 23.3401C16.1584 23.3375 16.1334 23.3336 16.1083 23.3296C16.0952 23.327 16.0833 23.3243 16.0701 23.3217C16.0477 23.3164 16.0254 23.3112 16.0043 23.3059C15.9911 23.3019 15.9766 23.298 15.9635 23.294C15.9437 23.2875 15.9239 23.2809 15.9029 23.273C15.8884 23.2677 15.8739 23.2611 15.8594 23.2558C15.841 23.2479 15.8225 23.24 15.8041 23.2308C15.7896 23.2229 15.7738 23.2163 15.7593 23.2071C15.7422 23.1979 15.7264 23.1874 15.7093 23.1781C15.6948 23.1689 15.679 23.1597 15.6645 23.1505C15.6487 23.1399 15.6329 23.1281 15.6171 23.1162C15.6026 23.1057 15.5894 23.0952 15.5749 23.0846L15.5696 23.0807C15.5578 23.0714 15.5486 23.0609 15.5367 23.0504C15.5222 23.0372 15.5077 23.0254 15.4932 23.0109L13.1976 20.7152C12.7432 20.2608 12.7432 19.5232 13.1976 19.0675C13.652 18.6131 14.3895 18.6118 14.8452 19.0675L16.2414 20.4636L19.081 17.0721C19.4932 16.5782 20.2282 16.5137 20.7221 16.9272C21.2147 17.3395 21.2805 18.0744 20.867 18.5683L20.8696 18.5644Z" fill="white"/>
</svg>
