<svg width="40" height="40" viewBox="0 0 40 40" fill="none" xmlns="http://www.w3.org/2000/svg">
<circle cx="19.8795" cy="19.8795" r="19.8795" fill="#FC1682"/>
<path d="M17.8025 13.6809C16.6271 13.8311 15.5784 14.3628 14.7948 15.1717L7.88051 22.0942C6.93556 23.0303 6.35938 24.3362 6.35938 25.7692C6.35938 28.6468 8.67565 30.9697 11.5451 30.9697C12.974 30.9697 14.2762 30.3919 15.2096 29.4442L22.1239 22.5102C23.0688 21.5741 23.645 20.2682 23.645 18.8352C23.645 17.6217 23.2417 16.5123 22.5503 15.634" stroke="white" stroke-width="1.5804" stroke-linecap="round" stroke-linejoin="round"/>
<path d="M21.34 26.3125C22.5385 26.1738 23.6217 25.6422 24.4284 24.8216L31.3426 17.8876C32.2876 16.9515 32.8638 15.6456 32.8638 14.2126C32.8638 11.335 30.5475 9.01208 27.6781 9.01208C26.2491 9.01208 24.947 9.58992 24.0135 10.5376L17.0993 17.4716C16.1543 18.4077 15.5781 19.7136 15.5781 21.1466C15.5781 22.3023 15.9584 23.3771 16.5922 24.2438" stroke="white" stroke-width="1.5804" stroke-linecap="round" stroke-linejoin="round"/>
</svg>
