<svg width="39" height="26" viewBox="0 0 39 26" fill="none" xmlns="http://www.w3.org/2000/svg">
<g clip-path="url(#clip0_4552_26514)">
<path d="M2.09375 0.454129C2.74505 0.0724192 3.4421 0 4.15593 0C10.2601 0 16.3658 0 22.47 0C26.6081 0 30.7447 0 34.8828 0C35.6409 0 36.373 0.104103 37.0639 0.531074C36.9892 0.617072 36.9251 0.701561 36.8504 0.775489C31.4555 6.10735 26.0605 11.4407 20.6656 16.7711C19.9838 17.4455 19.2578 17.4455 18.5729 16.7681C13.1429 11.4015 7.7129 6.03192 2.28441 0.662334C2.2234 0.601985 2.16696 0.534092 2.09375 0.454129Z" fill="white"/>
<path d="M13.3738 15.0469C13.4149 15.1163 13.4622 15.2596 13.5583 15.3562C14.6199 16.4183 15.6891 17.4744 16.7568 18.5305C18.4621 20.2158 20.7927 20.2113 22.5041 18.5185C23.5276 17.5061 24.5495 16.4937 25.5684 15.4784C25.6569 15.3894 25.7225 15.2792 25.7835 15.2008C29.3648 18.7478 32.8959 22.245 36.433 25.7483C35.9449 25.9807 35.3775 25.9973 34.8116 25.9973C27.4109 26.0003 20.0103 25.9988 12.6081 25.9988C9.78933 25.9988 6.97213 26.0078 4.15341 25.9912C3.60736 25.9882 3.05978 25.8811 2.5 25.8207C6.13475 22.2194 9.70544 18.6814 13.3722 15.0484L13.3738 15.0469Z" fill="white"/>
<path d="M0.485248 24.0004C0.169514 23.4648 0.00325842 22.8658 0.00173314 22.2291C0.000207853 16.0539 -0.004368 9.87861 0.0124101 3.70337C0.0124101 3.24018 0.161888 2.777 0.247304 2.28516C3.99798 5.99513 7.68459 9.64174 11.3544 13.2733C7.76238 16.8188 4.13525 20.3975 0.485248 23.9988V24.0004Z" fill="white"/>
<path d="M38.4926 24.0547C34.8822 20.4926 31.2993 16.9592 27.75 13.4574C31.4168 9.8289 35.0897 6.19587 38.8068 2.51758C38.8708 2.9536 38.9944 3.4017 38.9944 3.84828C39.0066 9.97223 39.0035 16.0947 39.002 22.2186C39.002 22.8704 38.8281 23.4769 38.4926 24.0547Z" fill="white"/>
</g>
<defs>
<clipPath id="clip0_4552_26514">
<rect width="39" height="26" fill="white"/>
</clipPath>
</defs>
</svg>
