<svg width="43" height="40" viewBox="0 0 43 40" fill="none" xmlns="http://www.w3.org/2000/svg">
<g clip-path="url(#clip0_4719_23841)">
<path d="M17.6064 2.84243L0.609452 32.8721C-1.1223 35.9302 1.04284 39.7538 4.50454 39.7538H38.4984C41.9601 39.7538 44.1234 35.9302 42.3935 32.8721L25.3948 2.84243C23.663 -0.215706 19.3363 -0.215706 17.6064 2.84243Z" fill="#FC1682"/>
<path d="M24.6348 32.8963C24.6348 34.6647 23.195 36.1006 21.4937 36.1006C19.7924 36.1006 18.3203 34.6665 18.3203 32.8963C18.3203 31.1261 19.7602 29.6592 21.4937 29.6592C23.2272 29.6592 24.6348 31.1279 24.6348 32.8963ZM24.0456 26.9573H18.9095V9.10352H24.0456V26.9554V26.9573Z" fill="white"/>
</g>
<defs>
<clipPath id="clip0_4719_23841">
<rect width="43" height="39.2059" fill="white" transform="translate(0 0.548828)"/>
</clipPath>
</defs>
</svg>
