<svg width="24" height="24" viewBox="0 0 24 24" fill="none" xmlns="http://www.w3.org/2000/svg">
<g clip-path="url(#clip0_3791_40198)">
<path d="M12 24C10.36 24 8.81 23.6848 7.35 23.0544C5.89 22.424 4.6152 21.564 3.5256 20.4744C2.4352 19.3848 1.5752 18.11 0.9456 16.65C0.316 15.19 0.0008 13.64 0 12C0 10.34 0.3152 8.7852 0.9456 7.3356C1.576 5.886 2.436 4.616 3.5256 3.5256C4.6152 2.4352 5.8896 1.5752 7.3488 0.9456C8.808 0.316 10.3584 0.0008 12 0C13.66 0 15.2152 0.3152 16.6656 0.9456C18.116 1.576 19.3856 2.436 20.4744 3.5256C21.5648 4.6152 22.4248 5.8852 23.0544 7.3356C23.684 8.786 23.9992 10.3408 24 12C24 13.64 23.6848 15.19 23.0544 16.65C22.424 18.11 21.564 19.3852 20.4744 20.4756C19.3848 21.5652 18.1148 22.4252 16.6644 23.0556C15.214 23.686 13.6592 24.0008 12 24ZM12 21.54C12.52 20.82 12.97 20.07 13.35 19.29C13.73 18.51 14.04 17.68 14.28 16.8H9.72C9.96 17.68 10.27 18.51 10.65 19.29C11.03 20.07 11.48 20.82 12 21.54ZM8.88 21.06C8.52 20.4 8.2052 19.7148 7.9356 19.0044C7.666 18.294 7.4408 17.5592 7.26 16.8H3.72C4.3 17.8 5.0252 18.67 5.8956 19.41C6.766 20.15 7.7608 20.7 8.88 21.06ZM15.12 21.06C16.24 20.7 17.2352 20.15 18.1056 19.41C18.976 18.67 19.7008 17.8 20.28 16.8H16.74C16.56 17.56 16.3352 18.2952 16.0656 19.0056C15.796 19.716 15.4808 20.4008 15.12 21.06ZM2.7 14.4H6.78C6.72 14 6.6752 13.6052 6.6456 13.2156C6.616 12.826 6.6008 12.4208 6.6 12C6.6 11.58 6.6152 11.1752 6.6456 10.7856C6.676 10.396 6.7208 10.0008 6.78 9.6H2.7C2.6 10 2.5252 10.3952 2.4756 10.7856C2.426 11.176 2.4008 11.5808 2.4 12C2.4 12.42 2.4252 12.8252 2.4756 13.2156C2.526 13.606 2.6008 14.0008 2.7 14.4ZM9.18 14.4H14.82C14.88 14 14.9252 13.6052 14.9556 13.2156C14.986 12.826 15.0008 12.4208 15 12C15 11.58 14.9848 11.1752 14.9544 10.7856C14.924 10.396 14.8792 10.0008 14.82 9.6H9.18C9.12 10 9.0752 10.3952 9.0456 10.7856C9.016 11.176 9.0008 11.5808 9 12C9 12.42 9.0152 12.8252 9.0456 13.2156C9.076 13.606 9.1208 14.0008 9.18 14.4ZM17.22 14.4H21.3C21.4 14 21.4752 13.6052 21.5256 13.2156C21.576 12.826 21.6008 12.4208 21.6 12C21.6 11.58 21.5752 11.1752 21.5256 10.7856C21.476 10.396 21.4008 10.0008 21.3 9.6H17.22C17.28 10 17.3252 10.3952 17.3556 10.7856C17.386 11.176 17.4008 11.5808 17.4 12C17.4 12.42 17.3848 12.8252 17.3544 13.2156C17.324 13.606 17.2792 14.0008 17.22 14.4ZM16.74 7.2H20.28C19.7 6.2 18.9752 5.33 18.1056 4.59C17.236 3.85 16.2408 3.3 15.12 2.94C15.48 3.6 15.7952 4.2852 16.0656 4.9956C16.336 5.706 16.5608 6.4408 16.74 7.2ZM9.72 7.2H14.28C14.04 6.32 13.73 5.49 13.35 4.71C12.97 3.93 12.52 3.18 12 2.46C11.48 3.18 11.03 3.93 10.65 4.71C10.27 5.49 9.96 6.32 9.72 7.2ZM3.72 7.2H7.26C7.44 6.44 7.6652 5.7048 7.9356 4.9944C8.206 4.284 8.5208 3.5992 8.88 2.94C7.76 3.3 6.7648 3.85 5.8944 4.59C5.024 5.33 4.2992 6.2 3.72 7.2Z" fill="#FC1682"/>
</g>
<defs>
<clipPath id="clip0_3791_40198">
<rect width="24" height="24" fill="white"/>
</clipPath>
</defs>
</svg>
