<svg width="116" height="116" viewBox="0 0 116 116" fill="none" xmlns="http://www.w3.org/2000/svg">
<g filter="url(#filter0_d_2413_10836)">
<circle cx="58" cy="54" r="54" fill="#878787"/>
</g>
<path d="M35.9941 95.3867C34.9395 95.3867 34.0078 95.0352 33.1992 94.332C33.1875 94.5898 33.0879 94.8125 32.9004 95C32.6895 95.1992 32.4434 95.2988 32.1621 95.2988C31.8926 95.2988 31.6582 95.1992 31.459 95C31.2715 94.8125 31.1777 94.5781 31.1777 94.2969V82.8887C31.1777 82.6191 31.2773 82.3789 31.4766 82.168C31.6758 81.9688 31.916 81.8691 32.1973 81.8691C32.4785 81.8691 32.7129 81.9688 32.9004 82.168C33.0996 82.3555 33.1992 82.5957 33.1992 82.8887V86.7031C34.0078 86 34.9395 85.6484 35.9941 85.6484C36.791 85.6484 37.5117 85.8359 38.1562 86.2109C38.8711 86.6094 39.4336 87.1895 39.8438 87.9512C40.2539 88.7012 40.459 89.5566 40.459 90.5176C40.459 91.5137 40.2539 92.3691 39.8438 93.084C39.4219 93.8223 38.8711 94.3906 38.1914 94.7891C37.5117 95.1875 36.7793 95.3867 35.9941 95.3867ZM37.6465 88.2676C37.1895 87.7988 36.5625 87.5645 35.7656 87.5645C35.2852 87.5645 34.8281 87.6699 34.3945 87.8809C33.9492 88.1035 33.5508 88.3906 33.1992 88.7422V92.293C33.5508 92.6445 33.9434 92.9316 34.377 93.1543C34.8223 93.3652 35.2852 93.4707 35.7656 93.4707C36.5977 93.4707 37.248 93.2129 37.7168 92.6973C38.1973 92.1816 38.4375 91.4434 38.4375 90.4824C38.4375 89.5215 38.1738 88.7832 37.6465 88.2676ZM41.7246 90.5176C41.7246 89.6855 41.8828 88.8945 42.1992 88.1445C42.5273 87.3711 43.0312 86.7617 43.7109 86.3164C44.3906 85.8711 45.1992 85.6484 46.1367 85.6484C47.0625 85.6484 47.8535 85.8594 48.5098 86.2812C49.1426 86.6914 49.6348 87.248 49.9863 87.9512C50.3496 88.6543 50.5312 89.4336 50.5312 90.2891C50.5312 90.5703 50.4316 90.8105 50.2324 91.0098C50.0449 91.1973 49.8047 91.291 49.5117 91.291H43.7988C43.916 91.9707 44.1973 92.4922 44.6426 92.8555C45.123 93.2656 45.7852 93.4707 46.6289 93.4707C47.2734 93.4707 47.8535 93.377 48.3691 93.1895C48.5449 93.1191 48.7266 93.0371 48.9141 92.9434C49.0195 92.8848 49.1543 92.8555 49.3184 92.8555C49.5762 92.8555 49.793 92.9434 49.9688 93.1191C50.1445 93.2949 50.2324 93.5059 50.2324 93.752C50.2324 94.0918 50.0391 94.373 49.6523 94.5957C49.1484 94.8652 48.668 95.0645 48.2109 95.1934C47.7539 95.3223 47.1797 95.3867 46.4883 95.3867C44.9883 95.3867 43.8164 94.959 42.9727 94.1035C42.1406 93.2363 41.7246 92.041 41.7246 90.5176ZM48.4922 89.5684C48.5039 89.5684 48.5098 89.5684 48.5098 89.5684C48.5098 89.5566 48.5098 89.5508 48.5098 89.5508C48.4629 89.1172 48.334 88.7539 48.123 88.4609C47.8887 88.1211 47.5898 87.8633 47.2266 87.6875C46.875 87.5117 46.5176 87.4238 46.1543 87.4238C45.791 87.4238 45.4219 87.5059 45.0469 87.6699C44.4961 87.9395 44.1152 88.3789 43.9043 88.9883C43.8457 89.1641 43.8047 89.3574 43.7812 89.5684H48.4922ZM52.8867 94.2969V87.6172H52.0605C51.8145 87.6172 51.6035 87.5293 51.4277 87.3535C51.252 87.1777 51.1641 86.9668 51.1641 86.7207C51.1641 86.4746 51.252 86.2637 51.4277 86.0879C51.6152 85.9121 51.8262 85.8242 52.0605 85.8242H52.8867V85.0156C52.8867 84.2656 53.0215 83.6562 53.291 83.1875C53.5488 82.7188 53.8945 82.3672 54.3281 82.1328C54.7617 81.8984 55.2422 81.7812 55.7695 81.7812C56.2969 81.7812 56.8242 81.9043 57.3516 82.1504C57.4453 82.209 57.5332 82.2793 57.6152 82.3613C57.791 82.5254 57.8789 82.7246 57.8789 82.959C57.8789 83.1934 57.791 83.3984 57.6152 83.5742C57.4395 83.75 57.2402 83.8379 57.0176 83.8379C56.877 83.8379 56.7305 83.8203 56.5781 83.7852L56.1211 83.7324C55.6758 83.7324 55.3594 83.832 55.1719 84.0312C54.9961 84.2188 54.9082 84.5645 54.9082 85.0684V85.8242H56.8945C57.1523 85.8242 57.3633 85.9121 57.5273 86.0879C57.7031 86.252 57.791 86.4629 57.791 86.7207C57.791 86.9551 57.7031 87.166 57.5273 87.3535C57.3516 87.5293 57.1406 87.6172 56.8945 87.6172H54.9082V94.2969C54.9082 94.5664 54.8086 94.8008 54.6094 95C54.3984 95.1992 54.1523 95.2988 53.8711 95.2988C53.6016 95.2988 53.3672 95.1992 53.168 95C52.9805 94.8125 52.8867 94.5781 52.8867 94.2969ZM58.9512 93.7871C58.2363 92.8965 57.8789 91.8008 57.8789 90.5C57.8789 89.5625 58.0723 88.7246 58.459 87.9863C58.8574 87.2363 59.4141 86.6562 60.1289 86.2461C60.8438 85.8477 61.6641 85.6484 62.5898 85.6484C63.5156 85.6484 64.3301 85.8477 65.0332 86.2461C65.7598 86.668 66.3164 87.248 66.7031 87.9863C67.1016 88.7246 67.3008 89.5684 67.3008 90.5176C67.3008 91.4668 67.1074 92.3047 66.7207 93.0312C66.3105 93.793 65.748 94.3789 65.0332 94.7891C64.3184 95.1875 63.498 95.3867 62.5723 95.3867C61.2129 95.3867 60.1055 94.959 59.25 94.1035C59.1445 94.0098 59.0449 93.9043 58.9512 93.7871ZM64.875 88.8125C64.5234 88.1797 63.9961 87.7812 63.293 87.6172C63.0703 87.5586 62.8652 87.5293 62.6777 87.5293C62.502 87.5293 62.3613 87.5352 62.2559 87.5469C62.1504 87.5586 62.0391 87.5762 61.9219 87.5996C61.1836 87.7637 60.6387 88.168 60.2871 88.8125C60.0293 89.2695 59.9004 89.8438 59.9004 90.5352C59.9004 91.2266 60.0293 91.7832 60.2871 92.2051C60.4277 92.4395 60.5742 92.6328 60.7266 92.7852C60.8789 92.9375 61.0547 93.0664 61.2539 93.1719C61.6523 93.3945 62.0977 93.5059 62.5898 93.5059C63.0352 93.5059 63.4688 93.4004 63.8906 93.1895C64.3125 92.9785 64.6465 92.6445 64.8926 92.1875C65.1504 91.7305 65.2793 91.1621 65.2793 90.4824C65.2793 89.8027 65.1445 89.2461 64.875 88.8125ZM71.1328 86.9141C71.8945 86.0703 72.7441 85.6484 73.6816 85.6484H73.7695C74.0508 85.6484 74.2852 85.748 74.4727 85.9473C74.6602 86.1465 74.7539 86.3809 74.7539 86.6504C74.7539 86.9316 74.6543 87.166 74.4551 87.3535C74.2559 87.5293 74.0156 87.6172 73.7344 87.6172H73.6465C72.8379 87.6172 72.1406 87.9102 71.5547 88.4961C71.4023 88.6484 71.2617 88.8184 71.1328 89.0059V94.2969C71.1328 94.5664 71.0332 94.8008 70.834 95C70.623 95.1992 70.377 95.2988 70.0957 95.2988C69.8262 95.2988 69.5918 95.1992 69.3926 95C69.2051 94.8125 69.1113 94.5781 69.1113 94.2969V86.7559C69.1113 86.4863 69.2109 86.2461 69.4102 86.0352C69.6094 85.8359 69.8438 85.7363 70.1133 85.7363C70.3945 85.7363 70.6348 85.8359 70.834 86.0352C71.0332 86.2344 71.1328 86.4746 71.1328 86.7559V86.9141ZM75.0352 90.5176C75.0352 89.6855 75.1934 88.8945 75.5098 88.1445C75.8379 87.3711 76.3418 86.7617 77.0215 86.3164C77.7012 85.8711 78.5098 85.6484 79.4473 85.6484C80.373 85.6484 81.1641 85.8594 81.8203 86.2812C82.4531 86.6914 82.9453 87.248 83.2969 87.9512C83.6602 88.6543 83.8418 89.4336 83.8418 90.2891C83.8418 90.5703 83.7422 90.8105 83.543 91.0098C83.3555 91.1973 83.1152 91.291 82.8223 91.291H77.1094C77.2266 91.9707 77.5078 92.4922 77.9531 92.8555C78.4336 93.2656 79.0957 93.4707 79.9395 93.4707C80.584 93.4707 81.1641 93.377 81.6797 93.1895C81.8555 93.1191 82.0371 93.0371 82.2246 92.9434C82.3301 92.8848 82.4648 92.8555 82.6289 92.8555C82.8867 92.8555 83.1035 92.9434 83.2793 93.1191C83.4551 93.2949 83.543 93.5059 83.543 93.752C83.543 94.0918 83.3496 94.373 82.9629 94.5957C82.459 94.8652 81.9785 95.0645 81.5215 95.1934C81.0645 95.3223 80.4902 95.3867 79.7988 95.3867C78.2988 95.3867 77.127 94.959 76.2832 94.1035C75.4512 93.2363 75.0352 92.041 75.0352 90.5176ZM81.8027 89.5684C81.8145 89.5684 81.8203 89.5684 81.8203 89.5684C81.8203 89.5566 81.8203 89.5508 81.8203 89.5508C81.7734 89.1172 81.6445 88.7539 81.4336 88.4609C81.1992 88.1211 80.9004 87.8633 80.5371 87.6875C80.1855 87.5117 79.8281 87.4238 79.4648 87.4238C79.1016 87.4238 78.7324 87.5059 78.3574 87.6699C77.8066 87.9395 77.4258 88.3789 77.2148 88.9883C77.1562 89.1641 77.1152 89.3574 77.0918 89.5684H81.8027Z" fill="white"/>
<path d="M83.4634 30.3575C81.8211 26.9143 78.5102 16 72.298 16C65.1473 16 63.9115 25.1762 59.434 25.1762C59.3812 25.1762 59.3316 25.1762 59.2787 25.1729C59.2688 25.1729 59.2622 25.1729 59.2523 25.1729C59.2424 25.1729 59.2358 25.1729 59.2259 25.1729C59.1763 25.1729 59.1234 25.1762 59.0706 25.1762C54.5931 25.1762 53.6679 16 46.5173 16C40.3051 16 37.0965 26.9143 35.4542 30.3575C33.0949 35.3041 26.0731 43.8063 29.7773 58.4479C33.8021 74.3452 52.6337 74.3452 59.0706 74.3452C59.1796 74.3452 59.292 74.3452 59.4043 74.3452C59.52 74.3452 59.6323 74.3452 59.738 74.3452C66.175 74.3452 85.0066 74.3452 89.0313 58.4479C92.7421 43.8063 85.8227 35.3041 83.4634 30.3575Z" fill="white" stroke="#A4D8F1" stroke-width="0.330437" stroke-miterlimit="10" stroke-linecap="round"/>
<path d="M92.7355 51.9573C92.8181 53.9961 93.3072 54.7528 94.1135 54.6835C94.9329 54.6108 95.2403 53.4179 95.2403 51.8054C95.2403 50.1961 94.5926 49.0958 93.7731 49.142C92.8347 49.1982 92.6695 50.3481 92.7355 51.9573Z" fill="#A5D6EE"/>
<path d="M91.2804 59.0536H91.4059C92.579 59.0536 93.5339 58.1019 93.5339 56.9255V46.9034C93.5339 45.7304 92.5823 44.7754 91.4059 44.7754H91.2804C90.1073 44.7754 89.1523 45.727 89.1523 46.9034V56.9289C89.1523 58.1019 90.1073 59.0536 91.2804 59.0536Z" fill="#D4EAF4"/>
<mask id="mask0_2413_10836" style="mask-type:luminance" maskUnits="userSpaceOnUse" x="89" y="44" width="5" height="16">
<path d="M91.2843 59.0555H91.4098C92.5829 59.0555 93.5378 58.1039 93.5378 56.9275V46.9054C93.5378 45.7323 92.5862 44.7773 91.4098 44.7773H91.2843C90.1112 44.7773 89.1562 45.729 89.1562 46.9054V56.9308C89.1562 58.1039 90.1112 59.0555 91.2843 59.0555Z" fill="white"/>
</mask>
<g mask="url(#mask0_2413_10836)">
<path d="M89.3855 58.5959C90.2677 59.2402 90.2049 58.1399 90.2049 56.9172V46.4721C90.2049 45.2495 90.2975 45.3255 90.3338 44.886L91.378 44.625C90.1554 44.625 89.1641 45.6163 89.1641 46.8389V57.284" fill="#A5D6EE"/>
</g>
<path d="M24.9144 54.7693C24.7525 54.7098 20.1132 53.6293 20.8534 40.8843C20.9294 39.7146 22.8426 39.4073 23.1433 41.6576C23.3746 42.6588 24.1115 47.6616 25.2911 48.6364C25.2911 50.7644 25.9851 55.1559 24.9144 54.7693Z" fill="#D4EAF4"/>
<path d="M26.1669 51.624C26.2825 53.8776 25.8232 54.7599 24.9277 54.7665C24.019 54.7698 23.5597 53.4877 23.3945 51.7132C23.2293 49.9388 23.8307 48.6633 24.7394 48.6336C25.7769 48.5972 26.0743 49.8463 26.1669 51.624Z" fill="#A5D6EE"/>
<path d="M27.5465 59.0536H27.421C26.2479 59.0536 25.293 58.1019 25.293 56.9255V46.9034C25.293 45.7304 26.2446 44.7754 27.421 44.7754H27.5465C28.7196 44.7754 29.6746 45.727 29.6746 46.9034V56.9289C29.6713 58.1019 28.7196 59.0536 27.5465 59.0536Z" fill="#D4EAF4"/>
<mask id="mask1_2413_10836" style="mask-type:luminance" maskUnits="userSpaceOnUse" x="25" y="44" width="5" height="16">
<path d="M27.5465 59.0555H27.421C26.2479 59.0555 25.293 58.1039 25.293 56.9275V46.9054C25.293 45.7323 26.2446 44.7773 27.421 44.7773H27.5465C28.7196 44.7773 29.6746 45.729 29.6746 46.9054V56.9308C29.6713 58.1039 28.7196 59.0555 27.5465 59.0555Z" fill="white"/>
</mask>
<g mask="url(#mask1_2413_10836)">
<path d="M29.5046 58.3398C28.6422 58.9677 28.705 57.8937 28.705 56.7009V46.5135C28.705 45.3206 28.6157 45.3933 28.5794 44.9671L27.707 44.25C28.8999 44.25 29.7227 45.6808 29.7227 46.8737V57.061" fill="#A5D6EE"/>
</g>
<path d="M55.983 49.3914C55.0313 49.3782 54.8595 50.4323 54.767 50.918C54.7273 51.1196 54.3341 53.4425 53.0851 55.0782C52.0872 56.3867 51.0198 57.1104 49.8336 57.4673C48.7729 57.7878 47.5007 57.9563 46.3607 57.9266C45.2174 57.9034 43.9584 57.6721 42.9142 57.302C41.7478 56.889 40.6673 56.1455 39.785 54.7577C38.9721 53.4822 38.5855 51.8763 38.298 50.6735C38.1824 50.1944 37.9511 49.0477 37.0027 49.0808C35.6149 49.1303 35.714 50.2869 35.7305 50.4488C35.8958 52.0018 36.0312 52.3224 36.3319 53.502C36.7053 54.9626 37.3034 56.1521 38.1031 57.1467C39.0977 58.3925 40.3798 59.2748 42.0221 59.8497C43.324 60.3057 44.725 60.5602 46.2979 60.6295C47.8741 60.6362 49.2851 60.4478 50.6068 60.0579C52.2722 59.5622 53.594 58.7427 54.6513 57.5466C55.4973 56.5883 56.287 55.4351 56.7496 54.001C57.1461 52.7685 57.2354 52.3653 57.3411 50.9841C57.3477 50.9246 57.3642 49.4112 55.983 49.3914Z" fill="#FC1682"/>
<path d="M62.8631 49.3914C63.8147 49.3782 63.9865 50.4323 64.0791 50.918C64.1187 51.1196 64.5119 53.4425 65.761 55.0782C66.7589 56.3867 67.8262 57.1104 69.0125 57.4673C70.0732 57.7878 71.3454 57.9563 72.4854 57.9266C73.6287 57.9034 74.8877 57.6721 75.9318 57.302C77.0983 56.889 78.1788 56.1455 79.0611 54.7577C79.8739 53.4822 80.2606 51.8763 80.548 50.6735C80.6637 50.1944 80.895 49.0477 81.8434 49.0808C83.2312 49.1303 83.1321 50.2869 83.1155 50.4488C82.9503 52.0018 82.8148 52.3224 82.5141 53.502C82.1407 54.9626 81.5427 56.1521 80.743 57.1467C79.7484 58.3925 78.4663 59.2748 76.824 59.8497C75.5221 60.3057 74.121 60.5602 72.5482 60.6295C70.972 60.6362 69.561 60.4478 68.2393 60.0579C66.5739 59.5622 65.2521 58.7427 64.1947 57.5466C63.3488 56.5883 62.5591 55.4351 62.0964 54.001C61.6999 52.7685 61.6107 52.3653 61.505 50.9841C61.4984 50.9246 61.4818 49.4112 62.8631 49.3914Z" fill="#FC1682"/>
<path d="M48.1259 37.8576C48.4729 38.1285 48.7472 38.4986 48.8232 38.9282C49.1569 40.772 45.6774 41.4362 43.9757 41.4263C43.5064 40.1574 43.8964 38.4788 45.0397 37.7353C45.9087 37.1702 47.1181 37.1769 47.9806 37.7551C48.0301 37.7882 48.0764 37.8212 48.1259 37.8576Z" fill="#D6EEFA"/>
<path d="M70.7079 37.8576C70.3609 38.1285 70.0867 38.4986 70.0107 38.9282C69.6769 40.772 73.1564 41.4362 74.8582 41.4263C75.3274 40.1574 74.9375 38.4788 73.7942 37.7353C72.9251 37.1702 71.7157 37.1769 70.8533 37.7551C70.8004 37.7882 70.7542 37.8212 70.7079 37.8576Z" fill="#D6EEFA"/>
<path d="M59.419 59.2812C55.4174 59.2812 52.1758 61.4787 52.1758 64.1882C52.1758 64.2444 52.1758 64.2973 52.1791 64.3535C52.2353 65.5067 52.9193 66.27 53.5306 66.3625C54.4327 66.498 56.9407 65.3349 59.419 65.3315C61.8113 65.3282 64.392 66.4914 65.4924 66.3625C66.1037 66.2898 66.6027 65.5067 66.6588 64.3535C66.6621 64.2973 66.6621 64.2444 66.6621 64.1882C66.6621 61.4787 63.4205 59.2812 59.419 59.2812Z" fill="#FC1682"/>
<path d="M42.4673 47.197C40.9638 49.8768 40.2534 53.9478 44.0138 55.8908C47.946 57.923 52.3672 56.132 52.9058 51.5753C53.5931 45.7629 50.1169 43.8431 48.1574 43.8265C46.6606 43.81 44.0699 44.3387 42.4673 47.197Z" fill="#D8F0FC"/>
<path d="M45.6705 47.6648C44.4148 49.5185 44.3025 51.3756 44.97 52.9352C45.6705 54.5676 49.4738 55.7803 51.2681 52.9187C52.4114 51.0881 51.6316 47.9589 50.1512 46.7131C49.041 45.7747 46.827 45.9564 45.6705 47.6648Z" fill="#172345"/>
<path d="M50.5435 43.4772C47.14 46.9831 41.668 46.4445 41.668 46.4445C41.668 46.4445 43.0459 43.8869 45.7323 43.0145C48.4188 42.1422 50.5435 43.4772 50.5435 43.4772Z" fill="white"/>
<path d="M41.668 46.4439C41.668 46.4439 47.1367 46.9825 50.5435 43.4766" stroke="#A4D8F1" stroke-width="0.330437" stroke-miterlimit="10" stroke-linecap="round"/>
<path d="M76.3826 47.197C77.886 49.8768 78.5965 53.9478 74.8361 55.8908C70.9039 57.923 66.4827 56.132 65.9441 51.5753C65.2568 45.7629 68.7329 43.8431 70.6924 43.8265C72.1893 43.81 74.7799 44.3387 76.3826 47.197Z" fill="#D8F0FC"/>
<path d="M73.1803 47.6648C74.436 49.5185 74.5483 51.3756 73.8808 52.9352C73.1803 54.5676 69.377 55.7803 67.5827 52.9187C66.4394 51.0881 67.2192 47.9589 68.6996 46.7131C69.8098 45.7747 72.0238 45.9564 73.1803 47.6648Z" fill="#172345"/>
<path d="M68.3125 43.4772C71.716 46.9831 77.188 46.4445 77.188 46.4445C77.188 46.4445 75.8101 43.8869 73.1237 43.0145C70.4372 42.1422 68.3125 43.4772 68.3125 43.4772Z" fill="white"/>
<path d="M77.188 46.4439C77.188 46.4439 71.7193 46.9825 68.3125 43.4766" stroke="#A4D8F1" stroke-width="0.330437" stroke-miterlimit="10" stroke-linecap="round"/>
<path d="M46.876 51.3941C48.3889 51.3941 49.6154 50.2343 49.6154 48.8035C49.6154 47.3728 48.3889 46.2129 46.876 46.2129C45.3632 46.2129 44.1367 47.3728 44.1367 48.8035C44.1367 50.2343 45.3632 51.3941 46.876 51.3941Z" fill="white"/>
<path d="M50.935 53.7637C51.665 53.7637 52.2568 53.2045 52.2568 52.5147C52.2568 51.8248 51.665 51.2656 50.935 51.2656C50.205 51.2656 49.6133 51.8248 49.6133 52.5147C49.6133 53.2045 50.205 53.7637 50.935 53.7637Z" fill="white"/>
<path d="M45.1409 53.7683C45.7559 53.7683 46.2545 53.2964 46.2545 52.7142C46.2545 52.1321 45.7559 51.6602 45.1409 51.6602C44.5259 51.6602 44.0273 52.1321 44.0273 52.7142C44.0273 53.2964 44.5259 53.7683 45.1409 53.7683Z" fill="white"/>
<path d="M69.4385 51.3941C70.9514 51.3941 72.1779 50.2343 72.1779 48.8035C72.1779 47.3728 70.9514 46.2129 69.4385 46.2129C67.9257 46.2129 66.6992 47.3728 66.6992 48.8035C66.6992 50.2343 67.9257 51.3941 69.4385 51.3941Z" fill="white"/>
<path d="M73.4975 53.7637C74.2275 53.7637 74.8193 53.2045 74.8193 52.5147C74.8193 51.8248 74.2275 51.2656 73.4975 51.2656C72.7675 51.2656 72.1758 51.8248 72.1758 52.5147C72.1758 53.2045 72.7675 53.7637 73.4975 53.7637Z" fill="white"/>
<path d="M67.7073 53.7683C68.3223 53.7683 68.8209 53.2964 68.8209 52.7142C68.8209 52.1321 68.3223 51.6602 67.7073 51.6602C67.0923 51.6602 66.5938 52.1321 66.5938 52.7142C66.5938 53.2964 67.0923 53.7683 67.7073 53.7683Z" fill="white"/>
<path d="M49 66.8824C49 68.2468 48.1046 69 47 69C45.8954 69 45 68.2468 45 66.8824C45 65.5179 47 63 47 63C47 63 49 65.5179 49 66.8824Z" fill="#9AEFFD"/>
<path d="M46 58.2353C46 59.3724 45.3284 60 44.5 60C43.6716 60 43 59.3724 43 58.2353C43 57.0982 44.5 55 44.5 55C44.5 55 46 57.0982 46 58.2353Z" fill="#9AEFFD"/>
<path d="M74 60.2353C74 61.3724 73.3284 62 72.5 62C71.6716 62 71 61.3724 71 60.2353C71 59.0982 72.5 57 72.5 57C72.5 57 74 59.0982 74 60.2353Z" fill="#9AEFFD"/>
<path d="M78 65.2353C78 66.3724 77.3284 67 76.5 67C75.6716 67 75 66.3724 75 65.2353C75 64.0982 76.5 62 76.5 62C76.5 62 78 64.0982 78 65.2353Z" fill="#9AEFFD"/>
<defs>
<filter id="filter0_d_2413_10836" x="0" y="0" width="116" height="116" filterUnits="userSpaceOnUse" color-interpolation-filters="sRGB">
<feFlood flood-opacity="0" result="BackgroundImageFix"/>
<feColorMatrix in="SourceAlpha" type="matrix" values="0 0 0 0 0 0 0 0 0 0 0 0 0 0 0 0 0 0 127 0" result="hardAlpha"/>
<feOffset dy="4"/>
<feGaussianBlur stdDeviation="2"/>
<feComposite in2="hardAlpha" operator="out"/>
<feColorMatrix type="matrix" values="0 0 0 0 0 0 0 0 0 0 0 0 0 0 0 0 0 0 0.25 0"/>
<feBlend mode="normal" in2="BackgroundImageFix" result="effect1_dropShadow_2413_10836"/>
<feBlend mode="normal" in="SourceGraphic" in2="effect1_dropShadow_2413_10836" result="shape"/>
</filter>
</defs>
</svg>
