<svg width="18" height="18" viewBox="0 0 18 18" fill="none" xmlns="http://www.w3.org/2000/svg">
<path d="M15.5628 17.8106C15.4867 17.8106 15.4086 17.8106 15.3315 17.7991C11.4348 17.4069 7.79332 15.6788 5.02417 12.9076C2.25502 10.1364 0.528464 6.4925 0.137023 2.59333C0.104568 2.2836 0.138003 1.97051 0.235129 1.67465C0.332256 1.37878 0.490874 1.10684 0.700554 0.876697C0.925577 0.628978 1.19996 0.431162 1.50602 0.295989C1.81209 0.160815 2.14305 0.0912803 2.4776 0.0918626H5.35359C5.8625 0.0912879 6.35864 0.251206 6.77153 0.548895C7.18442 0.846584 7.49304 1.2669 7.65355 1.75012L8.59103 4.54864C8.73412 4.97636 8.75464 5.43563 8.65025 5.87443C8.54587 6.31322 8.32076 6.71399 8.00042 7.03134L7.55043 7.4816C8.29891 8.6445 9.2904 9.63126 10.4566 10.3739L10.8983 9.93095C11.2169 9.61265 11.6177 9.3893 12.0558 9.28585C12.494 9.18241 12.9523 9.20295 13.3795 9.34519L16.1763 10.2832C16.6584 10.4436 17.0779 10.7516 17.3753 11.1637C17.6727 11.5758 17.8331 12.071 17.8336 12.5794V15.4571C17.8433 16.0702 17.6098 16.6622 17.1842 17.1033C16.7585 17.5445 16.1755 17.7988 15.5628 17.8106ZM2.4776 1.70948C2.37157 1.70701 2.26623 1.7271 2.16854 1.76843C2.07085 1.80976 1.98305 1.87137 1.91095 1.9492C1.85094 2.01428 1.8052 2.09121 1.77668 2.17504C1.74815 2.25887 1.73747 2.34774 1.74533 2.43594C2.10126 5.96354 3.66426 9.25976 6.16981 11.7668C8.67537 14.2739 11.9696 15.8378 15.4951 16.194H15.5544C15.6405 16.1927 15.7255 16.1743 15.8044 16.1398C15.8833 16.1052 15.9545 16.0553 16.0138 15.9928C16.1503 15.8486 16.2251 15.6567 16.2221 15.4581V12.5794C16.2221 12.4096 16.1686 12.2442 16.0693 12.1065C15.9701 11.9688 15.83 11.8659 15.669 11.8123L12.8722 10.8794C12.7299 10.8319 12.5771 10.8249 12.431 10.8594C12.2849 10.8938 12.1513 10.9682 12.0451 11.0743L11.5983 11.5225C11.2955 11.8242 10.886 11.9942 10.4587 11.9957C10.1393 11.9961 9.82725 11.8994 9.56393 11.7185C8.21117 10.8538 7.06044 9.7077 6.19004 8.35816C5.98852 8.04961 5.89941 7.68101 5.93774 7.31442C5.97607 6.94783 6.13948 6.60565 6.40045 6.34552L6.85773 5.88796C6.96432 5.78207 7.03901 5.64832 7.07327 5.50199C7.10753 5.35566 7.09998 5.20264 7.05148 5.06039L6.12025 2.26292C6.06715 2.10175 5.96454 1.96146 5.82706 1.86208C5.68958 1.76269 5.52424 1.70929 5.35464 1.70948H2.4776ZM17.0253 6.56127C16.811 6.56099 16.6055 6.47569 16.454 6.32407C16.3025 6.17245 16.2172 5.96689 16.2169 5.75246C16.2158 4.68026 15.7897 3.65229 15.032 2.89412C14.2743 2.13596 13.2469 1.70954 12.1753 1.70843C11.961 1.70843 11.7554 1.62322 11.6038 1.47154C11.4522 1.31986 11.367 1.11414 11.367 0.899627C11.367 0.685118 11.4522 0.479395 11.6038 0.327714C11.7554 0.176034 11.961 0.0908203 12.1753 0.0908203C13.6755 0.0924756 15.1137 0.6895 16.1745 1.75091C17.2353 2.81231 17.8319 4.25141 17.8336 5.75246C17.8333 5.96689 17.748 6.17245 17.5965 6.32407C17.445 6.47569 17.2395 6.56099 17.0253 6.56127ZM13.7961 6.56127C13.5819 6.56099 13.3764 6.47569 13.2249 6.32407C13.0734 6.17245 12.9881 5.96689 12.9878 5.75246C12.9876 5.53804 12.9023 5.33248 12.7508 5.18086C12.5992 5.02924 12.3938 4.94393 12.1795 4.94366C11.965 4.94366 11.7593 4.85839 11.6076 4.70661C11.4559 4.55483 11.3707 4.34898 11.3707 4.13433C11.3707 3.91968 11.4559 3.71383 11.6076 3.56205C11.7593 3.41027 11.965 3.325 12.1795 3.325C12.8227 3.32556 13.4393 3.58152 13.894 4.03666C14.3486 4.49181 14.6042 5.10893 14.6045 5.75246C14.6043 5.85899 14.5832 5.96444 14.5423 6.06278C14.5013 6.16112 14.4414 6.25042 14.3659 6.32555C14.2905 6.40068 14.2009 6.46017 14.1024 6.50062C14.0039 6.54107 13.8984 6.56168 13.792 6.56127H13.7961Z" fill="#FFA8C6"/>
</svg>
