<svg width="35" height="28" viewBox="0 0 35 28" fill="none" xmlns="http://www.w3.org/2000/svg">
<g filter="url(#filter0_d_49_1712)">
<path fill-rule="evenodd" clip-rule="evenodd" d="M29.0557 6.43582C29.4591 6.85743 29.7488 7.38167 29.8958 7.95608C30.4395 10.0762 30.4395 14.4974 30.4395 14.4974C30.4395 14.4974 30.4395 18.9187 29.8958 21.0388C29.7488 21.6132 29.4591 22.1375 29.0557 22.5591C28.6523 22.9807 28.1494 23.2849 27.5972 23.4412C25.5645 24.0088 17.4395 24.0088 17.4395 24.0088C17.4395 24.0088 9.31445 24.0088 7.28173 23.4412C6.72954 23.2849 6.22658 22.9807 5.82318 22.5591C5.41978 22.1375 5.13008 21.6132 4.98309 21.0388C4.43945 18.9187 4.43945 14.4974 4.43945 14.4974C4.43945 14.4974 4.43945 10.0762 4.98309 7.95608C5.13008 7.38167 5.41978 6.85743 5.82318 6.43582C6.22658 6.01421 6.72954 5.71002 7.28173 5.5537C9.31445 4.98608 17.4395 4.98608 17.4395 4.98608C17.4395 4.98608 25.5645 4.98608 27.5972 5.5537C28.1494 5.71002 28.6523 6.01421 29.0557 6.43582ZM21.5787 14.4976L14.7832 10.4829V18.5123L21.5787 14.4976Z" fill="white"/>
</g>
<defs>
<filter id="filter0_d_49_1712" x="0.439453" y="0.986084" width="34" height="27.0227" filterUnits="userSpaceOnUse" color-interpolation-filters="sRGB">
<feFlood flood-opacity="0" result="BackgroundImageFix"/>
<feColorMatrix in="SourceAlpha" type="matrix" values="0 0 0 0 0 0 0 0 0 0 0 0 0 0 0 0 0 0 127 0" result="hardAlpha"/>
<feOffset/>
<feGaussianBlur stdDeviation="2"/>
<feComposite in2="hardAlpha" operator="out"/>
<feColorMatrix type="matrix" values="0 0 0 0 1 0 0 0 0 0.470588 0 0 0 0 0.458824 0 0 0 0.45 0"/>
<feBlend mode="normal" in2="BackgroundImageFix" result="effect1_dropShadow_49_1712"/>
<feBlend mode="normal" in="SourceGraphic" in2="effect1_dropShadow_49_1712" result="shape"/>
</filter>
</defs>
</svg>
