<svg width="14" height="17" viewBox="0 0 14 17" fill="none" xmlns="http://www.w3.org/2000/svg">
<path d="M7 0C8.85652 0 10.637 0.737125 11.9497 2.04922C13.2625 3.36131 14 5.14088 14 6.99646C14 9.95291 11.9215 13.1749 7.81846 16.6968C7.59031 16.8927 7.29943 17.0003 6.99866 17C6.69789 16.9997 6.40719 16.8916 6.17939 16.6954L5.908 16.46C1.98656 13.0299 0 9.8869 0 6.99646C0 5.14088 0.737498 3.36131 2.05025 2.04922C3.36301 0.737125 5.14348 0 7 0ZM7 4.30551C6.28596 4.30551 5.60116 4.58902 5.09625 5.09367C4.59135 5.59832 4.30769 6.28278 4.30769 6.99646C4.30769 7.71014 4.59135 8.3946 5.09625 8.89925C5.60116 9.4039 6.28596 9.68741 7 9.68741C7.71404 9.68741 8.39884 9.4039 8.90375 8.89925C9.40866 8.3946 9.69231 7.71014 9.69231 6.99646C9.69231 6.28278 9.40866 5.59832 8.90375 5.09367C8.39884 4.58902 7.71404 4.30551 7 4.30551Z" fill="#FC1682"/>
</svg>
