<svg width="19" height="19" viewBox="0 0 19 19" fill="none" xmlns="http://www.w3.org/2000/svg">
<path d="M9.50186 1.70467C12.0427 1.70467 12.3436 1.71582 13.3429 1.76039C14.2716 1.80125 14.773 1.95727 15.1074 2.08729C15.5494 2.25816 15.8689 2.46619 16.1995 2.7968C16.5338 3.13112 16.7381 3.44687 16.909 3.88892C17.039 4.22325 17.195 4.72845 17.2359 5.65341C17.2805 6.65639 17.2916 6.95728 17.2916 9.49443C17.2916 12.0353 17.2805 12.3362 17.2359 13.3354C17.195 14.2641 17.039 14.7656 16.909 15.0999C16.7381 15.542 16.5301 15.8615 16.1995 16.1921C15.8652 16.5264 15.5494 16.7307 15.1074 16.9016C14.773 17.0316 14.2678 17.1876 13.3429 17.2285C12.3399 17.273 12.039 17.2842 9.50186 17.2842C6.96099 17.2842 6.6601 17.273 5.66084 17.2285C4.73217 17.1876 4.23068 17.0316 3.89635 16.9016C3.4543 16.7307 3.13484 16.5227 2.80423 16.1921C2.4699 15.8577 2.26559 15.542 2.09472 15.0999C1.9647 14.7656 1.80868 14.2604 1.76782 13.3354C1.72325 12.3325 1.7121 12.0316 1.7121 9.49443C1.7121 6.95356 1.72325 6.65267 1.76782 5.65341C1.80868 4.72473 1.9647 4.22325 2.09472 3.88892C2.26559 3.44687 2.47362 3.12741 2.80423 2.7968C3.13855 2.46247 3.4543 2.25816 3.89635 2.08729C4.23068 1.95727 4.73588 1.80125 5.66084 1.76039C6.6601 1.71582 6.96099 1.70467 9.50186 1.70467ZM9.50186 -0.0078125C6.92013 -0.0078125 6.59695 0.00333165 5.58283 0.0479082C4.57243 0.0924848 3.87778 0.255932 3.276 0.489959C2.64821 0.735131 2.11701 1.05831 1.58952 1.58952C1.05831 2.117 0.735131 2.64821 0.489959 3.27228C0.255932 3.87778 0.0924848 4.56872 0.0479082 5.57912C0.00333165 6.59695 -0.0078125 6.92013 -0.0078125 9.50186C-0.0078125 12.0836 0.00333165 12.4068 0.0479082 13.4209C0.0924848 14.4313 0.255932 15.1259 0.489959 15.7277C0.735131 16.3555 1.05831 16.8867 1.58952 17.4142C2.11701 17.9417 2.64821 18.2686 3.27228 18.51C3.87778 18.7441 4.56872 18.9075 5.57912 18.9521C6.59324 18.9967 6.91642 19.0078 9.49815 19.0078C12.0799 19.0078 12.4031 18.9967 13.4172 18.9521C14.4276 18.9075 15.1222 18.7441 15.724 18.51C16.3481 18.2686 16.8793 17.9417 17.4068 17.4142C17.9343 16.8867 18.2612 16.3555 18.5026 15.7314C18.7366 15.1259 18.9001 14.435 18.9447 13.4246C18.9892 12.4105 19.0004 12.0873 19.0004 9.50558C19.0004 6.92385 18.9892 6.60067 18.9447 5.58655C18.9001 4.57615 18.7366 3.88149 18.5026 3.27971C18.2686 2.64821 17.9454 2.117 17.4142 1.58952C16.8867 1.06203 16.3555 0.735131 15.7314 0.493674C15.1259 0.259647 14.435 0.0961995 13.4246 0.051623C12.4068 0.00333165 12.0836 -0.0078125 9.50186 -0.0078125Z" fill="#FFA8C6"/>
<path d="M9.49423 4.61719C6.79734 4.61719 4.60938 6.80516 4.60938 9.50204C4.60938 12.1989 6.79734 14.3869 9.49423 14.3869C12.1911 14.3869 14.3791 12.1989 14.3791 9.50204C14.3791 6.80516 12.1911 4.61719 9.49423 4.61719ZM9.49423 12.6707C7.7446 12.6707 6.32557 11.2517 6.32557 9.50204C6.32557 7.75241 7.7446 6.33339 9.49423 6.33339C11.2439 6.33339 12.6629 7.75241 12.6629 9.50204C12.6629 11.2517 11.2439 12.6707 9.49423 12.6707Z" fill="#FFA8C6"/>
<path d="M15.7183 4.42411C15.7183 5.05561 15.2057 5.56453 14.5779 5.56453C13.9464 5.56453 13.4375 5.0519 13.4375 4.42411C13.4375 3.79261 13.9501 3.28369 14.5779 3.28369C15.2057 3.28369 15.7183 3.79632 15.7183 4.42411Z" fill="#FFA8C6"/>
</svg>
