<svg width="57" height="57" viewBox="0 0 57 57" fill="none" xmlns="http://www.w3.org/2000/svg">
<path d="M36.5504 33.1019L33.1016 36.5508L37.6972 41.1464L41.1461 37.6975L36.5504 33.1019Z" fill="#B2B2CC"/>
<path d="M40.1904 36.2334C40.4939 35.93 40.9839 35.93 41.2873 36.2334L55.9504 50.8966C57.3466 52.2927 57.3466 54.5582 55.9504 55.9544C55.2513 56.6536 54.3369 57.0021 53.4225 57.0021C52.5081 57.0021 51.5917 56.6536 50.8946 55.9544L36.2315 41.2913C35.928 40.9879 35.928 40.4979 36.2315 40.1944L40.1925 36.2334H40.1904Z" fill="#242456"/>
<path opacity="0.43" d="M21.2944 41.4531C32.4272 41.4531 41.4521 32.4282 41.4521 21.2954C41.4521 10.1626 32.4272 1.1377 21.2944 1.1377C10.1616 1.1377 1.13672 10.1626 1.13672 21.2954C1.13672 32.4282 10.1616 41.4531 21.2944 41.4531Z" fill="white"/>
<path opacity="0.84" d="M20.6569 5.57652C20.5954 4.79334 19.8593 4.23773 19.0905 4.39765C12.6877 5.73643 7.11521 10.6815 5.14085 16.9347C4.99324 17.4021 4.87228 17.9434 5.1347 18.3575C5.50579 18.946 6.44889 18.8783 6.96964 18.417C7.4904 17.9557 7.71387 17.2545 7.9599 16.6026C9.91375 11.4278 14.1433 7.62878 19.5046 6.97681C20.2017 6.89275 20.7122 6.27564 20.6569 5.57447V5.57652Z" fill="white"/>
<path opacity="0.84" d="M6.8713 22.5877C6.8713 23.621 6.52686 24.4595 5.78263 24.4595C5.03841 24.4595 4.43359 23.621 4.43359 22.5877C4.43359 21.5544 5.03636 20.7158 5.78263 20.7158C6.52891 20.7158 6.8713 21.5544 6.8713 22.5877Z" fill="white"/>
<path opacity="0.07" d="M41.4541 21.2954C41.4541 32.4281 32.4291 41.4531 21.2964 41.4531C12.2017 41.4531 4.51337 35.4296 2.00391 27.1549C4.91931 34.0395 11.7363 38.8698 19.6829 38.8698C30.2804 38.8698 38.8708 30.2795 38.8708 19.6819C38.8708 11.7353 34.0405 4.91628 27.1539 2.00293C35.4306 4.51239 41.4541 12.2007 41.4541 21.2954Z" fill="black"/>
<path d="M21.2956 42.5911C18.4212 42.5911 15.6329 42.0273 13.0065 40.9181C10.4704 39.8459 8.19265 38.3103 6.2388 36.3544C4.28289 34.3985 2.74728 32.1207 1.67502 29.5866C0.563808 26.9582 0 24.17 0 21.2956C0 18.4212 0.563808 15.6329 1.67297 13.0065C2.74523 10.4704 4.28084 8.19265 6.23675 6.2388C8.19265 4.28289 10.4684 2.74728 13.0045 1.67502C15.6329 0.563808 18.4212 0 21.2956 0C24.17 0 26.9582 0.563808 29.5846 1.67297C32.1207 2.74523 34.3985 4.28084 36.3523 6.23675C38.3082 8.19265 39.8438 10.4684 40.9161 13.0045C42.0273 15.6308 42.5891 18.4191 42.5891 21.2935C42.5891 24.1679 42.0252 26.9562 40.9161 29.5825C39.8438 32.1186 38.3082 34.3964 36.3523 36.3503C34.3964 38.3062 32.1186 39.8418 29.5846 40.914C26.9582 42.0253 24.17 42.587 21.2956 42.587V42.5911ZM21.2956 2.27574C18.7266 2.27574 16.2377 2.77804 13.8922 3.77034C11.6268 4.72779 9.59294 6.09938 7.84616 7.84616C6.09938 9.59294 4.72779 11.6268 3.77034 13.8922C2.77804 16.2356 2.27574 18.7266 2.27574 21.2956C2.27574 23.8645 2.77804 26.3534 3.77034 28.6989C4.72779 30.9644 6.09938 32.9982 7.84616 34.7449C9.59294 36.4917 11.6268 37.8633 13.8922 38.8208C16.2356 39.8131 18.7266 40.3154 21.2956 40.3154C23.8645 40.3154 26.3534 39.8131 28.6989 38.8208C30.9644 37.8633 32.9982 36.4917 34.7449 34.7449C36.4917 32.9982 37.8633 30.9644 38.8208 28.6989C39.8131 26.3555 40.3154 23.8645 40.3154 21.2956C40.3154 18.7266 39.8131 16.2377 38.8208 13.8922C37.8633 11.6268 36.4917 9.59294 34.7449 7.84616C32.9982 6.09938 30.9644 4.72779 28.6989 3.77034C26.3555 2.77804 23.8645 2.27574 21.2956 2.27574Z" fill="#D9D9E8"/>
<path d="M21.294 40.7033C18.6739 40.7033 16.1336 40.1907 13.739 39.1779C11.4284 38.2 9.35359 36.8017 7.56991 35.0201C5.78622 33.2385 4.38798 31.1637 3.41208 28.851C2.39927 26.4584 1.88672 23.9162 1.88672 21.296C1.88672 18.6758 2.39927 16.1356 3.41208 13.7409C4.39003 11.4304 5.78827 9.35555 7.56991 7.57186C9.35154 5.79023 11.4264 4.38993 13.739 3.41403C16.1316 2.40122 18.6739 1.88867 21.294 1.88867C23.9142 1.88867 26.4544 2.40122 28.8491 3.41403C31.1596 4.39198 33.2345 5.79023 35.0181 7.57186C36.7998 9.3535 38.2001 11.4283 39.176 13.7409C40.1888 16.1335 40.7013 18.6758 40.7013 21.296C40.7013 23.9162 40.1888 26.4564 39.176 28.851C38.198 31.1616 36.7998 33.2364 35.0181 35.0201C33.2365 36.8017 31.1617 38.202 28.8491 39.1779C26.4565 40.1907 23.9142 40.7033 21.294 40.7033ZM21.294 2.75181C18.7907 2.75181 16.3612 3.24181 14.0752 4.20951C11.8672 5.14441 9.8846 6.48115 8.18087 8.18487C6.47714 9.8886 5.14041 11.8712 4.20551 14.0792C3.23781 16.3652 2.74781 18.7927 2.74781 21.298C2.74781 23.8034 3.23781 26.2308 4.20551 28.5168C5.14041 30.7249 6.47714 32.7075 8.18087 34.4112C9.8846 36.1149 11.8672 37.4517 14.0752 38.3866C16.3612 39.3542 18.7887 39.8442 21.294 39.8442C23.7994 39.8442 26.2268 39.3542 28.5128 38.3866C30.7209 37.4517 32.7035 36.1149 34.4072 34.4112C36.1109 32.7075 37.4477 30.7249 38.3825 28.5168C39.3502 26.2308 39.8402 23.8034 39.8402 21.298C39.8402 18.7927 39.3502 16.3652 38.3825 14.0792C37.4477 11.8712 36.1109 9.8886 34.4072 8.18487C32.7035 6.48115 30.7209 5.14441 28.5128 4.20951C26.2268 3.24181 23.7994 2.75181 21.294 2.75181Z" fill="#B2B2CC"/>
</svg>
