<svg width="22" height="19" viewBox="0 0 22 19" fill="none" xmlns="http://www.w3.org/2000/svg">
<path fill-rule="evenodd" clip-rule="evenodd" d="M19.7139 16.4478C21.1098 15.4281 22.0017 13.9197 22.0017 12.2438C22.0017 9.17189 19.0372 6.68213 15.3798 6.68213C11.7228 6.68213 8.75781 9.17189 8.75781 12.2438C8.75781 15.3156 11.7228 17.8058 15.3798 17.8058C16.1353 17.8058 16.865 17.6969 17.5414 17.501C17.603 17.4821 17.6683 17.4715 17.7361 17.4715C17.8632 17.4715 17.9786 17.5106 18.0877 17.5741L19.5371 18.4178C19.5777 18.4409 19.6169 18.4592 19.6649 18.4592C19.7869 18.4592 19.8857 18.3595 19.8857 18.2368C19.8857 18.1815 19.8638 18.1267 19.85 18.074C19.8417 18.0425 19.6633 17.3712 19.5516 16.9521C19.5389 16.9049 19.5283 16.8596 19.5283 16.8104C19.5283 16.6611 19.6016 16.5285 19.7139 16.4478ZM13.1711 11.297C12.7146 11.297 12.3443 10.9241 12.3443 10.464C12.3443 10.0037 12.7146 9.63063 13.1711 9.63063C13.6278 9.63063 13.9979 10.0037 13.9979 10.464C13.9979 10.9241 13.6278 11.297 13.1711 11.297ZM17.5805 11.297C17.1238 11.297 16.7541 10.9241 16.7541 10.464C16.7541 10.0037 17.1238 9.63063 17.5805 9.63063C18.0372 9.63063 18.4073 10.0037 18.4073 10.464C18.4073 10.9241 18.0372 11.297 17.5805 11.297Z" fill="#FFA8C6"/>
<path fill-rule="evenodd" clip-rule="evenodd" d="M7.94628 0.541016C3.55765 0.541016 0 3.52928 0 7.21514C0 9.22649 1.07048 11.0368 2.74558 12.2602C2.88016 12.3569 2.96816 12.5156 2.96816 12.6954C2.96816 12.7545 2.95562 12.8084 2.94009 12.8654C2.8063 13.3685 2.59209 14.174 2.58213 14.2116C2.56541 14.2749 2.53953 14.3406 2.53953 14.4067C2.53953 14.5542 2.65798 14.6735 2.80431 14.6735C2.86205 14.6735 2.90883 14.6522 2.95721 14.6239L4.69721 13.6115C4.82781 13.5357 4.96617 13.4889 5.11887 13.4889C5.2003 13.4889 5.27854 13.501 5.3524 13.5237C6.16407 13.7591 7.03944 13.8897 7.94628 13.8897C8.0928 13.8897 8.23814 13.8857 8.38267 13.8793C8.20986 13.3585 8.1159 12.8104 8.1159 12.2434C8.1159 8.88188 11.3604 6.15641 15.363 6.15641C15.5079 6.15641 15.545 6.16098 15.6877 6.16795C15.0892 2.97941 11.9107 0.541016 7.94628 0.541016ZM5.29954 6.02615C4.78033 6.02615 4.35966 5.6021 4.35966 5.07931C4.35966 4.55631 4.78033 4.13246 5.29954 4.13246C5.81796 4.13246 6.23863 4.55631 6.23863 5.07931C6.23863 5.6021 5.81796 6.02615 5.29954 6.02615ZM10.5894 6.02596C10.0706 6.02596 9.64996 5.6021 9.64996 5.07931C9.64996 4.55631 10.0706 4.13246 10.5894 4.13246C11.1083 4.13246 11.5289 4.55631 11.5289 5.07931C11.5289 5.6021 11.1083 6.02596 10.5894 6.02596Z" fill="#FFA8C6"/>
</svg>
