<svg width="149" height="31" viewBox="0 0 149 31" fill="none" xmlns="http://www.w3.org/2000/svg">
<path d="M57.2876 3.63305C57.2084 3.55386 57.1134 3.47467 56.9946 3.41131C57.2322 3.37964 57.4064 3.29253 57.5252 3.16582C57.644 3.03119 57.7073 2.86489 57.7073 2.66691C57.7073 2.50852 57.6677 2.36598 57.5885 2.23927C57.5093 2.11256 57.4064 2.02545 57.2797 1.97794C57.1451 1.93042 56.9391 1.90666 56.6541 1.90666H55.5058V4.5992H56.0522V3.47467H56.1631C56.2898 3.47467 56.3769 3.48259 56.4402 3.50634C56.4957 3.5301 56.5511 3.56178 56.6065 3.61721C56.6541 3.67265 56.7491 3.79935 56.8916 4.01317L57.2876 4.5992H57.937L57.6044 4.07653C57.4777 3.87063 57.3747 3.72016 57.2955 3.64097L57.2876 3.63305ZM56.4561 3.04703H56.0522V2.36598H56.4798C56.7016 2.36598 56.8283 2.36598 56.8758 2.3739C56.9629 2.38973 57.0342 2.42141 57.0817 2.47685C57.1292 2.53228 57.153 2.60355 57.153 2.69858C57.153 2.77778 57.1371 2.84905 57.0975 2.89656C57.0579 2.952 57.0104 2.9916 56.9471 3.01535C56.8837 3.03911 56.7174 3.04703 56.4561 3.04703ZM65.8879 14.4507H63.4171V11.8928C63.4171 11.1721 64.2882 10.5861 65.0088 10.5861H67.4479C67.2183 9.7546 66.9174 8.88349 66.5372 7.97278H68.129C69.1268 7.97278 70.0217 8.59048 70.3939 9.51703C70.5285 9.86547 70.6473 10.2218 70.7344 10.5861H74.8207C74.7415 10.2852 74.5911 9.8338 74.3693 9.22402C74.2189 8.69343 74.0684 8.28163 73.9179 7.97278H75.4384C76.4125 7.97278 77.2836 8.57464 77.6479 9.47743C77.7904 9.84171 77.9171 10.206 78.0043 10.5861H80.9581C81.2749 10.1743 81.5521 9.68333 81.7896 9.11315C82.1064 8.33706 82.9062 7.86191 83.7457 7.86191H85.7334C85.6542 8.01238 85.5434 8.24203 85.3929 8.54296C84.9415 9.45367 84.5614 10.1347 84.2604 10.5861H86.9213C87.6419 10.5861 88.513 11.1721 88.513 11.8928V14.4428H85.8918C85.678 14.4428 85.4879 14.3794 85.3137 14.2844C85.6463 14.6249 85.9631 14.9496 86.2482 15.2426C87.1193 16.1216 86.945 17.4838 85.868 18.1569L85.8443 18.1727H85.8284C85.3216 17.46 84.5772 16.6522 83.5873 15.7415C83.2864 15.4644 83.3497 15.013 83.714 14.8071C84.0862 14.6012 84.4584 14.3873 84.8306 14.1656C84.9177 14.1102 85.0365 14.126 85.1395 14.1656C84.8781 13.9518 84.7118 13.6271 84.7118 13.2628C84.7118 12.9777 84.4822 12.7481 84.1971 12.7481H67.4955C67.2896 12.7481 67.1233 12.9144 67.1233 13.1203V13.2311C67.1233 13.5637 66.9886 13.8726 66.7669 14.0943C67.1866 14.3002 67.6538 14.5774 68.129 14.8783C68.4141 15.0605 68.4854 15.4168 68.2874 15.6861C68.224 15.7653 68.1686 15.8524 67.8835 16.2167C67.4083 16.8185 66.7827 17.5471 66.0066 18.3945H65.9908C64.9534 17.8797 64.898 16.7869 65.3969 15.8207C65.6503 15.3376 66.0146 14.8387 66.4105 14.3398C66.2601 14.4111 66.0858 14.4507 65.9116 14.4507H65.8879ZM56.5907 0.734619H56.5669C55.189 0.734619 54.0645 1.86707 54.0645 3.25293C54.0645 4.63879 55.1969 5.77124 56.5828 5.77124C57.9686 5.77124 59.1011 4.63879 59.1011 3.25293C59.1011 1.86707 57.9766 0.742538 56.5986 0.734619H56.5907ZM56.5828 5.21689C55.4978 5.21689 54.6188 4.33786 54.6188 3.25293C54.6188 2.168 55.4978 1.28896 56.5828 1.28896C57.6677 1.28896 58.5467 2.168 58.5467 3.25293C58.5467 4.33786 57.6677 5.21689 56.5828 5.21689ZM64.1536 5.54158V4.90804H78.7962C81.2195 4.9714 83.3893 4.93972 85.6146 4.41705C86.9292 4.1082 87.6499 4.98724 87.6499 5.96922L87.6261 6.59484C84.6406 7.18878 82.2094 7.27589 79.3584 7.29965H65.9116C64.9376 7.29965 64.1456 6.50773 64.1456 5.53366L64.1536 5.54158ZM27.9865 16.4939L36.9511 30.2654H33.134C32.1758 30.2654 31.273 29.7981 30.7186 29.0062L25.4682 21.475V27.3273C25.4682 28.9508 24.1536 30.2654 22.5302 30.2654H20.6929V6.82449C20.6929 5.20106 22.0075 3.88647 23.6309 3.88647H25.4682V11.576L30.4573 5.20106C31.1067 4.36954 32.1045 3.88647 33.1578 3.88647H36.9431L27.9865 16.4939ZM18.7131 25.593H19.1645V26.0365C19.1645 26.6463 19.1645 27.2798 19.1566 27.9213V27.9371C19.1487 29.2121 18.1192 30.2337 16.8442 30.2416C16.0364 30.2416 15.1891 30.2416 14.6347 30.2416C13.7319 30.2416 12.8371 30.2416 11.9422 30.2495C10.5563 30.2416 9.45555 29.9328 9.09127 29.814C5.18709 28.4519 -0.00791017 25.0704 9.04306e-06 16.7789V16.7552C0.300939 10.3485 4.16552 5.66037 10.3663 4.07653C10.7464 3.99733 11.2611 3.92606 11.8947 3.92606C11.9263 3.92606 11.9501 3.92606 11.9739 3.92606C12.9242 3.92606 13.8824 3.91814 14.8406 3.91022C16.1235 3.9023 17.4144 3.88647 18.6814 3.88647H19.1407L19.117 6.59484C19.1091 7.7748 18.1429 8.73302 16.955 8.72511H15.6088C15.0624 8.70135 12.0531 8.75678 11.269 9.04187C7.28568 10.2535 5.1079 13.0886 5.09998 17.0165C5.32172 21.087 7.43615 23.5895 9.75648 24.8169C10.2871 25.0862 11.4749 25.5455 13.3439 25.5455C15.2841 25.6089 17.1451 25.6247 18.721 25.593H18.7131ZM57.2638 16.7393C57.2797 24.9041 52.2747 28.3252 48.4022 29.7506C48.4022 29.7506 48.3943 29.7506 48.3864 29.7506C48.1647 29.8298 48.0538 29.8694 47.84 29.9407C47.0797 30.1545 45.9156 30.2495 45.5276 30.2574C44.4506 30.2574 43.722 30.2574 42.6371 30.2495C42.1619 30.2495 41.465 30.2495 40.7602 30.2495C39.3031 30.2495 38.1152 29.0616 38.1073 27.6045C38.1073 26.8997 38.1073 26.2662 38.1073 26.0444V25.593H38.5587C40.4434 25.6405 42.7321 25.6089 45.0762 25.5059C45.5276 25.4742 46.264 25.3713 47.0005 25.0704C47.1272 25.0149 47.2619 24.9516 47.3886 24.8803C47.4361 24.8565 47.4836 24.8407 47.5232 24.8169C49.8435 23.5895 51.958 21.0791 52.1797 16.9928C52.1797 13.0886 49.994 10.2614 46.0344 9.04979C45.2266 8.75678 44.0388 8.70927 41.9639 8.72511H40.5781C39.2476 8.73302 38.1706 7.66393 38.1627 6.3335C38.1627 5.47031 38.1627 3.88647 38.1627 3.88647H38.5824C39.8495 3.88647 41.1403 3.89439 42.4232 3.91022C43.1914 3.91022 43.9516 3.91814 44.7119 3.92606C44.7119 3.92606 44.7515 3.92606 44.8148 3.92606C44.9653 3.92606 45.1158 3.92606 45.2742 3.92606C45.7414 3.9419 46.462 3.99734 47.2381 4.17156C53.233 5.83459 56.9629 10.4753 57.2559 16.7473L57.2638 16.7393ZM115.035 21.0553L116.302 21.2612C115.842 22.259 115.304 23.0985 114.852 23.7399C114.48 24.2705 113.752 24.4051 113.197 24.0646L112.096 23.2885C112.326 22.9322 112.5 22.6392 112.69 22.2749C113.102 21.4671 114.14 20.9128 115.035 21.0553ZM124.704 13.0886C124.102 13.54 123.342 13.9597 122.431 14.3398C122.431 14.3398 121.805 14.6645 121.56 14.229C121.299 13.7617 121.845 13.3499 121.845 13.3499C123.563 12.0116 124.902 8.70135 125.456 5.76332C125.646 4.74174 126.541 4.00525 127.579 4.00525H129.471C129.02 6.34934 128.45 8.24203 127.769 9.68333V9.71501C126.684 11.7819 124.704 13.0886 124.704 13.0886ZM148.77 28.8874V29.2121H138.665C136.092 29.2121 134.009 28.6023 132.425 27.3986C131.443 28.3093 130.113 29.1725 128.45 30.012V28.9508C128.45 28.2222 128.822 27.5491 129.424 27.1294C130.01 26.7096 130.485 26.2741 130.833 25.8148C129.701 24.223 128.901 21.578 128.45 17.8718C129.804 17.8718 130.976 18.8221 131.269 20.1446C131.546 21.3879 131.855 22.4491 132.195 23.3202C132.496 22.4095 132.647 21.3167 132.647 20.0258V17.1591C132.647 16.4859 132.1 15.9395 131.427 15.9395H129.012V14.2844C129.012 13.8884 129.17 13.5083 129.432 13.2074C130.81 11.6552 131.839 9.91299 132.528 7.98862H129.463V7.35508C129.463 6.45229 130.2 5.7158 131.103 5.7158H135.593V7.47387C135.593 7.8144 135.529 8.15492 135.403 8.46377C134.555 10.5228 133.66 12.2571 132.18 13.6588H133.906C134.65 13.6588 135.244 14.2606 135.244 15.005V19.4477C135.324 22.0215 134.904 24.1042 133.993 25.6881C135.126 26.67 136.717 27.161 138.76 27.161H147.028C147.978 27.161 148.747 27.9292 148.747 28.8795L148.77 28.8874ZM127.769 11.4335V30.004H126.636C125.567 30.004 124.704 29.1408 124.704 28.0717V14.2606C126.177 13.2628 127.143 12.2571 127.769 11.4335ZM148.113 9.68333H147.519V5.70789H142.863V5.33568C142.863 4.54376 142.221 3.89439 141.421 3.89439H139.909V5.70789H136.503V6.46021C136.503 7.10959 137.034 7.64017 137.683 7.64017H139.909V9.68333H135.371V10.5307C135.371 11.188 135.91 11.7265 136.567 11.7265H139.909V13.7696H136.393V14.4824C136.393 15.1555 136.939 15.7019 137.612 15.7019H139.909V17.6342H136.163V18.3865C136.163 19.0993 136.741 19.6774 137.454 19.6774H139.909V21.8314H135.593V22.6392C135.593 23.3202 136.147 23.8746 136.828 23.8746H139.901V26.3691H142.855V23.8746H148.303V22.9559C148.303 22.3303 147.796 21.8235 147.179 21.8235H142.855V19.6695H147.852V18.8063C147.852 18.1569 147.321 17.6263 146.672 17.6263H142.855V15.694H144.328C146.521 15.7732 147.582 14.6724 147.503 12.3996V11.7186H148.976V10.5624C148.976 10.0714 148.58 9.67541 148.089 9.67541L148.113 9.68333ZM145.025 12.4075C145.025 13.3182 144.573 13.7696 143.662 13.7696H142.871V11.7265H145.025V12.4075ZM145.025 9.68333H142.871V7.64017H145.025V9.68333ZM89.2416 27.4382C87.2777 27.454 85.3137 27.2719 83.3497 26.9076C81.4095 26.5433 80.7997 26.2028 80.0632 25.9019C81.5521 25.3871 83.7694 23.9538 85.2899 22.7184C86.0343 22.1244 86.2244 21.768 86.4145 20.8177C86.557 20.0813 86.4699 19.3606 85.7176 19.3606H71.7481C72.1361 19.1072 72.5954 18.8142 73.1339 18.4737C73.1339 18.4737 73.4349 18.2678 73.6408 18.1173H79.398C80.3483 18.046 82.9538 18.2598 83.3022 18.1173C83.6427 17.9747 84.5693 17.3175 83.4685 16.1137C83.0963 15.7019 82.4153 15.5594 82.4153 15.5594C81.6075 15.3139 80.5305 15.4485 79.9603 16.0187C79.5881 16.3909 79.1446 16.3117 78.614 16.3434H76.5867C76.7847 16.2088 76.9827 16.0821 77.1807 15.9553C77.8142 15.5752 77.933 14.7833 77.4103 14.2844C77.2123 14.0943 76.9985 13.8884 76.7609 13.6667C76.3333 13.2549 75.6364 13.1757 75.1058 13.4687C74.7178 13.6746 74.4248 13.8251 74.2189 13.9122C74.211 13.9122 74.211 13.928 74.2189 13.9359C75.1454 14.8387 75.9136 15.6386 76.5075 16.3355H73.4269C72.8172 16.3355 72.4766 16.2088 72.3895 15.9633C72.3024 15.7178 72.2628 15.6227 72.2628 15.1317C72.2628 14.9496 72.2707 14.7991 72.2866 14.6566C72.3499 14.1498 71.9223 13.7063 71.3521 13.7063H69.1189C68.913 13.7063 68.7388 13.8568 68.7388 14.0468C68.7388 15.005 68.7625 15.4881 68.7625 15.9316C68.7625 16.7869 68.6992 16.7948 68.7863 17.4362C68.8259 17.7134 69.2456 17.8797 69.8395 17.9747C68.4695 20.0179 66.5689 22.4808 64.8742 23.6528C64.0268 24.2388 63.2033 25.4188 63.9318 26.1474C64.0744 26.282 64.4386 26.6542 64.5812 26.8047C64.5812 26.8047 66.1888 25.4267 66.1967 25.4188C67.7489 24.2309 68.62 22.9084 69.8633 21.7997H69.8791C71.2017 23.4865 72.3737 24.8249 73.8704 25.8306C71.5976 26.5513 69.895 27.0343 68.2874 27.2798C67.4083 27.4144 67.345 27.5095 66.3947 27.5728C65.2147 27.652 64.4466 29.1329 64.8504 30.2416C64.8504 30.2416 64.8584 30.2495 64.8663 30.2495C67.2025 29.9961 68.517 29.6318 70.5127 29.1567C72.5004 28.6894 75.0425 28.3093 76.9906 27.454C76.9906 27.454 76.9906 27.454 76.9985 27.454C79.2555 28.5627 80.7285 28.7607 82.2252 29.0933C83.9437 29.4734 85.5988 29.7585 87.2064 29.9565C88.0617 30.0595 88.8853 29.616 89.2891 28.8557C89.3762 28.6894 89.4792 28.5152 89.598 28.3489C89.788 28.0717 89.5663 27.4144 89.2337 27.4144L89.2416 27.4382ZM76.9906 24.5081L76.563 24.4051C75.4305 23.8825 75.28 23.9775 73.1656 22.0215C73.1577 22.0215 72.7459 21.5701 72.7538 21.5701H83.025C83.025 21.5701 81.9559 22.0927 81.948 22.1007C79.1209 23.6607 78.915 23.8904 76.9906 24.5081ZM105.46 25.007C103.647 26.5196 101.105 27.7312 97.8577 28.6419V27.5332C97.8577 26.6384 98.4437 25.8623 99.2832 25.5534C102.942 24.1992 105.009 22.9243 105.46 22.6233V25.007ZM98.1903 17.5234C98.1903 21.0078 97.8102 23.5816 97.0579 25.2446C96.3768 26.9076 94.9751 28.539 92.8607 30.1228C92.8607 30.1228 92.3539 30.3683 92.1796 30.012C91.9658 29.5764 92.4489 28.9587 92.4489 28.9587C93.8823 26.9947 94.9355 22.4491 94.7851 18.2123V7.48179C94.7851 6.51565 95.5691 5.72372 96.5431 5.72372H104.89C104.89 4.71798 105.706 3.91022 106.703 3.91022H109.087V5.72372H116.603C117.656 5.72372 118.511 6.579 118.511 7.63225V7.98862H98.1903V13.8884V16.0425V17.5154V17.5234ZM100.503 23.6053C100.17 22.9005 99.7663 21.9819 99.4812 20.9286H100.764C101.675 20.9286 102.601 21.6493 102.879 22.5125C103.005 22.9005 103.124 23.2173 103.298 23.6053L102.087 24.1913C101.485 24.4368 100.788 24.1913 100.503 23.6053ZM116.579 11.283C116.579 10.5307 115.969 9.91299 115.209 9.91299H109.309V8.44001H106.015V9.91299H100.938C100.17 9.91299 99.5445 10.5386 99.5445 11.3068V12.0749H106.015H109.309H113.506V13.8884H109.309V12.8589H106.015V13.8884H99.1406V16.0425H106.015V17.9747H100.812C99.988 17.9747 99.3149 18.64 99.3149 19.4715V20.1367H106.015V26.377C106.086 27.359 105.634 27.8104 104.652 27.7391H103.631V29.8932H105.785C108.208 29.9644 109.38 28.832 109.301 26.4879V24.4447C111.043 26.2582 114.108 27.8896 118.495 29.323V28.6182C118.495 27.8262 118.036 27.1056 117.315 26.7809C115.921 26.1474 113.482 24.6823 112.255 23.7558C111.17 22.9243 109.649 21.4434 109.301 20.7702V20.1367H113.158C115.502 20.2159 116.634 19.0755 116.563 16.7314V16.0504H117.204C118.163 16.0504 118.939 15.2743 118.939 14.3082V13.8884H116.555V11.283H116.579ZM112.041 17.9747H109.317V16.0425H113.514V16.383C113.593 17.5154 113.094 18.046 112.041 17.9747Z" fill="white"/>
</svg>
