<svg width="287" height="63" viewBox="0 0 287 63" fill="none" xmlns="http://www.w3.org/2000/svg">
<g clip-path="url(#clip0_2200_9355)">
<mask id="mask0_2200_9355" style="mask-type:luminance" maskUnits="userSpaceOnUse" x="0" y="2" width="287" height="58">
<path d="M287 2H0V60H287V2Z" fill="white"/>
</mask>
<g mask="url(#mask0_2200_9355)">
<mask id="mask1_2200_9355" style="mask-type:luminance" maskUnits="userSpaceOnUse" x="0" y="2" width="287" height="58">
<path d="M287 2H0V60H287V2Z" fill="white"/>
</mask>
<g mask="url(#mask1_2200_9355)">
<path d="M110.355 7.69046C110.21 7.53265 110.018 7.38412 109.791 7.24488C110.246 7.1799 110.592 7.0128 110.82 6.75288C111.047 6.49296 111.166 6.16805 111.166 5.76889C111.166 5.45326 111.093 5.17478 110.938 4.93342C110.783 4.69206 110.583 4.52497 110.337 4.42286C110.082 4.33003 109.681 4.28361 109.126 4.28361H106.923V9.56562H107.97V7.36556H108.179C108.425 7.36556 108.598 7.38412 108.707 7.42125C108.817 7.45839 108.926 7.53265 109.026 7.64405C109.126 7.74616 109.308 8.00608 109.581 8.42382L110.337 9.5749H111.584L110.947 8.54449C110.701 8.13604 110.501 7.84827 110.355 7.69046ZM108.744 6.53009H107.97V5.19334H108.789C109.208 5.19334 109.463 5.19334 109.554 5.21191C109.718 5.23976 109.854 5.31402 109.946 5.41613C110.046 5.52753 110.082 5.66677 110.082 5.84315C110.082 6.00096 110.046 6.13092 109.982 6.24232C109.909 6.34443 109.809 6.41869 109.691 6.46511C109.563 6.50224 109.244 6.53009 108.744 6.53009ZM126.907 28.9485H122.146V23.9357C122.146 22.5246 123.821 21.3736 125.205 21.3736H129.912C129.475 19.7398 128.892 18.0317 128.164 16.2401H131.232C133.162 16.2401 134.883 17.4469 135.593 19.2756C135.857 19.9625 136.084 20.6588 136.257 21.3736H144.133C143.987 20.7794 143.696 19.8883 143.259 18.7001C142.967 17.6604 142.676 16.8435 142.385 16.2494H145.316C147.192 16.2494 148.867 17.4283 149.568 19.2106C149.85 19.9254 150.078 20.6402 150.26 21.3828H155.941C156.551 20.5752 157.088 19.6191 157.544 18.4958C158.163 16.9734 159.683 16.0359 161.304 16.0359H165.128C164.982 16.3329 164.763 16.7785 164.472 17.3726C163.598 19.1549 162.87 20.4917 162.287 21.3828H167.422C168.815 21.3828 170.49 22.5339 170.49 23.9542V28.967H165.446C165.037 28.967 164.663 28.8463 164.336 28.6607C164.982 29.3291 165.583 29.9603 166.147 30.5359C167.823 32.2625 167.486 34.936 165.419 36.2634L165.373 36.2913C165.373 36.2913 165.346 36.2913 165.337 36.2913C164.363 34.8988 162.924 33.3022 161.022 31.5198C160.448 30.9814 160.557 30.081 161.258 29.6911C161.978 29.2919 162.697 28.8649 163.416 28.4286C163.589 28.3172 163.817 28.3451 164.008 28.4286C163.507 28.0016 163.179 27.3704 163.179 26.6463C163.179 26.0893 162.733 25.6252 162.178 25.6252H130.003C129.602 25.6252 129.283 25.9501 129.283 26.3585V26.5813C129.283 27.2404 129.019 27.8438 128.591 28.2708C129.402 28.6793 130.294 29.2177 131.214 29.8118C131.769 30.1738 131.905 30.8793 131.523 31.3899C131.405 31.5477 131.305 31.7148 130.749 32.4389C129.83 33.6178 128.637 35.0474 127.144 36.709C127.144 36.709 127.117 36.7183 127.107 36.709C125.104 35.7065 124.995 33.5435 125.96 31.6498C126.443 30.6937 127.153 29.7189 127.918 28.735C127.626 28.8742 127.299 28.9485 126.953 28.9485M109.008 2H108.953C106.295 2.00928 104.128 4.22791 104.128 6.93854C104.128 9.64917 106.304 11.8771 108.971 11.8771C111.639 11.8771 113.815 9.65845 113.815 6.93854C113.815 4.21863 111.675 2.00928 109.008 2ZM108.99 10.8003C106.905 10.8003 105.202 9.06434 105.202 6.93854C105.202 4.81274 106.905 3.07682 108.99 3.07682C111.074 3.07682 112.777 4.81274 112.777 6.93854C112.777 9.06434 111.084 10.8003 108.99 10.8003ZM123.566 11.4408V10.1876H151.771C156.442 10.3083 160.621 10.2526 164.909 9.23143C167.449 8.62804 168.833 10.3454 168.833 12.2762L168.788 13.5109C163.034 14.6713 158.345 14.8569 152.864 14.9033H126.962C125.086 14.9033 123.566 13.3531 123.566 11.4408ZM53.9167 32.9587L71.1878 60.0093H63.8314C61.9832 60.0093 60.2443 59.081 59.1881 57.54L49.0822 42.7522V54.2446C49.0822 57.4286 46.5511 60.0186 43.4192 60.0186H39.8867V13.9657C39.8867 10.7817 42.4177 8.19174 45.5497 8.19174H49.0822V23.2951L58.6965 10.7724C59.9438 9.14789 61.8649 8.19174 63.8951 8.19174H71.1787L53.9258 32.9494L53.9167 32.9587ZM36.0355 50.8284L36.9004 50.8099V51.6917C36.9004 52.88 36.8913 54.1332 36.8822 55.3864V55.4235C36.864 57.9206 34.8792 59.9443 32.4301 59.9443C30.8642 59.9443 29.2345 59.9536 28.1692 59.9629C26.4303 59.9629 24.7095 59.9721 22.9797 59.9814C20.303 59.9629 18.1816 59.3502 17.4806 59.1274C9.98762 56.4353 -0.0181841 49.7887 2.48172e-05 33.5157V33.4693C0.58271 20.8816 8.03016 11.6636 19.9661 8.56306C20.7036 8.41453 21.696 8.27529 22.9069 8.26601C22.9615 8.26601 23.007 8.26601 23.0525 8.26601C24.8825 8.26601 26.7216 8.24744 28.5698 8.23816C31.0462 8.21959 33.5227 8.19174 35.9718 8.19174H36.864L36.8185 13.5109C36.8003 15.8316 34.9338 17.7068 32.6577 17.6975H30.063C29.0068 17.6418 23.2073 17.7532 21.696 18.3195C14.03 20.7052 9.82374 26.2564 9.81464 33.9798C10.2425 41.9725 14.3122 46.8924 18.7825 49.306C19.8113 49.8259 22.0966 50.7449 25.6928 50.7449C29.4348 50.8656 33.0128 50.9027 36.0537 50.847M110.31 33.4321C110.346 49.4638 100.695 56.1847 93.2388 58.9882C93.2297 58.9882 93.2206 58.9882 93.2115 58.9974C92.7836 59.1553 92.5742 59.2295 92.1554 59.3688C90.6805 59.7958 88.4499 59.9722 87.7033 59.9907C85.6366 59.9907 84.2254 59.9814 82.1405 59.9722C81.2209 59.9722 79.8826 59.9721 78.5351 59.9629C75.7218 59.9629 73.4366 57.6328 73.4275 54.7644C73.4275 53.3812 73.4184 52.1373 73.4184 51.701V50.8191L74.2833 50.8377C77.916 50.912 82.3226 50.8377 86.8384 50.652C87.7033 50.5871 89.1236 50.3921 90.5439 49.798C90.7897 49.6866 91.0447 49.5567 91.2905 49.436C91.3815 49.3896 91.4726 49.3524 91.5545 49.306C96.0248 46.8924 100.094 41.9725 100.522 33.9427C100.513 26.275 96.307 20.7145 88.6866 18.3473C87.1297 17.7718 84.8445 17.6697 80.8568 17.7068H78.1892C75.6308 17.7254 73.555 15.6181 73.5459 13.0096C73.5459 11.3108 73.5459 8.20102 73.5459 8.20102H74.3471C76.7962 8.20102 79.2726 8.21959 81.749 8.24744C83.2239 8.25672 84.6897 8.26601 86.1556 8.27529C86.1556 8.27529 86.2284 8.27529 86.3559 8.27529C86.6472 8.27529 86.9385 8.27529 87.2299 8.27529C88.1312 8.30314 89.5151 8.40525 91.0082 8.758C102.562 12.0256 109.736 21.1322 110.31 33.4507M221.575 41.9075L224.015 42.3159C223.141 44.2654 222.094 45.9177 221.229 47.1802C220.519 48.2292 219.108 48.4798 218.043 47.8115L215.921 46.2891C216.368 45.5928 216.695 45.008 217.06 44.2932C217.861 42.7058 219.845 41.6104 221.575 41.8982M240.212 26.275C239.047 27.1661 237.59 27.983 235.842 28.7257C235.842 28.7257 234.631 29.3569 234.167 28.5122C233.657 27.5931 234.713 26.7855 234.713 26.7855C238.018 24.1585 240.604 17.6604 241.669 11.8956C242.042 9.89052 243.754 8.44238 245.757 8.44238H249.408C248.534 13.0467 247.441 16.7692 246.13 19.5912V19.6469C244.045 23.7036 240.221 26.275 240.221 26.275M286.572 57.2987V57.9299H267.107C262.154 57.9299 258.139 56.7417 255.08 54.3652C253.186 56.1476 250.628 57.8556 247.423 59.4894V57.4008C247.423 55.9619 248.142 54.653 249.289 53.8175C250.427 52.9914 251.329 52.128 252.012 51.2369C249.826 48.1178 248.297 42.91 247.423 35.6322C250.036 35.6322 252.294 37.4981 252.858 40.088C253.386 42.5387 253.987 44.6181 254.643 46.3262C255.225 44.5439 255.517 42.3902 255.517 39.8652V34.2305C255.517 32.9123 254.47 31.8355 253.168 31.8355H248.515V28.5957C248.515 27.8159 248.816 27.0733 249.326 26.4885C251.975 23.4437 253.969 20.0275 255.298 16.2401H249.389V14.9962C249.389 13.2231 250.801 11.7843 252.54 11.7843H261.198V15.2375C261.198 15.9059 261.07 16.5743 260.825 17.1869C259.195 21.2343 257.465 24.6319 254.625 27.3889H257.957C259.386 27.3889 260.542 28.5679 260.542 30.0253V38.7606C260.688 43.8198 259.887 47.9043 258.139 51.0234C260.324 52.9542 263.383 53.9197 267.325 53.9197H283.249C285.079 53.9197 286.563 55.4328 286.563 57.2987M246.112 23.0166V59.4894H243.927C241.869 59.4894 240.212 57.7906 240.212 55.702V28.5771C243.044 26.6184 244.91 24.6412 246.121 23.0166M285.307 19.5819H284.169V11.7843H275.201V11.0416C275.201 9.48207 273.962 8.21031 272.424 8.21031H269.51V11.775H262.955V13.2417C262.955 14.5227 263.975 15.5624 265.231 15.5624H269.519V19.5727H260.779V21.2343C260.779 22.5339 261.808 23.5829 263.083 23.5829H269.519V27.5931H262.746V28.9856C262.746 30.3131 263.793 31.3806 265.095 31.3806H269.519V35.1681H262.309V36.644C262.309 38.0458 263.419 39.1783 264.794 39.1783H269.519V43.4113H261.216V44.9894C261.216 46.3355 262.281 47.4216 263.602 47.4216H269.529V52.323H275.21V47.4216H285.707V45.63C285.707 44.4046 284.733 43.4113 283.531 43.4113H275.21V39.1783H284.833V37.4795C284.833 36.1985 283.813 35.1681 282.566 35.1681H275.21V31.3806H278.05C282.275 31.5291 284.314 29.3755 284.178 24.9104V23.5736H287.018V21.2993C287.018 20.3432 286.253 19.5634 285.316 19.5634M279.352 24.9289C279.352 26.7113 278.478 27.6024 276.73 27.6024H275.201V23.5922H279.352V24.9289ZM279.352 19.5819H275.201V15.5717H279.352V19.5819ZM171.901 54.4488C168.114 54.4766 164.336 54.1239 160.548 53.3998C156.806 52.6757 155.632 52.0259 154.211 51.4225C157.079 50.4107 161.349 47.5887 164.281 45.1751C165.71 44.0054 166.084 43.3092 166.439 41.4433C166.721 39.9952 166.548 38.5749 165.1 38.5749H138.197C138.934 38.0829 139.826 37.4981 140.855 36.839C140.864 36.839 141.438 36.4305 141.838 36.1428H152.928C154.758 36.0035 159.774 36.4213 160.439 36.1428C161.104 35.8643 162.879 34.5647 160.767 32.2068C160.047 31.3992 158.745 31.1114 158.745 31.1114C157.189 30.6287 155.122 30.8979 154.02 32.0211C153.31 32.7452 152.445 32.5874 151.435 32.6616H147.529C147.902 32.3924 148.284 32.1418 148.676 31.9004C149.905 31.1578 150.124 29.6076 149.113 28.6236C148.731 28.2522 148.312 27.8531 147.866 27.4168C147.037 26.6184 145.708 26.4606 144.67 27.0269C143.923 27.4353 143.359 27.7231 142.958 27.8995C142.94 27.8995 142.94 27.9273 142.958 27.9366C144.752 29.7097 146.218 31.2878 147.374 32.6524H141.429C140.263 32.6524 139.59 32.411 139.426 31.919C139.262 31.4363 139.18 31.2506 139.18 30.2759C139.18 29.9232 139.198 29.6261 139.225 29.3476C139.344 28.3544 138.524 27.491 137.432 27.491H133.135C132.734 27.491 132.406 27.7881 132.406 28.1594C132.406 30.0439 132.452 30.9907 132.452 31.8633C132.452 33.5528 132.324 33.5621 132.497 34.8153C132.57 35.363 133.38 35.6786 134.528 35.8736C131.887 39.8838 128.236 44.7202 124.959 47.0224C123.329 48.1735 121.736 50.4942 123.138 51.9145C123.402 52.1837 124.121 52.9078 124.385 53.2049C124.385 53.2141 127.481 50.4942 127.49 50.485C130.485 48.1456 132.151 45.5557 134.555 43.3835C134.564 43.3835 134.582 43.3835 134.591 43.3835C137.131 46.6882 139.398 49.3246 142.285 51.3019C137.896 52.7129 134.637 53.669 131.532 54.1517C129.848 54.4117 129.72 54.6066 127.89 54.7366C125.614 54.8944 124.139 57.7999 124.922 59.9814C124.922 59.9907 124.941 60 124.95 60C129.456 59.4987 131.987 58.7839 135.82 57.8556C139.653 56.9273 144.542 56.1847 148.303 54.5138H148.321C152.664 56.6953 155.513 57.0759 158.39 57.735C161.695 58.4869 164.9 59.0439 167.996 59.4245C169.643 59.6287 171.228 58.7561 172.002 57.2615C172.175 56.9273 172.375 56.5931 172.593 56.2682C172.967 55.7206 172.539 54.4302 171.883 54.4395M148.303 48.6933C148.303 48.6933 147.483 48.4984 147.483 48.4891C145.298 47.468 145.007 47.6536 140.946 43.8012C140.928 43.7919 140.127 42.9193 140.154 42.9193L159.938 42.9379C159.938 42.9379 157.881 43.9497 157.853 43.959C152.409 47.0224 152.008 47.4773 148.303 48.6933ZM203.13 49.6773C199.634 52.6572 194.744 55.0336 188.481 56.8159V54.6437C188.481 52.88 189.6 51.3668 191.221 50.7542C198.268 48.0992 202.256 45.5928 203.13 45.008V49.6866V49.6773ZM189.136 34.9638C189.136 41.8054 188.408 46.8553 186.951 50.1229C185.64 53.3905 182.945 56.5839 178.857 59.7029C178.857 59.7029 177.883 60.1857 177.546 59.4802C177.146 58.6168 178.074 57.41 178.074 57.41C180.842 53.5483 182.863 44.6181 182.572 36.3006V15.2282C182.572 13.3252 184.083 11.7843 185.95 11.7843H202.028C202.028 9.81626 203.594 8.21959 205.524 8.21959H210.113V11.7843H224.58C226.61 11.7843 228.258 13.4645 228.258 15.5346V16.2401H189.118V27.8345V32.0675V34.9638H189.136ZM193.588 46.911C192.942 45.5279 192.168 43.727 191.622 41.6568H194.089C195.837 41.6568 197.631 43.0679 198.168 44.7666C198.404 45.5278 198.641 46.1591 198.969 46.9203L196.629 48.0714C195.473 48.5541 194.125 48.0714 193.579 46.9203M224.562 22.7196C224.562 21.2343 223.387 20.0368 221.93 20.0368H210.568V17.1405H204.231V20.0368H194.444C192.96 20.0368 191.767 21.2622 191.767 22.766V24.2698H204.231H210.568H218.653V27.8345H210.568V25.8201H204.231V27.8345H190.993V32.0675H204.231V35.855H194.207C192.623 35.855 191.33 37.1732 191.33 38.7884V40.0973H204.231V52.3601C204.377 54.291 203.503 55.1821 201.609 55.0336H199.643V59.2666H203.794C208.456 59.4152 210.714 57.1873 210.577 52.5829V48.5727C213.928 52.1373 219.827 55.3307 228.285 58.162V56.7788C228.285 55.2285 227.393 53.8083 226.009 53.1677C223.314 51.9238 218.625 49.0461 216.267 47.2266C214.173 45.6021 211.242 42.678 210.577 41.3598V40.1066H218.006C222.522 40.2551 224.707 38.0272 224.571 33.4229V32.0861H225.818C227.666 32.0861 229.168 30.5544 229.168 28.67V27.8438H224.58V22.7289L224.562 22.7196ZM215.821 35.855H210.568V32.0675H218.653V32.7359C218.798 34.9638 217.852 36.0035 215.812 35.855" fill="#FC1682"/>
</g>
</g>
</g>
<defs>
<clipPath id="clip0_2200_9355">
<rect width="287" height="58" fill="white" transform="translate(0 2)"/>
</clipPath>
</defs>
</svg>
