<svg width="287" height="58" viewBox="0 0 287 58" fill="none" xmlns="http://www.w3.org/2000/svg">
<path d="M110.355 5.69046C110.21 5.53265 110.018 5.38412 109.791 5.24488C110.246 5.1799 110.592 5.0128 110.82 4.75288C111.047 4.49296 111.166 4.16805 111.166 3.76889C111.166 3.45326 111.093 3.17478 110.938 2.93342C110.783 2.69206 110.583 2.52497 110.337 2.42286C110.082 2.33003 109.681 2.28361 109.126 2.28361H106.923V7.56562H107.97V5.36556H108.179C108.425 5.36556 108.598 5.38412 108.707 5.42125C108.817 5.45839 108.926 5.53265 109.026 5.64405C109.126 5.74616 109.308 6.00608 109.581 6.42382L110.337 7.5749H111.584L110.947 6.54449C110.701 6.13604 110.501 5.84827 110.355 5.69046ZM108.744 4.53009H107.97V3.19334H108.789C109.208 3.19334 109.463 3.19334 109.554 3.21191C109.718 3.23976 109.854 3.31402 109.946 3.41613C110.046 3.52753 110.082 3.66677 110.082 3.84315C110.082 4.00096 110.046 4.13092 109.982 4.24232C109.909 4.34443 109.809 4.41869 109.691 4.46511C109.563 4.50224 109.244 4.53009 108.744 4.53009ZM126.907 26.9485H122.146V21.9357C122.146 20.5246 123.821 19.3736 125.205 19.3736H129.912C129.475 17.7398 128.892 16.0317 128.164 14.2401H131.232C133.162 14.2401 134.883 15.4469 135.593 17.2756C135.857 17.9625 136.084 18.6588 136.257 19.3736H144.133C143.987 18.7794 143.696 17.8883 143.259 16.7001C142.967 15.6604 142.676 14.8435 142.385 14.2494H145.316C147.192 14.2494 148.867 15.4283 149.568 17.2106C149.85 17.9254 150.078 18.6402 150.26 19.3828H155.941C156.551 18.5752 157.088 17.6191 157.544 16.4958C158.163 14.9734 159.683 14.0359 161.304 14.0359H165.128C164.982 14.3329 164.763 14.7785 164.472 15.3726C163.598 17.1549 162.87 18.4917 162.287 19.3828H167.422C168.815 19.3828 170.49 20.5339 170.49 21.9542V26.967H165.446C165.037 26.967 164.663 26.8463 164.336 26.6607C164.982 27.3291 165.583 27.9603 166.147 28.5359C167.823 30.2625 167.486 32.936 165.419 34.2634L165.373 34.2913C165.373 34.2913 165.346 34.2913 165.337 34.2913C164.363 32.8988 162.924 31.3022 161.022 29.5198C160.448 28.9814 160.557 28.081 161.258 27.6911C161.978 27.2919 162.697 26.8649 163.416 26.4286C163.589 26.3172 163.817 26.3451 164.008 26.4286C163.507 26.0016 163.179 25.3704 163.179 24.6463C163.179 24.0893 162.733 23.6252 162.178 23.6252H130.003C129.602 23.6252 129.283 23.9501 129.283 24.3585V24.5813C129.283 25.2404 129.019 25.8438 128.591 26.2708C129.402 26.6793 130.294 27.2177 131.214 27.8118C131.769 28.1738 131.905 28.8793 131.523 29.3899C131.405 29.5477 131.305 29.7148 130.749 30.4389C129.83 31.6178 128.637 33.0474 127.144 34.709C127.144 34.709 127.117 34.7183 127.107 34.709C125.104 33.7065 124.995 31.5435 125.96 29.6498C126.443 28.6937 127.153 27.7189 127.918 26.735C127.626 26.8742 127.299 26.9485 126.953 26.9485M109.008 0H108.953C106.295 0.00928297 104.128 2.22791 104.128 4.93854C104.128 7.64917 106.304 9.87708 108.971 9.87708C111.639 9.87708 113.815 7.65845 113.815 4.93854C113.815 2.21863 111.675 0.00928297 109.008 0ZM108.99 8.80026C106.905 8.80026 105.202 7.06434 105.202 4.93854C105.202 2.81274 106.905 1.07682 108.99 1.07682C111.074 1.07682 112.777 2.81274 112.777 4.93854C112.777 7.06434 111.084 8.80026 108.99 8.80026ZM123.566 9.44078V8.18758H151.771C156.442 8.30826 160.621 8.25256 164.909 7.23143C167.449 6.62804 168.833 8.34539 168.833 10.2762L168.788 11.5109C163.034 12.6713 158.345 12.8569 152.864 12.9033H126.962C125.086 12.9033 123.566 11.3531 123.566 9.44078ZM53.9167 30.9587L71.1878 58.0093H63.8314C61.9832 58.0093 60.2443 57.081 59.1881 55.54L49.0822 40.7522V52.2446C49.0822 55.4286 46.5511 58.0186 43.4192 58.0186H39.8867V11.9657C39.8867 8.78169 42.4177 6.19174 45.5497 6.19174H49.0822V21.2951L58.6965 8.77241C59.9438 7.14789 61.8649 6.19174 63.8951 6.19174H71.1787L53.9258 30.9494L53.9167 30.9587ZM36.0355 48.8284L36.9004 48.8099V49.6917C36.9004 50.88 36.8913 52.1332 36.8822 53.3864V53.4235C36.864 55.9206 34.8792 57.9443 32.4301 57.9443C30.8642 57.9443 29.2345 57.9536 28.1692 57.9629C26.4303 57.9629 24.7095 57.9721 22.9797 57.9814C20.303 57.9629 18.1816 57.3502 17.4806 57.1274C9.98762 54.4353 -0.0181841 47.7887 2.48172e-05 31.5157V31.4693C0.58271 18.8816 8.03016 9.66357 19.9661 6.56306C20.7036 6.41453 21.696 6.27529 22.9069 6.26601C22.9615 6.26601 23.007 6.26601 23.0525 6.26601C24.8825 6.26601 26.7216 6.24744 28.5698 6.23816C31.0462 6.21959 33.5227 6.19174 35.9718 6.19174H36.864L36.8185 11.5109C36.8003 13.8316 34.9338 15.7068 32.6577 15.6975H30.063C29.0068 15.6418 23.2073 15.7532 21.696 16.3195C14.03 18.7052 9.82374 24.2564 9.81464 31.9798C10.2425 39.9725 14.3122 44.8924 18.7825 47.306C19.8113 47.8259 22.0966 48.7449 25.6928 48.7449C29.4348 48.8656 33.0128 48.9027 36.0537 48.847M110.31 31.4321C110.346 47.4638 100.695 54.1847 93.2388 56.9882C93.2297 56.9882 93.2206 56.9882 93.2115 56.9974C92.7836 57.1553 92.5742 57.2295 92.1554 57.3688C90.6805 57.7958 88.4499 57.9722 87.7033 57.9907C85.6366 57.9907 84.2254 57.9814 82.1405 57.9722C81.2209 57.9722 79.8826 57.9721 78.5351 57.9629C75.7218 57.9629 73.4366 55.6328 73.4275 52.7644C73.4275 51.3812 73.4184 50.1373 73.4184 49.701V48.8191L74.2833 48.8377C77.916 48.912 82.3226 48.8377 86.8384 48.652C87.7033 48.5871 89.1236 48.3921 90.5439 47.798C90.7897 47.6866 91.0447 47.5567 91.2905 47.436C91.3815 47.3896 91.4726 47.3524 91.5545 47.306C96.0248 44.8924 100.094 39.9725 100.522 31.9427C100.513 24.275 96.307 18.7145 88.6866 16.3473C87.1297 15.7718 84.8445 15.6697 80.8568 15.7068H78.1892C75.6308 15.7254 73.555 13.6181 73.5459 11.0096C73.5459 9.31082 73.5459 6.20102 73.5459 6.20102H74.3471C76.7962 6.20102 79.2726 6.21959 81.749 6.24744C83.2239 6.25672 84.6897 6.26601 86.1556 6.27529C86.1556 6.27529 86.2284 6.27529 86.3559 6.27529C86.6472 6.27529 86.9385 6.27529 87.2299 6.27529C88.1312 6.30314 89.5151 6.40525 91.0082 6.758C102.562 10.0256 109.736 19.1322 110.31 31.4507M221.575 39.9075L224.015 40.3159C223.141 42.2654 222.094 43.9177 221.229 45.1802C220.519 46.2292 219.108 46.4798 218.043 45.8115L215.921 44.2891C216.368 43.5928 216.695 43.008 217.06 42.2932C217.861 40.7058 219.845 39.6104 221.575 39.8982M240.212 24.275C239.047 25.1661 237.59 25.983 235.842 26.7257C235.842 26.7257 234.631 27.3569 234.167 26.5122C233.657 25.5931 234.713 24.7855 234.713 24.7855C238.018 22.1585 240.604 15.6604 241.669 9.89565C242.042 7.89052 243.754 6.44238 245.757 6.44238H249.408C248.534 11.0467 247.441 14.7692 246.13 17.5912V17.6469C244.045 21.7036 240.221 24.275 240.221 24.275M286.572 55.2987V55.9299H267.107C262.154 55.9299 258.139 54.7417 255.08 52.3652C253.186 54.1476 250.628 55.8556 247.423 57.4894V55.4008C247.423 53.9619 248.142 52.653 249.289 51.8175C250.427 50.9914 251.329 50.128 252.012 49.2369C249.826 46.1178 248.297 40.91 247.423 33.6322C250.036 33.6322 252.294 35.4981 252.858 38.088C253.386 40.5387 253.987 42.6181 254.643 44.3262C255.225 42.5439 255.517 40.3902 255.517 37.8652V32.2305C255.517 30.9123 254.47 29.8355 253.168 29.8355H248.515V26.5957C248.515 25.8159 248.816 25.0733 249.326 24.4885C251.975 21.4437 253.969 18.0275 255.298 14.2401H249.389V12.9962C249.389 11.2231 250.801 9.78425 252.54 9.78425H261.198V13.2375C261.198 13.9059 261.07 14.5743 260.825 15.1869C259.195 19.2343 257.465 22.6319 254.625 25.3889H257.957C259.386 25.3889 260.542 26.5679 260.542 28.0253V36.7606C260.688 41.8198 259.887 45.9043 258.139 49.0234C260.324 50.9542 263.383 51.9197 267.325 51.9197H283.249C285.079 51.9197 286.563 53.4328 286.563 55.2987M246.112 21.0166V57.4894H243.927C241.869 57.4894 240.212 55.7906 240.212 53.702V26.5771C243.044 24.6184 244.91 22.6412 246.121 21.0166M285.307 17.5819H284.169V9.78425H275.201V9.04161C275.201 7.48207 273.962 6.21031 272.424 6.21031H269.51V9.77497H262.955V11.2417C262.955 12.5227 263.975 13.5624 265.231 13.5624H269.519V17.5727H260.779V19.2343C260.779 20.5339 261.808 21.5829 263.083 21.5829H269.519V25.5931H262.746V26.9856C262.746 28.3131 263.793 29.3806 265.095 29.3806H269.519V33.1681H262.309V34.644C262.309 36.0458 263.419 37.1783 264.794 37.1783H269.519V41.4113H261.216V42.9894C261.216 44.3355 262.281 45.4216 263.602 45.4216H269.529V50.323H275.21V45.4216H285.707V43.63C285.707 42.4046 284.733 41.4113 283.531 41.4113H275.21V37.1783H284.833V35.4795C284.833 34.1985 283.813 33.1681 282.566 33.1681H275.21V29.3806H278.05C282.275 29.5291 284.314 27.3755 284.178 22.9104V21.5736H287.018V19.2993C287.018 18.3432 286.253 17.5634 285.316 17.5634M279.352 22.9289C279.352 24.7113 278.478 25.6024 276.73 25.6024H275.201V21.5922H279.352V22.9289ZM279.352 17.5819H275.201V13.5717H279.352V17.5819ZM171.901 52.4488C168.114 52.4766 164.336 52.1239 160.548 51.3998C156.806 50.6757 155.632 50.0259 154.211 49.4225C157.079 48.4107 161.349 45.5887 164.281 43.1751C165.71 42.0054 166.084 41.3092 166.439 39.4433C166.721 37.9952 166.548 36.5749 165.1 36.5749H138.197C138.934 36.0829 139.826 35.4981 140.855 34.839C140.864 34.839 141.438 34.4305 141.838 34.1428H152.928C154.758 34.0035 159.774 34.4213 160.439 34.1428C161.104 33.8643 162.879 32.5647 160.767 30.2068C160.047 29.3992 158.745 29.1114 158.745 29.1114C157.189 28.6287 155.122 28.8979 154.02 30.0211C153.31 30.7452 152.445 30.5874 151.435 30.6616H147.529C147.902 30.3924 148.284 30.1418 148.676 29.9004C149.905 29.1578 150.124 27.6076 149.113 26.6236C148.731 26.2522 148.312 25.8531 147.866 25.4168C147.037 24.6184 145.708 24.4606 144.67 25.0269C143.923 25.4353 143.359 25.7231 142.958 25.8995C142.94 25.8995 142.94 25.9273 142.958 25.9366C144.752 27.7097 146.218 29.2878 147.374 30.6524H141.429C140.263 30.6524 139.59 30.411 139.426 29.919C139.262 29.4363 139.18 29.2506 139.18 28.2759C139.18 27.9232 139.198 27.6261 139.225 27.3476C139.344 26.3544 138.524 25.491 137.432 25.491H133.135C132.734 25.491 132.406 25.7881 132.406 26.1594C132.406 28.0439 132.452 28.9907 132.452 29.8633C132.452 31.5528 132.324 31.5621 132.497 32.8153C132.57 33.363 133.38 33.6786 134.528 33.8736C131.887 37.8838 128.236 42.7202 124.959 45.0224C123.329 46.1735 121.736 48.4942 123.138 49.9145C123.402 50.1837 124.121 50.9078 124.385 51.2049C124.385 51.2141 127.481 48.4942 127.49 48.485C130.485 46.1456 132.151 43.5557 134.555 41.3835C134.564 41.3835 134.582 41.3835 134.591 41.3835C137.131 44.6882 139.398 47.3246 142.285 49.3019C137.896 50.7129 134.637 51.669 131.532 52.1517C129.848 52.4117 129.72 52.6066 127.89 52.7366C125.614 52.8944 124.139 55.7999 124.922 57.9814C124.922 57.9907 124.941 58 124.95 58C129.456 57.4987 131.987 56.7839 135.82 55.8556C139.653 54.9273 144.542 54.1847 148.303 52.5138H148.321C152.664 54.6953 155.513 55.0759 158.39 55.735C161.695 56.4869 164.9 57.0439 167.996 57.4245C169.643 57.6287 171.228 56.7561 172.002 55.2615C172.175 54.9273 172.375 54.5931 172.593 54.2682C172.967 53.7206 172.539 52.4302 171.883 52.4395M148.303 46.6933C148.303 46.6933 147.483 46.4984 147.483 46.4891C145.298 45.468 145.007 45.6536 140.946 41.8012C140.928 41.7919 140.127 40.9193 140.154 40.9193L159.938 40.9379C159.938 40.9379 157.881 41.9497 157.853 41.959C152.409 45.0224 152.008 45.4773 148.303 46.6933ZM203.13 47.6773C199.634 50.6572 194.744 53.0336 188.481 54.8159V52.6437C188.481 50.88 189.6 49.3668 191.221 48.7542C198.268 46.0992 202.256 43.5928 203.13 43.008V47.6866V47.6773ZM189.136 32.9638C189.136 39.8054 188.408 44.8553 186.951 48.1229C185.64 51.3905 182.945 54.5839 178.857 57.7029C178.857 57.7029 177.883 58.1857 177.546 57.4802C177.146 56.6168 178.074 55.41 178.074 55.41C180.842 51.5483 182.863 42.6181 182.572 34.3006V13.2282C182.572 11.3252 184.083 9.78425 185.95 9.78425H202.028C202.028 7.81626 203.594 6.21959 205.524 6.21959H210.113V9.78425H224.58C226.61 9.78425 228.258 11.4645 228.258 13.5346V14.2401H189.118V25.8345V30.0675V32.9638H189.136ZM193.588 44.911C192.942 43.5279 192.168 41.727 191.622 39.6568H194.089C195.837 39.6568 197.631 41.0679 198.168 42.7666C198.404 43.5278 198.641 44.1591 198.969 44.9203L196.629 46.0714C195.473 46.5541 194.125 46.0714 193.579 44.9203M224.562 20.7196C224.562 19.2343 223.387 18.0368 221.93 18.0368H210.568V15.1405H204.231V18.0368H194.444C192.96 18.0368 191.767 19.2622 191.767 20.766V22.2698H204.231H210.568H218.653V25.8345H210.568V23.8201H204.231V25.8345H190.993V30.0675H204.231V33.855H194.207C192.623 33.855 191.33 35.1732 191.33 36.7884V38.0973H204.231V50.3601C204.377 52.291 203.503 53.1821 201.609 53.0336H199.643V57.2666H203.794C208.456 57.4152 210.714 55.1873 210.577 50.5829V46.5727C213.928 50.1373 219.827 53.3307 228.285 56.162V54.7788C228.285 53.2285 227.393 51.8083 226.009 51.1677C223.314 49.9238 218.625 47.0461 216.267 45.2266C214.173 43.6021 211.242 40.678 210.577 39.3598V38.1066H218.006C222.522 38.2551 224.707 36.0272 224.571 31.4229V30.0861H225.818C227.666 30.0861 229.168 28.5544 229.168 26.67V25.8438H224.58V20.7289L224.562 20.7196ZM215.821 33.855H210.568V30.0675H218.653V30.7359C218.798 32.9638 217.852 34.0035 215.812 33.855" fill="#E15697"/>
</svg>
